<mxfile host="app.diagrams.net" modified="2021-06-23T08:51:49.322Z" agent="5.0 (Windows NT 10.0; Win64; x64) AppleWebKit/537.36 (KHTML, like Gecko) Chrome/91.0.4472.114 Safari/537.36" etag="uZLXV1h3w5JPJeqPNgMU" version="14.8.0" type="github">
  <diagram id="R2lEEEUBdFMjLlhIrx00" name="Page-1">
    <mxGraphModel dx="2523" dy="896" grid="1" gridSize="10" guides="1" tooltips="1" connect="0" arrows="1" fold="1" page="1" pageScale="1" pageWidth="850" pageHeight="1100" math="0" shadow="0" extFonts="Permanent Marker^https://fonts.googleapis.com/css?family=Permanent+Marker">
      <root>
        <mxCell id="0" />
        <mxCell id="1" parent="0" />
        <mxCell id="ETw3CjuIp7A43dVD6oap-1" value="" style="rounded=0;whiteSpace=wrap;html=1;align=left;" vertex="1" parent="1">
          <mxGeometry x="-809" y="11" width="740" height="269" as="geometry" />
        </mxCell>
        <mxCell id="ETw3CjuIp7A43dVD6oap-2" value="로그인&lt;br&gt;user_id&lt;br&gt;user_password&lt;br&gt;signup_type" style="rounded=0;whiteSpace=wrap;html=1;" vertex="1" parent="1">
          <mxGeometry x="-790" y="30" width="130" height="150" as="geometry" />
        </mxCell>
        <mxCell id="ETw3CjuIp7A43dVD6oap-3" value="회원가입&lt;br&gt;user_id&lt;br&gt;user_password&lt;br&gt;user_password_confirm&lt;br&gt;signup_type" style="rounded=0;whiteSpace=wrap;html=1;" vertex="1" parent="1">
          <mxGeometry x="-640" y="30" width="130" height="150" as="geometry" />
        </mxCell>
        <mxCell id="ETw3CjuIp7A43dVD6oap-4" value="" style="rounded=0;whiteSpace=wrap;html=1;" vertex="1" parent="1">
          <mxGeometry x="-490" y="30" width="400" height="200" as="geometry" />
        </mxCell>
        <mxCell id="ETw3CjuIp7A43dVD6oap-5" value="&lt;span style=&quot;color: rgb(0 , 0 , 0) ; font-family: &amp;#34;helvetica&amp;#34; ; font-size: 12px ; font-style: normal ; font-weight: 400 ; letter-spacing: normal ; text-align: center ; text-indent: 0px ; text-transform: none ; word-spacing: 0px ; background-color: rgb(248 , 249 , 250) ; display: inline ; float: none&quot;&gt;대시보드 데이터&lt;/span&gt;&lt;br style=&quot;color: rgb(0 , 0 , 0) ; font-family: &amp;#34;helvetica&amp;#34; ; font-size: 12px ; font-style: normal ; font-weight: 400 ; letter-spacing: normal ; text-align: center ; text-indent: 0px ; text-transform: none ; word-spacing: 0px ; background-color: rgb(248 , 249 , 250)&quot;&gt;&lt;br&gt;character&lt;br style=&quot;color: rgb(0 , 0 , 0) ; font-family: &amp;#34;helvetica&amp;#34; ; font-size: 12px ; font-style: normal ; font-weight: 400 ; letter-spacing: normal ; text-align: center ; text-indent: 0px ; text-transform: none ; word-spacing: 0px ; background-color: rgb(248 , 249 , 250)&quot;&gt;&lt;span style=&quot;color: rgb(0 , 0 , 0) ; font-family: &amp;#34;helvetica&amp;#34; ; font-size: 12px ; font-style: normal ; font-weight: 400 ; letter-spacing: normal ; text-align: center ; text-indent: 0px ; text-transform: none ; word-spacing: 0px ; background-color: rgb(248 , 249 , 250) ; display: inline ; float: none&quot;&gt;job&lt;/span&gt;&lt;br style=&quot;color: rgb(0 , 0 , 0) ; font-family: &amp;#34;helvetica&amp;#34; ; font-size: 12px ; font-style: normal ; font-weight: 400 ; letter-spacing: normal ; text-align: center ; text-indent: 0px ; text-transform: none ; word-spacing: 0px ; background-color: rgb(248 , 249 , 250)&quot;&gt;&lt;span style=&quot;color: rgb(0 , 0 , 0) ; font-family: &amp;#34;helvetica&amp;#34; ; font-size: 12px ; font-style: normal ; font-weight: 400 ; letter-spacing: normal ; text-align: center ; text-indent: 0px ; text-transform: none ; word-spacing: 0px ; background-color: rgb(248 , 249 , 250) ; display: inline ; float: none&quot;&gt;level&lt;/span&gt;&lt;br style=&quot;color: rgb(0 , 0 , 0) ; font-family: &amp;#34;helvetica&amp;#34; ; font-size: 12px ; font-style: normal ; font-weight: 400 ; letter-spacing: normal ; text-align: center ; text-indent: 0px ; text-transform: none ; word-spacing: 0px ; background-color: rgb(248 , 249 , 250)&quot;&gt;&lt;span style=&quot;color: rgb(0 , 0 , 0) ; font-family: &amp;#34;helvetica&amp;#34; ; font-size: 12px ; font-style: normal ; font-weight: 400 ; letter-spacing: normal ; text-align: center ; text-indent: 0px ; text-transform: none ; word-spacing: 0px ; background-color: rgb(248 , 249 , 250) ; display: inline ; float: none&quot;&gt;rest_bonus&lt;/span&gt;" style="text;whiteSpace=wrap;html=1;" vertex="1" parent="1">
          <mxGeometry x="-480" y="50" width="110" height="90" as="geometry" />
        </mxCell>
        <mxCell id="ETw3CjuIp7A43dVD6oap-6" value="&lt;span style=&quot;color: rgb(0, 0, 0); font-family: helvetica; font-size: 12px; font-style: normal; font-weight: 400; letter-spacing: normal; text-align: center; text-indent: 0px; text-transform: none; word-spacing: 0px; background-color: rgb(248, 249, 250); display: inline; float: none;&quot;&gt;daily_quest&lt;/span&gt;&lt;br style=&quot;color: rgb(0, 0, 0); font-family: helvetica; font-size: 12px; font-style: normal; font-weight: 400; letter-spacing: normal; text-align: center; text-indent: 0px; text-transform: none; word-spacing: 0px; background-color: rgb(248, 249, 250);&quot;&gt;&lt;span style=&quot;color: rgb(0, 0, 0); font-family: helvetica; font-size: 12px; font-style: normal; font-weight: 400; letter-spacing: normal; text-align: center; text-indent: 0px; text-transform: none; word-spacing: 0px; background-color: rgb(248, 249, 250); display: inline; float: none;&quot;&gt;wed&lt;/span&gt;&lt;br style=&quot;color: rgb(0, 0, 0); font-family: helvetica; font-size: 12px; font-style: normal; font-weight: 400; letter-spacing: normal; text-align: center; text-indent: 0px; text-transform: none; word-spacing: 0px; background-color: rgb(248, 249, 250);&quot;&gt;&lt;span style=&quot;color: rgb(0, 0, 0); font-family: helvetica; font-size: 12px; font-style: normal; font-weight: 400; letter-spacing: normal; text-align: center; text-indent: 0px; text-transform: none; word-spacing: 0px; background-color: rgb(248, 249, 250); display: inline; float: none;&quot;&gt;whu&lt;/span&gt;&lt;br style=&quot;color: rgb(0, 0, 0); font-family: helvetica; font-size: 12px; font-style: normal; font-weight: 400; letter-spacing: normal; text-align: center; text-indent: 0px; text-transform: none; word-spacing: 0px; background-color: rgb(248, 249, 250);&quot;&gt;&lt;span style=&quot;color: rgb(0, 0, 0); font-family: helvetica; font-size: 12px; font-style: normal; font-weight: 400; letter-spacing: normal; text-align: center; text-indent: 0px; text-transform: none; word-spacing: 0px; background-color: rgb(248, 249, 250); display: inline; float: none;&quot;&gt;fri&lt;/span&gt;&lt;br style=&quot;color: rgb(0, 0, 0); font-family: helvetica; font-size: 12px; font-style: normal; font-weight: 400; letter-spacing: normal; text-align: center; text-indent: 0px; text-transform: none; word-spacing: 0px; background-color: rgb(248, 249, 250);&quot;&gt;&lt;span style=&quot;color: rgb(0, 0, 0); font-family: helvetica; font-size: 12px; font-style: normal; font-weight: 400; letter-spacing: normal; text-align: center; text-indent: 0px; text-transform: none; word-spacing: 0px; background-color: rgb(248, 249, 250); display: inline; float: none;&quot;&gt;sat&lt;/span&gt;&lt;br style=&quot;color: rgb(0, 0, 0); font-family: helvetica; font-size: 12px; font-style: normal; font-weight: 400; letter-spacing: normal; text-align: center; text-indent: 0px; text-transform: none; word-spacing: 0px; background-color: rgb(248, 249, 250);&quot;&gt;&lt;span style=&quot;color: rgb(0, 0, 0); font-family: helvetica; font-size: 12px; font-style: normal; font-weight: 400; letter-spacing: normal; text-align: center; text-indent: 0px; text-transform: none; word-spacing: 0px; background-color: rgb(248, 249, 250); display: inline; float: none;&quot;&gt;sun&lt;/span&gt;&lt;br style=&quot;color: rgb(0, 0, 0); font-family: helvetica; font-size: 12px; font-style: normal; font-weight: 400; letter-spacing: normal; text-align: center; text-indent: 0px; text-transform: none; word-spacing: 0px; background-color: rgb(248, 249, 250);&quot;&gt;&lt;span style=&quot;color: rgb(0, 0, 0); font-family: helvetica; font-size: 12px; font-style: normal; font-weight: 400; letter-spacing: normal; text-align: center; text-indent: 0px; text-transform: none; word-spacing: 0px; background-color: rgb(248, 249, 250); display: inline; float: none;&quot;&gt;mon&lt;/span&gt;&lt;br style=&quot;color: rgb(0, 0, 0); font-family: helvetica; font-size: 12px; font-style: normal; font-weight: 400; letter-spacing: normal; text-align: center; text-indent: 0px; text-transform: none; word-spacing: 0px; background-color: rgb(248, 249, 250);&quot;&gt;&lt;span style=&quot;color: rgb(0, 0, 0); font-family: helvetica; font-size: 12px; font-style: normal; font-weight: 400; letter-spacing: normal; text-align: center; text-indent: 0px; text-transform: none; word-spacing: 0px; background-color: rgb(248, 249, 250); display: inline; float: none;&quot;&gt;tue&lt;/span&gt;" style="text;whiteSpace=wrap;html=1;" vertex="1" parent="1">
          <mxGeometry x="-370" y="50" width="90" height="130" as="geometry" />
        </mxCell>
        <mxCell id="ETw3CjuIp7A43dVD6oap-7" value="&lt;span style=&quot;color: rgb(0, 0, 0); font-family: helvetica; font-size: 12px; font-style: normal; font-weight: 400; letter-spacing: normal; text-align: center; text-indent: 0px; text-transform: none; word-spacing: 0px; background-color: rgb(248, 249, 250); display: inline; float: none;&quot;&gt;weekly_quest&lt;/span&gt;&lt;br style=&quot;color: rgb(0, 0, 0); font-family: helvetica; font-size: 12px; font-style: normal; font-weight: 400; letter-spacing: normal; text-align: center; text-indent: 0px; text-transform: none; word-spacing: 0px; background-color: rgb(248, 249, 250);&quot;&gt;&lt;span style=&quot;color: rgb(0, 0, 0); font-family: helvetica; font-size: 12px; font-style: normal; font-weight: 400; letter-spacing: normal; text-align: center; text-indent: 0px; text-transform: none; word-spacing: 0px; background-color: rgb(248, 249, 250); display: inline; float: none;&quot;&gt;발탄&lt;/span&gt;&lt;br style=&quot;color: rgb(0, 0, 0); font-family: helvetica; font-size: 12px; font-style: normal; font-weight: 400; letter-spacing: normal; text-align: center; text-indent: 0px; text-transform: none; word-spacing: 0px; background-color: rgb(248, 249, 250);&quot;&gt;&lt;span style=&quot;color: rgb(0, 0, 0); font-family: helvetica; font-size: 12px; font-style: normal; font-weight: 400; letter-spacing: normal; text-align: center; text-indent: 0px; text-transform: none; word-spacing: 0px; background-color: rgb(248, 249, 250); display: inline; float: none;&quot;&gt;비아&lt;/span&gt;&lt;br style=&quot;color: rgb(0, 0, 0); font-family: helvetica; font-size: 12px; font-style: normal; font-weight: 400; letter-spacing: normal; text-align: center; text-indent: 0px; text-transform: none; word-spacing: 0px; background-color: rgb(248, 249, 250);&quot;&gt;&lt;span style=&quot;color: rgb(0, 0, 0); font-family: helvetica; font-size: 12px; font-style: normal; font-weight: 400; letter-spacing: normal; text-align: center; text-indent: 0px; text-transform: none; word-spacing: 0px; background-color: rgb(248, 249, 250); display: inline; float: none;&quot;&gt;쿠크&lt;/span&gt;&lt;br style=&quot;color: rgb(0, 0, 0); font-family: helvetica; font-size: 12px; font-style: normal; font-weight: 400; letter-spacing: normal; text-align: center; text-indent: 0px; text-transform: none; word-spacing: 0px; background-color: rgb(248, 249, 250);&quot;&gt;&lt;span style=&quot;color: rgb(0, 0, 0); font-family: helvetica; font-size: 12px; font-style: normal; font-weight: 400; letter-spacing: normal; text-align: center; text-indent: 0px; text-transform: none; word-spacing: 0px; background-color: rgb(248, 249, 250); display: inline; float: none;&quot;&gt;오레하&lt;/span&gt;" style="text;whiteSpace=wrap;html=1;" vertex="1" parent="1">
          <mxGeometry x="-270" y="50" width="100" height="90" as="geometry" />
        </mxCell>
        <mxCell id="ETw3CjuIp7A43dVD6oap-8" value="표 표시&lt;br&gt;수~화" style="rounded=0;whiteSpace=wrap;html=1;" vertex="1" parent="1">
          <mxGeometry x="-800" y="290" width="120" height="60" as="geometry" />
        </mxCell>
        <mxCell id="ETw3CjuIp7A43dVD6oap-9" value="일일숙제&lt;br&gt;카던&lt;br&gt;에포나&lt;br&gt;가디언" style="rounded=0;whiteSpace=wrap;html=1;" vertex="1" parent="1">
          <mxGeometry x="-660" y="290" width="120" height="60" as="geometry" />
        </mxCell>
        <mxCell id="ETw3CjuIp7A43dVD6oap-10" value="주간&lt;br&gt;주간에포나&lt;br&gt;어비스레이드&lt;br&gt;도가토&lt;br&gt;어비스&lt;br&gt;도전어비스&lt;br&gt;" style="rounded=0;whiteSpace=wrap;html=1;" vertex="1" parent="1">
          <mxGeometry x="-510" y="290" width="120" height="140" as="geometry" />
        </mxCell>
        <mxCell id="ETw3CjuIp7A43dVD6oap-11" value="휴식&lt;br&gt;0~100" style="rounded=0;whiteSpace=wrap;html=1;" vertex="1" parent="1">
          <mxGeometry x="-800" y="370" width="120" height="60" as="geometry" />
        </mxCell>
        <mxCell id="ETw3CjuIp7A43dVD6oap-12" value="캐릭터 등록&lt;br&gt;서버&lt;br&gt;길드&lt;br&gt;클래스&lt;br&gt;칭호&lt;br&gt;전투레벨&lt;br&gt;아이템레벨&lt;br&gt;원정대&lt;br&gt;pvp&lt;br&gt;영지이름" style="rounded=0;whiteSpace=wrap;html=1;" vertex="1" parent="1">
          <mxGeometry x="-800" y="460" width="200" height="260" as="geometry" />
        </mxCell>
        <mxCell id="ETw3CjuIp7A43dVD6oap-39" value="login 로그인" style="swimlane;fontStyle=0;childLayout=stackLayout;horizontal=1;startSize=26;horizontalStack=0;resizeParent=1;resizeParentMax=0;resizeLast=0;collapsible=1;marginBottom=0;swimlaneLine=1;shadow=0;" vertex="1" parent="1">
          <mxGeometry x="-30" y="11" width="170" height="104" as="geometry" />
        </mxCell>
        <mxCell id="ETw3CjuIp7A43dVD6oap-40" value="유저아이디" style="text;strokeColor=none;fillColor=none;align=left;verticalAlign=top;spacingLeft=4;spacingRight=4;overflow=hidden;rotatable=0;points=[[0,0.5],[1,0.5]];portConstraint=eastwest;" vertex="1" parent="ETw3CjuIp7A43dVD6oap-39">
          <mxGeometry y="26" width="170" height="26" as="geometry" />
        </mxCell>
        <mxCell id="ETw3CjuIp7A43dVD6oap-41" value="유저비밀번호" style="text;strokeColor=none;fillColor=none;align=left;verticalAlign=top;spacingLeft=4;spacingRight=4;overflow=hidden;rotatable=0;points=[[0,0.5],[1,0.5]];portConstraint=eastwest;" vertex="1" parent="ETw3CjuIp7A43dVD6oap-39">
          <mxGeometry y="52" width="170" height="26" as="geometry" />
        </mxCell>
        <mxCell id="ETw3CjuIp7A43dVD6oap-45" value="signup_type" style="text;strokeColor=none;fillColor=none;align=left;verticalAlign=top;spacingLeft=4;spacingRight=4;overflow=hidden;rotatable=0;points=[[0,0.5],[1,0.5]];portConstraint=eastwest;" vertex="1" parent="ETw3CjuIp7A43dVD6oap-39">
          <mxGeometry y="78" width="170" height="26" as="geometry" />
        </mxCell>
        <mxCell id="ETw3CjuIp7A43dVD6oap-46" value="daily 일일숙제" style="swimlane;fontStyle=0;childLayout=stackLayout;horizontal=1;startSize=26;horizontalStack=0;resizeParent=1;resizeParentMax=0;resizeLast=0;collapsible=1;marginBottom=0;swimlaneLine=1;shadow=0;" vertex="1" parent="1">
          <mxGeometry x="600" y="410" width="170" height="182" as="geometry" />
        </mxCell>
        <mxCell id="ETw3CjuIp7A43dVD6oap-134" value="FK) 캐릭명" style="text;strokeColor=none;fillColor=none;align=left;verticalAlign=top;spacingLeft=4;spacingRight=4;overflow=hidden;rotatable=0;points=[[0,0.5],[1,0.5]];portConstraint=eastwest;" vertex="1" parent="ETw3CjuIp7A43dVD6oap-46">
          <mxGeometry y="26" width="170" height="26" as="geometry" />
        </mxCell>
        <mxCell id="ETw3CjuIp7A43dVD6oap-135" value="FK) 유저아이디" style="text;strokeColor=none;fillColor=none;align=left;verticalAlign=top;spacingLeft=4;spacingRight=4;overflow=hidden;rotatable=0;points=[[0,0.5],[1,0.5]];portConstraint=eastwest;" vertex="1" parent="ETw3CjuIp7A43dVD6oap-46">
          <mxGeometry y="52" width="170" height="26" as="geometry" />
        </mxCell>
        <mxCell id="ETw3CjuIp7A43dVD6oap-47" value="카던" style="text;strokeColor=none;fillColor=none;align=left;verticalAlign=top;spacingLeft=4;spacingRight=4;overflow=hidden;rotatable=0;points=[[0,0.5],[1,0.5]];portConstraint=eastwest;" vertex="1" parent="ETw3CjuIp7A43dVD6oap-46">
          <mxGeometry y="78" width="170" height="26" as="geometry" />
        </mxCell>
        <mxCell id="ETw3CjuIp7A43dVD6oap-48" value="에포나" style="text;strokeColor=none;fillColor=none;align=left;verticalAlign=top;spacingLeft=4;spacingRight=4;overflow=hidden;rotatable=0;points=[[0,0.5],[1,0.5]];portConstraint=eastwest;" vertex="1" parent="ETw3CjuIp7A43dVD6oap-46">
          <mxGeometry y="104" width="170" height="26" as="geometry" />
        </mxCell>
        <mxCell id="ETw3CjuIp7A43dVD6oap-71" value="가디언" style="text;strokeColor=none;fillColor=none;align=left;verticalAlign=top;spacingLeft=4;spacingRight=4;overflow=hidden;rotatable=0;points=[[0,0.5],[1,0.5]];portConstraint=eastwest;" vertex="1" parent="ETw3CjuIp7A43dVD6oap-46">
          <mxGeometry y="130" width="170" height="26" as="geometry" />
        </mxCell>
        <mxCell id="ETw3CjuIp7A43dVD6oap-49" value="휴식게이지" style="text;strokeColor=none;fillColor=none;align=left;verticalAlign=top;spacingLeft=4;spacingRight=4;overflow=hidden;rotatable=0;points=[[0,0.5],[1,0.5]];portConstraint=eastwest;" vertex="1" parent="ETw3CjuIp7A43dVD6oap-46">
          <mxGeometry y="156" width="170" height="26" as="geometry" />
        </mxCell>
        <mxCell id="ETw3CjuIp7A43dVD6oap-62" value="요일" style="swimlane;fontStyle=0;childLayout=stackLayout;horizontal=1;startSize=26;horizontalStack=0;resizeParent=1;resizeParentMax=0;resizeLast=0;collapsible=1;marginBottom=0;swimlaneLine=1;shadow=0;" vertex="1" parent="1">
          <mxGeometry x="830" y="580" width="170" height="208" as="geometry" />
        </mxCell>
        <mxCell id="ETw3CjuIp7A43dVD6oap-63" value="수" style="text;strokeColor=none;fillColor=none;align=left;verticalAlign=top;spacingLeft=4;spacingRight=4;overflow=hidden;rotatable=0;points=[[0,0.5],[1,0.5]];portConstraint=eastwest;" vertex="1" parent="ETw3CjuIp7A43dVD6oap-62">
          <mxGeometry y="26" width="170" height="26" as="geometry" />
        </mxCell>
        <mxCell id="ETw3CjuIp7A43dVD6oap-66" value="목" style="text;strokeColor=none;fillColor=none;align=left;verticalAlign=top;spacingLeft=4;spacingRight=4;overflow=hidden;rotatable=0;points=[[0,0.5],[1,0.5]];portConstraint=eastwest;" vertex="1" parent="ETw3CjuIp7A43dVD6oap-62">
          <mxGeometry y="52" width="170" height="26" as="geometry" />
        </mxCell>
        <mxCell id="ETw3CjuIp7A43dVD6oap-68" value="금" style="text;strokeColor=none;fillColor=none;align=left;verticalAlign=top;spacingLeft=4;spacingRight=4;overflow=hidden;rotatable=0;points=[[0,0.5],[1,0.5]];portConstraint=eastwest;" vertex="1" parent="ETw3CjuIp7A43dVD6oap-62">
          <mxGeometry y="78" width="170" height="26" as="geometry" />
        </mxCell>
        <mxCell id="ETw3CjuIp7A43dVD6oap-67" value="토" style="text;strokeColor=none;fillColor=none;align=left;verticalAlign=top;spacingLeft=4;spacingRight=4;overflow=hidden;rotatable=0;points=[[0,0.5],[1,0.5]];portConstraint=eastwest;" vertex="1" parent="ETw3CjuIp7A43dVD6oap-62">
          <mxGeometry y="104" width="170" height="26" as="geometry" />
        </mxCell>
        <mxCell id="ETw3CjuIp7A43dVD6oap-64" value="일" style="text;strokeColor=none;fillColor=none;align=left;verticalAlign=top;spacingLeft=4;spacingRight=4;overflow=hidden;rotatable=0;points=[[0,0.5],[1,0.5]];portConstraint=eastwest;" vertex="1" parent="ETw3CjuIp7A43dVD6oap-62">
          <mxGeometry y="130" width="170" height="26" as="geometry" />
        </mxCell>
        <mxCell id="ETw3CjuIp7A43dVD6oap-69" value="월" style="text;strokeColor=none;fillColor=none;align=left;verticalAlign=top;spacingLeft=4;spacingRight=4;overflow=hidden;rotatable=0;points=[[0,0.5],[1,0.5]];portConstraint=eastwest;" vertex="1" parent="ETw3CjuIp7A43dVD6oap-62">
          <mxGeometry y="156" width="170" height="26" as="geometry" />
        </mxCell>
        <mxCell id="ETw3CjuIp7A43dVD6oap-65" value="화" style="text;strokeColor=none;fillColor=none;align=left;verticalAlign=top;spacingLeft=4;spacingRight=4;overflow=hidden;rotatable=0;points=[[0,0.5],[1,0.5]];portConstraint=eastwest;" vertex="1" parent="ETw3CjuIp7A43dVD6oap-62">
          <mxGeometry y="182" width="170" height="26" as="geometry" />
        </mxCell>
        <mxCell id="ETw3CjuIp7A43dVD6oap-70" value="" style="shape=image;verticalLabelPosition=bottom;labelBackgroundColor=#ffffff;verticalAlign=top;aspect=fixed;imageAspect=0;image=data:image/png,iVBORw0KGgoAAAANSUhEUgAAAggAAAFLCAYAAACz2HQ8AAAgAElEQVR4XuxdB5gUxdY9kzfnyJJzkpxMPMxZMaAYMAMqmEUU/Q2Yc1aMz0RUFIwoKIoiOS85LmEjbI4T/+9U0zM9vT27O8OysM+u71vYnemuvn3q1q1Tt27dMjz/S4ln4tkx0IuOgI6AjoCOgI6AjoCOgIyAQScIujLoCOgI6AjoCOgI6AioEdAJgq4TOgI6AjoCOgI6AjoCtRAwPDr7gGfMQBc8Ho8Oj46AjoCOgI6AjoCOgI6AQMDwxJw8z52nmnWCoCuEjoCOgI6AjoCOgI6AFwHD5O8LPPcOC9Mh0RHQEdAR0BHQEdAR0BHwJwj3nRauQ6IjoCOgI6AjoCOgI6AjoBMEXQd0BHQEdAR0BHQEdAQCIyCWGHQPgq4iOgI6AjoCOgI6AjoCSgR0gqDrg46AjoCOgI6AjoCOQC0EmoQguN1uuFwu8H+96AioETAYDDCZTOJHLzoCOgI6Ag1BgFvz7XY7aD/0cnQQOOoEQSYFVqsVRqPx6LyFXmuzR4AdvaamBjabrdm/i/4COgI6AkcXAZIDTjpjYmJ0gnAUoT6qBIHkgKQgMjLyKL6CXvX/EgLFxcWwWCz/S6+kv4uOgI5AIyNQXV2NxMTERq5Vr66Wd/doBik6HA7ExcXpqOsINBiBQ4cOISxMz8vRYMD0C3UE/oUIyN6Df+GrN+krH1UPAl3GCQkJTfpC+sOaNwL0IJjNZt1t2LybUZdeR+CoIkDvdHR09FF9hl45oBMEXQuOGgLr16/HrbfeirVr14LepNjYWJx44on4+uuvAy476QThqDWHXrGOwP8MAvURhJrdv8BjLwPMEQjrcD4cBzfCse9PRPS9Q2DgyF0JV8kewGhBWKdL4HE5ULHyNUSccCOMESlenKq3fwe47Yf/NiKsy2Wo2jwDxsg02FoPQ82uefA4ysX3YV2uQMXyV2CMbgm47AjvOcoP7+odP8CS1h+mqPQ622Hx4sV46aWXal3z9ttvo2XLlpg3bx6mTJni/X7OnDl44403cPfdd4vPsrOzcccd0nuy8HuW77//HhdddBHKy8tx3XXXeb//+OOP8eabbyI5ORnjx4/3e65OEP5nuszx9SIkBSQDZ555plDWbt26Yfny5XjxxReRm5uLzMxMzeUnnSAcX+2oS6MjcDwiUBdBsB/4B67i3QjvcQ0qN3wKc0JXGGwxXoLgqS5ExYbPENnvDjhyV8NZuBXh3a/VJAjyuzvy1sCRswIRfcb4EYSKNe/B1uZMmBM6iUvVBMHjdsBxYIn4zp6zHOb4jjCGJcAQnghLUo86of3jjz/w/vvvY/r06QGve/fdd4V9VRIE5cUc+O+66y4/glBYWIgLLrgAS5ZIcpWWluKVV17xIwgkIPn5+boH4XhU/v8FmU477TSheCQFyu2LVM5WrVrh4YcfxqOPPlrrVXWC8L/Q+vo76AgcXQTqJAj7/oSrLBvh3UeiauOXMEa3hjEiyUsQ3BW5YpCP6Hs7nAWZ4OAf3vOGWgTB46iA8EQ4KuEq3QtzYncAbrhK98Gc0lt4EEgQjJZIGOh1cFbCWbgNpth2tTwIHnspKta8D1u7c2BJ6VUnOAsWLEBWVhaqqqrEjH7EiBG44oor0LNnT/ToIZEK7uJ44YUXcN5556F37954/vnnxSTskksuwTfffCNIBSdhl19+Ofr06SPu4XZQ/k0b3KlTJ5xxxhl4/PHH8cgjj4g6dA/C0dVZvfbDCOzevRvt27fH6tWr0bdv31q4vPXWW4LVMtBIvfVVJwi6GukI6AjUh0B9SwxVm2fCU10EWKMQ0eM6OIu2w5GzXHgKWGr2LoTr0FbAZEVEr5sBt0N4G8I6XwZjuG93hMdZjar1H8MU1wG29ueKe5VLDCQI1hZDYIptA4PJhso1U2otMZBo8B5TTBu4SrMQ3mWE8GiEWpxOJ+bPny9itc466yxRjdqDsGjRIkEUXn/9de9j5CUGEgSSg1mzZonvuBuE9ysJQllZGSZNmqR7EEJtJP2+wAisWLECgwYNCniEOJX77LPPFi4sKqWy6ARB1ywdAR2B+hCojyC4ynNQtfELv2qMtjixRCCX8uWvAB6X3zURJ9wEY4RkkxjDULH6XSkuITLVe52SIMDt9N1vMKBixet+BKF85RswmCyI7D0GMJo59YcjdwVq9v6ByH7jYbBE+D2fu7joYQ1UCgoK0K9fP6xbt85vt5eSIPTq1QtffPEF+L8yiZRMEOh94DZRuTAHzauvvuolCJRh3Lhxog49BqE+TdS/DxoBsk8mMPnqq6+Ea0xd6D2YMWOGIAjqohOEoOHWb9AR+NchUB9BcFcWoGbnj15cPM4qDvneIEV+UZX5hZcgeOCBuzwXEb1v8QtS5HXVu36BOb49zPFSnIEfQQDgPLgR9pxViDjherjLc+A4tBnusgO1ghSDbSQO4oMHDxZkQF24PPvEE08ILwKL2oPAexiMePLJJ3tvlQkCPygpKcFTTz2Fl19+WXhyc3JyRDCjHqQYbCvp14eEAHcv/Pzzz9iwYYPfVtdly5ZhyJAhmDZtGq6++mqdIISErn6TjsC/G4H6CIKrPBvVm6YhctADAYEqX/oCooZMrBfIyo1TYUnuCUtKb81rlQRBeQGXJ5yHNges35zYDQZz4JwvdRGEkSNHihl+oKRyf//9tyABDEbUKkqCoP6eMRC7du0SH+sehHrVQ78gFAS4U4HrXGSm9BikpqZi48aN+OSTT4R7iwE2999/vx6DEAq4+j06Av9yBOojCO6aEjiyl/qjZLTA1uZ072c1e+YDHv/zgSzpg2AMi/e7z56zAtz5oCwGawysGSeKj4TXoGC96vtoWDNOOqJW4tZwzvAZ0K0ujOPatm2b38e0qRER0pLFzp07/eIP+BmDFW+55RbxPW3whAkTNOv1e8+jmUlRT5R0RPrR7G/m2hYDXX744QcRkctlB3oWGMDIpYfnnnsO99xzjx9J0JcYmn2z6y+gI3DUEaiPIBx1Af4lDziqHgQOEPHx/mzsX4Kr/pr1IMD1MLJZLkHQuyAXur64LVI/oU1XIR0BHYFACOgEoWl046gSBG7HYPY8vegIaCFAN5f63AVuwdFPdNT1RUdAR6AuBPSxpWn046gSBG6nkA9s0meETdOgzfkplZWVmrkRmvM76bLrCOgIND4C9E5HRUXpJ782PrR+NR5VgiA/iSRBnRDnKL+XXn0zQ4BkkkXettPMxNfF1RHQEWhiBDiuMIpfPx7+6AHfJATh6Imv16wjoCOgI6Aj8G9FgLEI3Mevl6ODgE4Qjg6ueq06AjoCOgI6AjoCzRoBnSA06+bThdcR0BHQEdAR0BE4OgjoBOHo4KrXqiOgI6AjoCOgI9CsEWhygsA1I/7oRUdAR0BHQEdAR0BH4PhFoMkIArelcKsjo9SZCEcvOgI6AjoCOgI6AjoCxy8CTUIQmHKZCZN0YnD8KoIumY6AjoCOgI6AjoASgaNOEEgOmG5ZT5SkK56OgI6AjoCOgI5A80HgqBIE7k9lKl2r1dp8ENEl1RHQEdAR0BHQEdAROLrHPTPTFZcWdO+Brmk6AjoCOgI6AjoCzQuBo+pB0E9zbF7KoEurI6AjoCOgI6AjICNwVAkC4w8SEhJ0tHUEdAR0BHQEdAR0BJoZAjpBaGYNpourI6AjoCOgI6Aj0BQI6AShKVDWn6EjoCOgI6AjoCPQzBDQCUIzazBdXB0BHQEdAR0BHYGmQOCYEwSPx4PKyoqmeNegnuFyuWEyGYO651hfTCyb044RjwfweNwwGpsPzm63R8jcnJJ+US+Y3rz5yeyCyWQ+1t0qqOdza3dzwpkv53S6YDY3r+y2tB0GQ1BNo1+sgQB1NSwsPCA2x5wgHK+tVlVVhfDwwMAdj3JXVJQjMjLqeBRNUyZug2Uga1RU85GZ8trtNYiOjmk2OHM3UVVVJWJj45qNzE6nE+XlZYiLi282MpOElZaWNCuZCW5JSXGz0g3KXFNTDZstrNnoRnMVVCcIAVpOJwhHX6V1gnD0MeYTdILQNDjrBKFpcNYJQtPhrBOEEAkCja46QyQHPIvFImpUEwwaD7r/+UM3JN2+PLiK9fAeeWlAXa/6+7pU40g8CJSXWS/VSxRFRUVCVs7yle9bXFwsrmUiLOV7B6O6oRIE3ldWVuZ9VFxcnHeZgnIRa8qq9EzIn3PbrVbbNVTuUD0IbPOSkhJNmfkuMobR0dHea3g97ztSmUMlCHzXigrf8p8yZXp5ebnAkS5K6oBc5HfkZ5WVlYiIiGgotH7XhepBkHFm+0dGRgoPFfWahfJUV1cLXaHOKGWmjvOzI5kYhEoQZJlluSizzWYT4lFeys2ixL+0tBTEiJ/J+hzq8mKoHgQ+nzaMRWkDKA/1Qy2zrOfEmfcq7V6wSqJ7EIJFLLTrdYIQJEG46aabsGDBAq/xGzVqFJ599llRy88//4zzzjtPDKhPPvkknnjiCW/tOTk5wtCz42/ZskUMcAMHDsS0adNw2WWXeY3Yl19+ieuuu8573zvvvINzzz0XHTp0qLeFQyUINGysf9GiRWjVqpX3OTfeeCMeeeQRsdTyySef4LHHHhPfffbZZ+jbt6/AIDc3VxjWYcOG1Suf+oJQCcLSpUuRlpYmjNNff/2F//znP2jRooUwSkuWLEG3bt2QmZkp8B40aBD++ecfMVjwefn5+WLQGzFiRNDy8oZQCQKfnZeXJ565fft2tGvXDm3btvXiecYZZ2D37t3CcJ522mlYvXq1GBwo94YNG8S7Xn755V4CGozwoRKEDz/8EKeeeqqXaBFjDmJZWVlYuXIlBg8eLGRmW3Tq1Anz5s1DYmKiuIbE8qeffsKLL77oHUSCkTlUgsA+d+utt+KHH34A9Zf95/777wf7Hz9j/+TgynakDlM3qP/UlW3btmHTpk3ienmADkbmUAnCRx99JPo4SSzlo42ZPHkyDh48iI8//hjXXnutEIPynX766UK3qUvss6tWrRLX0Q6FSsZCIQiXXnqpwI5E7IMPPhDPZj8kQXzmmWdw1113CZmXL18u7NvevXuxceNGnHDCCaKPUkfOPvtsKAlxMFgfC4LAdqJdl8ttt90m7CNt9sMPPyw+3rx5M2ifzjzzTO91n3/+ubiO9v6bb77BW2+9hTvvvBNr1qzBxRdfjBNPPBH33nuvsE/sU7Lubd26Vfwu24lg8Gmsa3WCECRB4OVjx47FgQMHBHvnYEllLywsFJ15x44dmDJlSi2CsG/fPtGZyZr379+Pfv36+REEfk8DwM4/ceJEIdW3334rBr4VK1aIAS01NbXOdg+FIFx44YW45pprcM455wjj+MILL+Cll14SA9jbb7+NBx54QDyTxoCyUFlfeeUVYcQ4gP3666/is6YkCL/99puQgbgXFBR4caLR5MDUtWtXMaiyjWh4Dx06JDokyQE7M0lFUxMEZcNx8OeARNxIamSDwsGWbX3llVeKweK+++4TukLDRPyPBUEg+ZMHngsuuEC8BrHlIHvyyScLfafuk4iRLFJfOJNl+zz//PNNThB+/PFHvPfee8jIyMAbb7zhJQjsWyTmNMjEdu3atUJnqRskBCS7r7/+Oj799NMmJwjUgT///FNMEkgA3n//fXDw4aDKycjNN98scP/+++9x0UUXiUGYOFOfScD++OOPJicIxJP6yQH+iy++wOLFiwVBoEzE8MEHHxQyz5gxAyNHjhT4EmfaOZI4kszmRhD4PiQ3nNxR/6+44go/e8z3evzxx0EdpF2VC/vCwoULhS0aP368mFBOmjQJy5YtE8SCf9OWkiAMHTpUkALWQR1l3+vSpQvOOuuskCYHR0oUdIIQJEHg7I9KT1ck3avsqHSn0oCfdNJJYlCSvQSnnHKKt3YOXCQOHJw4K+PsJj09PaAHgYM1S/fu3b1kgQpWV+BkKAShLgWaNWuWmAFwlkDlJXGQC2dm/Hz06NHCkLVu3TpoXQzFg8BnEUcWsnV6CziI0SDRc8NBlEyd7cNZmFxIdrKzs8WfnPHKM5xghQ7Fg8ABiYOWsrDj33333eKjO+64Q3huaHhkbxQ/J5mR9YDX06iEsuMjVA8CDRS9YpSBekhiLGdGpTGknpOUcWCVy8yZM7Fu3Trv308//XRIMofqQeCDqafsbyyckbO/sdBQEwv2YQ7C8nIgPR1///23V2bqjew6D0Y/QvUgcGJBYsgJAG0JPUj0brDQi0MPwfr164XMMTFScCzlpdxy4cxWfp9gZOa1oXgQ6C2ix5E2kLNjDoz03NCTRB3YtWuXIGQkMPLEhu9A2ykX3hOKp4b3HwsPwtdff43k5GRBhEjcSYxkQkw9nzBhgvD4Pfroo2IC0rt3b++70madf/75mDp1qpgE8n8ShJSUFEEMSWbpRSRBYN30drVs2VLoIa+jrahvghhsuzfkep0gBEBJay2SxmX27Nm17rjkkksE0+NMnIUDFQ0pB1EWGn42OAv/l9klBzMybxoBFioH183pUuTgTIOjLP3790fnzp0DtmuwBIFkhkrNws7LwZZGhsSGgxbfg0yfM913331XfCYXMl9+x0Ks6O0ItoRCEPgMut44C5fL8OHDhaxz584FOzGZPV3gAwYMEISBROaXX34RM135fuXyTzByh0IQWD+NApdoaAw4a6WxpwEgbpwZciBjG/Tq1Uu4ZGk4OQhwxsXC9yV5CGUQCIUgcBnmu+++E8+WsaRMdC3TTUq9JRGj8aKLlH2A78YZ1p49e8R9JDhsk1AG2yMhCMSTs3LqFz1MnLnOmTNH4Mk+RBnp8WA/JLkkESLZZKG89AqGMnCFShA4e5S9BErbQVvBQZhkgTL36dNH6AknFso+QI/am2++2WRLDMSV/Yzeo44dOwrCTeLKgZOEkjJTj+lCb9++vfBO0iNJe8GJFAsnHiRizWWJQdlGxJ5EiO/81FNPiT5Au0x7o7bx1Inbb79dEAA5Fkb2IBA/2gSSBNowpQchGJt0NK/VCUIAdOsKVqJRp6EkA+ZAow4O0opBaGgjqmMQGnofrwuWICjrJut96KGHvOvNnJHTzaUsXGKYP3+++IiuUHlNnWSInpFgS6gEQfkcytOjRw+x/FFX4SxHXsvlgFUX0aqrniMhCHQNc1mKLnquNda3tvjaa68J48pCY0SZm9KDEGx78nqut8qGkn/TPRpKXoAjIQicrZFsy0X2wgV6H5Lxnj17er+m8Q+FiIVKEDiBoIyyd4CDBdfx6yokMpRTLoxHCIXU8P5QPAhq2bhEQoJQVyF5YD+VsSVpCHUr+bHwIMjvxsGekyWljowbN847IdTCgMsu9BqzMGZjzJgx4nd6tUhgleWGG24QpFxZeK88mQulX4Z6j04QAiBXF0GQExLRIAQy2HV9V1djhXof62xMglCfQnEmxhmvXDjYB1sagyA0NDmUvHNEljGUWS3vDZUgUE7KIBcOmvVFnTeWzKF4EIJtS/n6xpL5SAhCsDIEe30gbI6EICh3KLD++voTn6X0MDZEnwLJ3RgEoSH9MJQ+EEjm440gEH95LGAMEZcQlIVeWXoaWOhVoReC5frrr8f06dPF7yR49OoqdwWF2g8b6z6dIIRAEBoL/Mau50gIQmPL0pD6GoMgNOQ5jXlNqAShMWUItq6mJAjByhbo+iMhCI0lQ7D1hEoQgn1OY1/fGAShsWWqr75jSRDqk+1/6XudIOgE4Zjps04QmgZ6nSA0Dc46QWganPkUnSA0DdY6QdAJQtNomsZTdILQNNDrBKFpcNYJQtPgrBOEpsP5mBMErkvRnXi8FUatylGnx5tsgeQ5ksx1R/aOHgDBn5xCgsDBi1uDmkvhOQyUu7mdeVFdXdWszo+gTeD5Ec3pzAsSBJ4fERPjyyzZHPS6rKy0WeFMTNkPrVYp22QwpSGxEoHqO5J7/esM3l423rP9JWEcVF3xWMecIATTuE157ZGkXFXLScPBBtYq6gjvI1EEdQyClN5Zeqry8eKjw2mf6+oMynTGytPTGIyjTGOslbpYGZAnP4PKqAzqVHsQ3G4X3C6nkI3P48mJRqP0AvzXbLbUeYQbdwlk5+QAh096U75z+/bt/KK81ThzQPIFhvFpUnsxUlnZgdQxCKJdBTj+GB+GGAZD3SdV8pnUNbmNlCfUceus8tlqmeVTGtVtSIyVAZBqD0Jjyyy/K/9nVLoyujtUmdUxCKxHqktqGmVv4keGek4E9cNZgO1TJU4ElGnEQ5W5lgeBp2gGktnA59etG8RATrMs67KsHwxoU+5aaKjM6j5IKNQxCEdiN1gfkwjJRWk3+GzltkYtW+dyu/wb93BFajsZyhID34ukM1Ry31gTsFBkp20PD48IaRfTkYybOkEIgJ6SIKxbsxjumv2AIQwFhW5UVbsQGRkOs8mF+AgHeg251NvZOTDyR2lw7n/gAXz99WwxjlisBjjtzG9gENuaNmzwJZWhKOpB/qtvv0HW3v2weAwweExweRxwGTy45qora23tU97rdDrw5os3o2OrWGQfDMOmHQdhs0UgLjYakbYanH76Geg16CLx9jKBUXZCDrZt2rY7jI4HcakWFOU4xMDD7Xlr1/ryEKiPuD1UWIihZ5yGcLMFEQ7A7jLAbnCgdbu2mDN3jhdxNUHYsGYRNq74CDWOGGzf68TWHTvQo2svGIweJEZV4KY7nkdkdIK4n/dyIFTKPG36dNxyy63wuD1IbmuDw+5CcbZLDCrLli1Fr14neN+XM+qICJ/n4v0P3scrL72AGHhg9dhQ47Cj3GLEwxMfwo2jb/XKrCYIa1cvwprFHyMqMgE7DwCbt2WhY/uOYIr65OgKXDv6GYRHSnn/ZQKiHEBnzfoKY8aOFYNfRIxJ/F9VKg2Es2d/JZKnSOTBI4ybUubZ33yDJ55+CpEwwOIyw+5yosrkxj3jxuHmMaO9MqsJwvq1i7HsjylIiE3CzmwDMjfvRod2HWG1GJAUU4lRY59DWLh0JgRl5rOV+sw98LeOHiMIXHgMd2N4UFUinTXy/vtTcNVVV3qfrTaqP82bh4mTHkKkwQSz0wTHYZnHjx2LMXfc7r1PTRC2bFyJP+e9juTEZOzKMQmZ27ZuC5vNhMSoStw07mVYrNKZC9R96TwO3wzzu+++x/U33CBktkUaQa5ZWSzJ/NJLL4iEX3JRTw7mzf8VEyZORITBCKvTCLvLjSqTC7fdeivuuHO89z41Qdi1IxO/zH0O6cnJ2JVtxobNe9CqZWuE2cxIiKrE6LtehclsPSyzEy6X0++EwvnzF2DElVdK+IcZYA03ouyQS5Dmxx77P9x3370BZf5lwXw8MPFBhMMIm9OIGpcbNSYXbhg1Cvc94L+tTkkQSNIfn3gpBvVujZxDNmzcfghGowVJiQkIs9lxypB+GDxslHgu+z31Q+lpFWmrE5O8OhuffthuwICUlGRs3rzJ22crKyv89Jk3DTn1FNg5iDsNcHoscLirYYuKxOIli/0stXKQ/WbWFIQZ9sPticTuA06UltmRmBgHq9mJlkkunH35JK88lFepy99/+zHMrj1wuSOxJ9uFqho3oqMiYLM40C4jAsMukFJGy31Bvf21tKQQU//7OHp0TMWBg1Zs212IhPh4WK0mxEVUYdiZlyO1pZTsTi7KMywWLvgWhTlLER0Vh6xcA/buL0SL9BRYzS5kJBtx7uVSnpq6zuT54uOnkJbgQmllGHZmVcIWFg6bzYqosGqc0KMzeg8JLa08n6sTBL+m8/2hNBILfngbOzcvRn5xNHIK8hEd64TH1RIutxNhpnJMfuFLmA4fWiLP6pQD1+jRY/DFl1MRGWvCKZelYfv6QuxaVYm42Djk5krZ/QIp4bWXXY6spQvRxmBH64R07CkoQLbVgndn/4AeAwf73etPEOy457bzAEM4DMZ4tGpdiLwCLuW0wp7dezHiypEYea2UwlX2bihnncz+l56eATfcGHReCjr0jseqPw5gx7JytGvbAZs2ZQZADiIR0Fk9e+C0OCPSinIRZYrEJpcdaYOH4JG5f/q9q/K45/WrF+KNV59GVY0ZRqMDt9+cjrc/KYfLXgWHw4kPP52JpKRkcb/y8Cu5wmnTpmP02FvRulskTrywJaqqHFg8dy8OZjmwdMkyL0GQtlvxoBnpYC2WLz76CDOfeAgnG8uQYbCgxOnEZqsNIydNxtDRUsZDFjVBWLf6d7z+0v8hLqEVqmscuO7aeMz4qgY1NQ7k5+bik8+/QkKiT2bWofSizJgxEzfdfBNiU6wYenmGGDAXzcpGVbEbc+fOESlWA+nG7OnT8emkB9DXVYQMgxllDic2Wsy4esL/4ezxkmFhUROEzLV/4uXnH5Zkrnbj5psT8MXUUjgcBuTm5uCzqd8gNlY6ZpkDBomtUp+ZN+CGG29CdIIZQ0dkwG1w46+vDqD8kBuffPwxrr56pPfZSmPID3/+7nu8dc/t6O8uRguXBxVON9abzbjmgUk4924pnz2LmiBs3bQUzzxxD+KTWoHnR40aFYOvZpfB5bLgwP79mDl7nndPvRbhZaKkq6+5FuExRgy7siVMYcBfXx9ASa4Tr736qkhtrHy20nPz608/4fU7x6KfuwTpDieqnR6sM5tw1f0P44J7H/HepyYIu3euw6QHRiMltTUqqgwYOTIS384thccTib1ZezF77q9eL4CWzL/88iuGX3qpIDTDrsqANdKIv789gKL9Dkx+cjImTJDSoMt4+cn88894edwYDPSUIq2mBg6nBxttVlx05/0Y/qDvjBjeqyYI944dCjfiYDQnolXrYnhgQ35BAvbs2YvTTj8ddxzWLXmrpfK5/CwyKhoeeNDn9ER0G5iEtYuzsfnvUqSlpGHnzh1eXVIe8CS/x6ldu2CgqRJph7KRYI3FZmcVTBkt8OKKnd53lfqh77jn6Z8+jsx1K2GwpKPaXoB27cOwZ08cSktKYEI13v3YNynxqwTA9E+fQua65YApFfkH9yA1zTwKVr0AACAASURBVILqmlYoLSlFXGwYXnj1v3VuRy4pzsezj45EWEQKyqsi0LVHOTZvpgcvGgV5ubj73gnoP8iXk0P9/N9+/gS//DgD5rB05BUU4sKL4rF4sQWVlTUweBx454OZ6ltq/f3S5OtRUlwOBxIQFp4NnglnsbTCwYMFGDK4P8aO9+lovZWpLjjuCQIVjkluWJiMgvnemRGPebzllJX8jkl+mLmL+dWZjldObcvkOHR5DRkyJCj3jJIgTP30Vfz30xno3DYKpaW5GDowCr/+AyTFxyHnoAuzv/ulznWc0beOxm9L5qL/GamIjIpAaUUZDu2rwbZllcg5kFNnmz16713YP2c6hpirYSqpApKjsLEKuO+reWjdf4jfvWoPwo2jLoLLXgOXvQRtUquxN9eB1i3TsHGHHTfdeidGjPQdCqUWggShRUYGzrqmA8KjrDDBDKPFhbz9pTiwzoKNG30EQd3Ri4oKcd05w9ApPwut3ZVwVnvgapUEV1wGHv1tlfdRag/Cxg3LMGbMWJx1UkssWroFZ/X3YN5yF04c0BVb9jjx6RezEBcveRC0ytSp0/DKBxNx8rldYK80wmm3wxZtwC+zMvHt1N/R6wTJg6BV5n49HV8+8gBGtE3C9g2ZSGybjK2HnLh+8gvoe9Ut3lvUBCFz3RLcffdd6N4+Bhu27MOdV0ZhyrcV6NQ2HXvzPPhy+rd1yjx9+gz833N345QL2qOqwgm3y43oeCvmf7UNn7w9w48gqOX++fs5eGf8GFyYHIby/dmwxUdgh92MqyY9jpNu8ZEaNUHYlLkMd44fj27tYrF2UxYmXh+Dd78uR/u26cjK9mD6V98huo519FkzZ2Hik+Mw9OIOqKxwwO1wIzrBhr++34mnJ73lRxDUMi9c8AteHXMjzo41oiYnD+boMOzxWHHFhEk4Zaz/gMf1/Lg4iahs37IGY8eORrd2cVi5IQsTrovGf3+sQPvWadi214m5PyxAWFh4wPb99ts5uGvCLTjtik6oKKXxNSAqzoql8/fg7luewO23+wiCupI/fvsVr91+C4aFu+DMy4cxzIK9pjBcfM+DOONOH6lRE4Ss3ZtxzdVXoXfXVGzavh9jhodj2i/l6NAmHZk7qvHz/EV1rqOTINx820iceVVnlJZUwWqyICzahJW/78UNl9+PBx/04VVL5t/nC1JziqkKnvwCuI0G5EVG4/RbxuHCh57yu1xNEO667RIcPMjnlSE5uhyV1W6ERyZi534PLhp+DW4d6/OaqJ9LDGLiYvCfS9sgPiUSbrsRBosT+fvLsGO5HTu2+wiCVmNd+p/BaHtgJ9q6K+Aoc8PSKRU55W48v36/3+VKgvDxlKcx+5ufkRbP5YkSnNQnCj/9bUdEeCyM1kR8Pl3K8krZeB9d9XJ5583J+OnHX5Ac60RFRSF6dgzDuu0m2KxRiE5oi/c//sJLELTi0kqKD+LG6y5GdGQY9mfn4bYrovDlD0VISUpC9kEDnnj6RQwafLKf7Mr4iQXzpuLpZ15F2/QwZB3Iw+Rx6Xjty2LERMWi0hmLWd9Iyeo4HnFJSSvvzm2jr0JBbjaspkp0a+vA3lw7HK5oFJebccZZw3HXfdLZPqGU454g0LjRpcnUr8xlzZS5PNSGKS6ZhpYZ/JgmlXnimRubKYDl0/7kTHXMw890l8FkdFMShNlffYaXX34dFw5tgb9W7IC7phTde7TDjn0OdO85AM+9+BZMJunYU60lhrvuvQPFkcvQJq0jIqyxgMGNbVmZyNpUgd+/2eDXbmq324tPPIhtX32O87ulYW3mRnQ7qSf+XLANk39djJSuffzu9ScITkx+4gEs/usv9OgYjdXrdiEs3IqBfdpgc5YR99z3IIYNk2ancsIVpfKRIPQ/pTP6DmuBPj37IcISj8KKbGQXbcO6n11YtXSt99lqglBSXIRRF5+K3tUHMaRPKgora1BU7EJFRRQeXrjG7z4/D8K6lXjx+WdQVZqLxHgjVq3ZgWGndkPm1hL0GzwUD096EjExkrueM0x6PPyXGKZh7soXEReZjJbJ7WC1hWHX3kzkFOTimTtn4oSeviUGtaGYPetzTH1yAk6PN8CYbIXVbMXapQcw6umXMfiGcV6Z1QRh/bqVeGryY7ChFEZUI3PTTgwe2Bn5hW5ktOuNZ555xTvYysG4yhkXCcK3y59DlC0OPbv0BjwmrNu4CqU1hzBu+BveU+Ho9eCyiNK4zf95Lt69fzSu6JaEwupipLVMxfJFWbj60afR71pfWuxaHoTMNXjumSfgqT4oXKnr1m9D/36dUVZpQEJ6N7z08tvedVq66/lsi0VyhbPMmDELM/6YjJioOPTp0Q9GgwXrNq1CUXk+Rv7nMYy8yudBULvr//pzPl4eNwqXdoyD3VCFpLRkLFu0GyMefBwDbvC5c2t5ELZk4vnnnkRF0X7ERHqwZu029OrVDi63FVGJXfD6m+97B1veS8+HcomBBOGDOQ8jPj4OA/oMEjJv2roWh8pzcFaPu3Db2LHe91MPBP/89TteuONaXNgmGrZoN2IT4vH3wt24+M4JOPV2n/FVE4Q9u7fjuWcfx8Hs3UiMA1av2YZu3drAFhYBc1QHvPX2R954DXq0pKVJ37LIvHm/4NUv7kJCQhwG9R8Co8GErTszUVCajSGtbsQD9/sIQi2Z/16IF8Zfj/NbhCEmyYSYhHj89fsODLtuLM598Gk/u+FPENx4aMJY/LN4OQb1SsTKtTthsxoxeEAHrMisxp133YMLL5YOKaK8xFoZC0EM2nRJwTmjOqBVUhdEW5NRUp2H3Qe2YMMfFVj5d6a3z2rFeV174cnIyN6OU/qmoaiyEjUOKw7sLMeTa/b6yawkCF9+/h7en/IRzhiSiqWrtqO6shQnDu6K1RvLceIpp+GJp1722jn2X2X2xi8/fx8ffvABThuUikXLdqCqsgynDOmELbsdGHbm+bj/gUe9AdhasQO0dffdOwbZWTvRpV0kVq3egvjEBHTskI6dOTY8++wL6NHT304rY7bm/zIXb7/9FlonA3sP5KHk4AEMHNQd+3Ld6NB1CJ557lUhO/s+dUOLIDz/7CNYuGA+TuqbgPl/ZMJkMeHkQR2wcZcH1113E0aMvD4UbiDuOe4Jgvxm8hGZTKHK1L50GfJcBOYBZ+Yp/sjHbpIgMF0l3bMkDMx7z7TIoRKEb2dPw9+LfsemTRuRnmRBeUUVYLLBaElAn769MOHBJ711s4Ow4yjXqrjEsKdsCfr074D0pHbYm7sTFrMJsz9aiV1bpVz7cuE6s3IQmPTwOGTNmIZ29nL0v2gg/vlhGUpKgUfm/402g0+skyA8M3ki7NXV2LR1OwyuMnFtTEIGOnXqiKH/OQunDpXXtxlE6e/6JkFISUnDtXecgZg0JzJS2+JgSR6WzN+KQ7uNAotApaSkCLdfdxFi/1mFaGs14tITkbe/GAktOuPxtdIhVCxqD8L6tSvx9azP4HJ5sGLVGqQmRaKw1IkThwyA2WLBHeMe9EaIaxGEqVOnY/w9YzHytqFIbxOJkuIyFOW5MePdRaolBrc4PU2J848/fI15r72EmJWrEd81BXm7c1FeA1z99CsYeuc9XplrEYS1KzFzxn9RXlaJDZkbkJ4Sjez8MpFKmXn+x935IKKjpah2LYLAJYZ7J96Om+4+DwYLd0g4EWGNx9vPfIPpn3/t9SBwkKaBUs6Sf1vwIz57dAIytm1HmwHtsGfTbhRXuHHlI0/j9Ad8M9taBGHDGkz78iNUVVZjzbp1aJkajbxDFejTtz8SExNw590P10kQZs6chTsfGIvR910Ap6EcLocb4dZYfPjKD3jthff8PAjqgWvx3wvx3oTxaLF1G9K7pyF3Tw5KKoArJj6BMx+iMZaKFkH47L/vwl7jwIpVq5GRGo1DxVXoeUJvcYDOfQ885kcQPB63H6mhvbj1thsx9sGLUOE4CIslDFZjBD5/ex4m3f+MnwdBLfOSf/7EW/ffgYyt25DQLhZFeUUoKQeG3/8Izvs/34FgtZYYdm3Hh1NeE16hFavXICUhDMVl1eja7QSkpqbg/gm+A5YkgsC4CR8Rowfh6lEjcMdDl6CkOhtxsYlw2Q2YOuU3jLtlop8HoZbMS/7EWw+OR4uNWxGVbkN5cQXKKgw47/b7MPw536FrxFpNEB6ZOA4mowlbd+yCq7oILg8QHp2EXif0QJ++g3H+BZeKNgpEECIio3DOiN7o2CsRKQktcLA4FxuX5WHj0nzs2uXzIGgRhNHXXADD/IVIsjgQlRqF/AOlMBpi8GqedPiWXPwJwgeg7di7dx+c9mIRLewyhKFN247IyGiJCRP9l1SU9Uyf+jFWr1wmvM5wlsJiMaDKYUWbdp3QuXNX3HYH4zwC79AiQXj+2Uk4dKgYBfnZgLsaZrMJlvBEkT778iuuRbfuvQLayl/nfYf5v/6InOwc1FQdRI3dAbMlDKnpbdG1azfcfa8UP1FXee3lydi9axeys/fB4K6AzWpGjTsCnTp3wcCBJ+HSy6+ur4qA3zcLgsCDYDj4MwL2k08+8XoQlFHcnE3KP0oPAjstPQhcngiVIHw3ZwbWr18Js8mKhQsXwxZmQffuXREfHysG1gkTSRAkD4JWIUGg/Kde2hbnXdUX+3bn4LMXVsLiiaoVg6C+f8G8b/DVw/8H6+6dsKZHoTq/GhWOGjw2fxHa10MQXn3pMbg8HuTnHsSGjdtFzMQZp58Ms8mMk045DUOH+s4sVz9XjkGg0TprZCecfFEbzPlwI9b9mYsOHdr7xSBwlqlcz2fnnXTPrdjz9Y8wuMoRl5qGsoJipLZrizdX+DwmaoKQuWENvvtuBgxuA/5avBKx8QnIy83GmWfyND4Dxt9JgiB5ELQKYxBEkCI8GHFvN7icBsx+Y6Ng3cogRa17ObN97PYxiNiXgyHDz8DSXxfD5XHitsefxfBxvpltrSWGDWswZ840mE0WLFu2BuERkXDYq9Gvfy8RjT3+rolegqD1XBKEG2+8CRHRFtz82ECYTMBbExfD4zTiu+/8YxDU92/ZuBb3jLwCCVnZyOjdDns37YXb6MGoSY/h4nul43ZZai0xbFyHb2Z/IfR5xcq1CA+PQnV1BfoP6A0DDH4EQUtmxiBcf/2NCI+izAMQHmnB2xMXo6bCjU8+8Y9BUN+/N2sH7rj8YkRtz0Jyp3Rk78yB0WIQMQiXPugzhmqCsH3bJsyc8QkslHnVOmFEa2qqMGhgH7Ed4X4FQdCSWcQgXH0tLGFG3Pr4QLEk8u7DS1Be6MBrr73iF4Ogvj8nOwu3X3YxbFt2IrZlHPL3HoLZZsJV90zAiEce915ea4lhz0588dl7gqisWbsRHo8R1TVVGDK4n5D5gQlP1Hnmg4hBGH4pjCZgzOTBiEqw4aPHl6EorwZPPfWkXwyCWubc7CyMG3k5LBu2wpYUhoJ9hYiICsMlt4/HqKde8LtcTRAmP34vwiIiUHSwBOszt4n+dNKJ/QR5OaFXP1xw4eUB+6CIQYiMFsGgJ57fCudc2xnzpm3D0h/3IT091S8GQauS5x+7D8umfAqrqxItOrZF9s5sWMMs+GL/Ib/LlQRhxrSPsWvXVhhhwqK/lyM8IgydOrYVBN1oNOHBhyQSR9JYU2P3C6r8etan2LZtE+Ax4ocfFyAyKhL9+vZEfEIcYmPicPs4emkkgqC1tZKToddfmQxbWBhysvOx70CuuHrAgF4icP3iS65E9x6+Ux1Zj8Nh95LXBfO/x9Ilf8JkMGPhn0uQlJSI5JQEpKelignM3YdjXGh3iL9WevZ33nwOpWXFqKyoxpJla0QQ68knDRSenU6dJZISajnuCQINBbfbMVc5i5Ig8G8eRUvwWJjTmseLcjmC55WzkFTwaNIjWWL4+advsW7dcqxduwUJSS0QHRODXbu2oU+vrmK71cMP+QhCIA/Cl19OFVueup8YjwM7KlBaYBcKrA5SpCtJOUtctuR3vPrYE8jbtQNXjR+ND194HZU1Dsz8ZSF6D6orSNGJt958FkUlxVi3fifSW7YSjH/f/iwMGdQHw4aejmGHCUJdQYqyYkXGm1FRxPMWDOJkNmWQonqbo9PhwJ+//4B1fy3Bzv27EJWYgP079yApOQNvfPhfr66qCcKmTesw57tZ2Lp1F/bnFsIaFo6q6ir069sdMZERuPfOCaLTsnDGJW3ZMnnrkwkCPzCauFXSA8/hAzGVBEHLUBzYtxsrly3GvK++RqnZjaL8fLRu1RFXjrwOp599rvcZaoKwedN6zJk7A1u37YbDbUFsfJw4QbBFi0QkxsXinrseRIzCg6BeFhFBijfdLGS1RZiELbJXSkIrCYLkQajxM24H87Ix+6up2LZiJaJap2HPlm0wwIorrr4OF17mi1xWE4StWzPxzTfTsHNnFiprjIhLjBdHCicnRSM1OQn33+PzIMjnFCiXRUSQ4g03SdH14UZhkGoOy6wmCJRZ6YIuOpSPr2d+ic1LliK8RRJy9u4DPGZcctlVuORK/+BGZQzCzp1bMWvWZ8jKOoCScifiExPB3TLRUVa0bpmOhyaoPQhcFvEFocoEQewkshlgshgEoWFREwS1zMVFBfh6xhfYvmIVPPERKMo/CLfTgHMvHI4R1/rct2qCsG/fbkz98kPsP5CL/EOVSEpJQVFxMSxmNzq2b4OHH/QRBK2lSZkgUEbKa7YZUF3uEiRu8mR/gqAevCjz3NkzhG5UhxlRUVwqgnbPOOsCXD/at5zCutUE4YXnJ8EDAxYvWY+WbdrC7XFj794snDSkL/r17o+LLrxM4Mb35eRAuSwiEwSpw3gQGWdBRbFkN+g1UQYpaq3pL/5zHpbM/w3bd29FSus22Lo+E5ERcfjvV/6nxfrtYpj9pRjkF/29Cl27nyAG3127d6JXz45iUjjpMEHQ2uY4d850ZGauxeJ/1qBbzz4wW8zYvXsXunZpg5SkZIwfxx0fEkHQ2uZYWlqMd95+AWVlFdiz75DY+VVZVYnCQ7no3KkdLht+FXr08PcgKGX/849f8M8/f2D9hq1ISWsjCMqu3buQmhyL1q1b4v7DBKGubY4ffvAasrL2YNXabejdpy8cTid27dqOfn26o2uXHhhxhXTKcCjluCcI6pdSEwTl988995xYUlCXI41B+GfJn9i0dRNyCg6h2uGCRwxMBrRITYHJ48GtN4wWLjlp4Kq9zZHrzPLpXGLAEnuggbDwcDzztH/AkHqb4z+Lfkdebg6W/r0IlU4XWrZqgaSkdFx0yWVISUn1e1XlvRwE165fDbvTgapqu/Ak8MEmkxE2qxWt0jPQskVLb0ensWdnIiHjO7DzKk8UU5IAehXOPvsscCskl3bU+5nJkDdlboDH6cTe/Vw7NCK9ZTqiomLRrVsPr8xKgsDOW1FZgT1ZuxEeESEMFCXm7CUvJxcmowGdO3QWMnKJSbnNkQadMtA9n5+f761fSbZatEgXa4/0jHB7qXKbI9+trLQEW7dugdvpRElpKTp26ii2CyUkJArCxms4SHKApzGWE/gUFh7Ezt07YHe6hHuQusESZrMKmfudIM28WJTbHGWZi4qK/ZZrKiq4T1sKouIJgzwDnoN3YmJirW2OBfl5OFiQj5z9+1BSUS7IcFJyMtLTWyI1Nc2Lg5ogMIh0x65tcDhdqFbIbLNZYDYa0b9Xf+/gyrak6vAdZCLOXSry8ch8SFkZnx0lntexYye0adNanPRJ2dVG9dDBAuTl5SDvwAGUlJUJg5icmoq0tAykpaV7ZVZ7EDiIbduxBQ6XG9U1di/OVqsFFpMRA/vQ+yL1QeU2x0Ay8zhoOZdHmzZtxLHFPCgnIyNDBIQp16mFzLk5IiqdhJvfpaanIzW1BdLTfaeIqglCWXkptmzdBCf331crZLZYxBLjoL4DvWvKUr+TtjlSNtZFfeFR1HJR6gZPReTx7Aza5jKrtszZOJRfgENFhYJYprZIR2pKOlpkSP1eLkqCwH60avUy0ExVVtfA5ZYSRtDehdlsSE1MRvu27b22TrnNkW3N/iEf6cyLqqq4lCdtP+Uy4amnnCJsC/sS20m5bZfXbFi7Wtigffuy4HK6kdG6JcLDI3FCL/91fOUgu3rNchzIzUZhcSlqHE7JPpuMIojcbDDionOl7dwsalu1Zt0K7M8+cPhe2nbAZDYhITYG0RGROOtwnJbWvdL7VeH3P36Bw+1GQWEx3KzAYEBEhA3REeEY0HsgWrbI8MNbKcPW7ZuxfcdWlFdWo7SiUtJrgwEJ3I4eHoHzzzxPU25lhX/+9RuKS0txsKgYLjfEO9isFsTGRCMjNR2D+g3ye34wfzQ7ghDMyx3JtWx4DibsrDQg8lG9NI5JSUmi8xYVFQlPBY03B8pWrVr5PTI7O1sMtkx4I89KeC09IvycuytatmwpjEDr1q1FvSy8VjawfC5/6Cbn+eE8/nf79u3eQXLLli3imFV2TJll8qQwGj/O3PgelF82JJSJHZD18fn0YiiPSuZ1+/fvF/fv2bPHewwtr6WMPOud93Ag5s8111wjjBnrIx68jt4e4kQ8WBcHLn7PummIiSt3oPCEM74rMabM3GnC/+XTzDiQ83cOkCQrPGOe76M85pZ4yUaUhpK/8+hbXsNn8PfFixfj5JNPBo/pVp7bzjZk+1FePoPrkPydODOG5bfffhPPZ7uwjjPPPFO8OwkCPRe8nvVzVw0NMPGWEyvl5OSAP8SWz1Hrxrp164SxSk9PF7tvKBdPeeN7sk7iwAGAR27zmtNOO01cT72hh4IDNrHYuXOnyEtBWU499VSx/MZr2H4M4uXzuUYvx7bweuoD24B1yASPv1Ne4kAcKTPPqVd6DnhMNXWH7UKM2B6UjYHC/J2kgbLzCG62+UUXSYZZlpk6ykGEOkgvFOVjrAb1jO9CnPkdM2vynehB4NKdTJDYb6hHfKbcnygz+wdlph6xDuW+fOoACRJlZr8ZOHCguObvv/9Gnz59hI6wT/J/DlxXXy2t1/L9+Vx5rz/1mbhRn/v27SvwpqeSde3atUu8D38vLS0RM1j2X2LL92K7sf0pP3HJysoS/YNtLr+bMoEQ256eUbY5B9uTTjpJ1LV69WqhEzxFlXpImdkeI0dKnhfKyj7Gz0iWqJdsf+oL7yMBYv8kftQD/s/vZYLAZxIL4sd3Y/tTT/hexJv3U5eIAa/j93LhZ2xH2jPizP5HDNnmxI36TvJFHeLn7Ousg4UYsO34TvyfeFHv2Ddp23gP8SXOtDnshyQIJNe8l+/Ga4kxMaDscl+hjNQZ6h0x5PfUXZI8uQ+x37HfUOeoK8RLloFtQaLL94qICMfBg4eEbMSIbcx3YJ+nHLSPlE/2IrMtqCvEg7ixXYgx+ymvo72gXPJJkJSPdfFv6pc85rAe6irxpx7z+ewntKW8Rso6yrwuEaI+4kxdpg2gXNQ32jXWw/7J+uWxpr4xUicIARAi4PzhoMeGW7FihVBWdjp5FkvF5d/s6GxYNoxwa3uYAdAojD0bU042w0aiEtGo8Xs2Lu9dvny56ET8jgrMzsiOxYansrPzUXHZ+OwcCxcuFJ2CBoeNzoFWJgjMEkblogHi82gIeC2/p3KxA0pucrtQUL6LkiCwTspFmWkcqNhyZj52FLluGhcaqnPPPVfUxc7G73g/jTVxY4fduHGj6Hh8JjsKDQN3pfA7/s7P5U7B5yxZskQoPrGnbLxuwYIF6Nevn+h4lJnGVLksQgyIEzsIfyeWlIlF7iRsQ3Yq1jtgQH8REMZ7+D3fl9hygOO9rJ/vQKMmG0J2bBo9ticJAmd6bHvKzusoMzsl/+b7Ehu2JduUmNDAacnMwZD6wOuIBd+RMhF7WXZ+z8FCdvfzO+Ir48X2peHnNdRTtjPfg4MgA6VoDEgQmAKY+FAXaPjY7nIUOq8n2aSM9NAQS8rG95X1WcaZz+U78R7+T10hTsSD7cPPWD8JgpxRk4aKBpX18TldunQR19NYkiDxc+L7xx9/iD5BPEgQGNtCGfl+1C8OIsSZ78jrOTDImT1lkkbjr5RZzlTJ58kElXJx8KBcvJYycwAaPny4aAP+8H2pM/KgzufxHThgs++zDvYDHuPLz4gbCQJd7nwmn8f6iQnfj+1JPWCfoH4Sf37OviPrNN+FfVaWle/XtWtX0d5sN8pMGSQPS7mwDRdeeKE32RkHA8pMufg/cWRdHKiIO++hflI32P+o5zJBYF0yttQjkim+BzFnX+TAyXdgHcSf7yvjzL7G/sP3YL+SyTJ1mgMwyQM/Y/3ElXrJulgv/+YP9ZS48xrKzDY//fTThU4MGDBAyMw6GHxOglBQcFBgxXdjXcSUfYMYUA5OFrgdnoWYsZ+wH+zYsVPIKE/8+D/7P/sun0t7wN+Jza+//irqph3s3bu3wJBtwu30lF32KhIH2lu2E+ugHOxD1GViSYLBfsx3GzRooJBBTjMv22X+TR0mXiR/xIK6QT1r27YNNm7cJHDkGCAS2bVpI/oE+x9/5DanTOwDbHtObNhurJP2VybFF1xwQZ1b8+VhUScIdRAEgqxO9KK8nMpCpaayUVmoBOolBq11K7lOeebNOuVBVrlMIH/P+tlZaMSocHLhZ1R8eUatvLeuVNGUm4aKjJTKz3eQlxjqY5Ra3ytdZvLMTnbJUyk5yLOzyIXPZ2eigVFucwzm2VqZFBt6v2SE/DMpNvRedQyCsg2VdXB2zMJ3JM5sN61Mig19LjFWZlKU9YVEUDayHEjU+snBgIMO742NleM3XJoBuzTSNGAyEeRgyvcTsQaK6PqGyszrlPovrznTiFJmDmBaMlNfOBAoYxC0kuqwfhpj1kdjyZkhZ0j00krGNfhc/axT2Xfk32mQaXjZrkqZqQ+cfbI/cVAhQZBzN2ilIJdnzBxAiC/7AtuIdaszKQaDs1JmGXN5Ns6BSWk3iKXseeKApFxiUMdfyDLQZhFfvqfsqgJSWAAAIABJREFU5SEpVGdSDEZm5ZZuWX7Wx7YjprRLypkuB0fiRDsrLzHQJtK20M5QNuoNZeWP0pMk64/cX2Vd1LLvsgysi/1L9nSo+zrbjnrHcUL5HTGkTvIZ8lZ74kKvAW05P5ODDeXnq3GnzWCdJDqy51X25lGvSGZp9+VlNVnXtMYbykJ7Ky8JB9NGOkGohyAEA6Z8rXqdK5g6juRedfxCMM89FteqgxSbUoZQcVYThOYgszoGIViZQ8WKzwn1XnUMQnOQWR2D0BxkpozqsxiCkTvU9j0S3eC9oZxnEMx76ddKCBxzgkAFkwOJjqdGCcSkGyZj8Kd1Nazeuq9S74BojDobUkeg2V1993IQYBCcMh9Bffc03vehtRHlFbkKFB6RxpOpvppCk5nBYNKapHS+QnMo9MTR63FsZA4NZwYGS8tWzQdn6kJFRZnYmtj0JTScKafDwaXJ4DxE0ljjn0skmHduLFKi3ObY0Oez/9KjobXNsaF1aF1H72Jd3sFjThCUQkuBMNnCAGdkMOpdiow+FqUuF31d8mjtYghG/iPxAqjvtddUwu1yeU8mlOUwW8P98hbIbmRlngiX0wF7dbmG6AbYImL8MnqpD2uSdhTQVchnK4vBG28gdXKH3xKDiNyuqRT7lf3uMhhgDYvy6xxaSwxVFSXw7mtUPTk8Stomy6K1xEBZ7XZux/I/dZPBiMoOpPYg8F3tNRXwuP1lpp/bauPpa75tmFpLDDVVFXC7pHgJdZFwlu5XLzHIn9E7oImX1WdM1B6EQDLT+FhskaoTN327GGT5mKnOU6ttpW/DIuP82knt8hTP1pRZMlRK16tyiUHolL1KOu3TXzlgsYb75SHROqyJfcHlkLZDq4s1nGvhvi2R6r4fSJ8FXharFy+1B0HCubI2VgbjYZl9uqHcxSDLF1hmA8IiY/1w1pI5EM5cClFm5PPfxeA+rM/+/YCnZVptkX7P1DqsKbA+GxEe5X8MtjprrLRzg/qmejYPyVLlAFAO1nShk7DzfpVqiLFEDgCV21F9cmdDbBXrDTQR4nOlmKe6bYcsG5eSlHlzWC8/Uym2WE6RlxWIC+NxtAiC3A4Nfb5mJwjw4XFDELZs2Ya33v0Yu7Okw4tSUxJw46gr8Z+h/nms+Z08u5ej8eX/6zrXOhhQeG2oBEFrsA3m2UfiuVAShMryInhK18FocNY6PtXuiUJkSl+YDzNwZfAcZeU7FG3+EbZS/zTQ8ntUxg9GcpfTA7JZYse20EoLKqc4pqIrCQJlKM3bAKvbt01Rfh63PLrCOojc6L5OxlMafcdHV5cXwpH5EQwedUfjth8zTN1uQESstC1UbSj4vjRWWp4MeWCWtzWqCULJoT2w1Ow8vCnTv6XtxmTEpDJhirT1UQ7Yk4kYB7vStZ/AbD+oqSLOVhcirqW0h1otM//mAKreJiZfy/ehzNK2TLtfDEJpwVaYHftryUycnZYMxCT7YhnUMrPNKtd9AJOjpLbMBhM8HUYgOlnaBseiXIeXgwEZ/KhVZJn5nXqJoaIkB6jYDKPYgKfC2RCPmLR+fjjzWbI94O9FG2bAWrFb87mO1KGIb3+K9zv1QMC4AuKsZZzluBDqupoglBfthbFqBwxqmZnrwpCM2DS2raQbUmCky0vcmWyrfNMsWKr8zyAQFxuMsLc4FwmtfVv/1LNS6ga352rLXOU3+VIShNKC7TA7smrnDjQA1YZ0xKV299aplrmqvBj2LdNhcvhnPRQ6abTA0eZSJKR11NQNfkjvS1gYvQL+mQslUlnjp+tKgsD1en4vHeTmG6Q52ZQDjgMlyWP7kTDVPnqb3gZ7vZ7CYGyHlvLRVlJ31GMXTQafz8/VJ0gq65GC2n0HV6m/oy4H6m+anUH14XFBELKy9uKeB56A0w20ac0tGswaZcHevfvxfw+Px+BBA4XYjLKlMjAwj1HQVChGbk6ZMkVElTKKu7GKmiDwbwbpMBqUgPN3Ng7laEih7GS6jN6l8WMkLINq6vOSsIEZDMMoWkbVMiiLGDAiV61USoJQlLcNEW5tgygMUvRAhEdpH3wkdkxs+C/Mdv/sZfJ7OqzJiO59k/f56mCsusgVOxQHWQb2KAkCB0t7/h+kAppw1iAekSn9A2bDrCzcB/fWLwI2hb3lBUho5Z/RTL6Y8hDLuoyIbGzVBKE8dwksnlLN5zrdFliSTwnownM77ahY9QYMbnouahdHfB/Edz1f8zvOOKQdCNIec3XhLJpGj++kJggVuYth9mh5hwCnIQphyUMCYsHBxLjlw4AyO9NPQ1xb/xTgsmzSLMn//Ayl3PIuEDkfh9KDUJa3DlZ3rua7uj0mGBNPCYgF26x64+cw1RRo4xzZHvG9fEmalBfJS6DKgDfl93LeELp/lQRBkKG8NbB5tJ/pgRnm5P8EjCQvK86DZ9sMGF0V2u0ffwJiu/r296svqsuNTX2QvB+S10QmCGyfqvxlsCCAbrhNCEtj9L521tiKogPwbPksYB+sST0die39D5jz6YZL4BdoMFS/jzwoEufi4iKUlJR6d5exTgb2yVsQqU9sP9ZP26QcMNWp7ZXC83piIp9DonUt5eDMviG2w2dvfAO61pHXShnkrbG8jjZIPekK9LlcR13vF7ChFF8cFwThmedfw+9/LhdnWA8beiKKi0vF4LtqzQZkpCfhs4/fFCKzo/OwJjYGf+dgy+1rHGgYqcs91Y1V1IPcjBkzcNVVV4lMjoMGDRLKxm2M1113nV+mOK0lBsq6atUqEXVKYsH9zHfccYfYRqRMRkTZ1csE3ELF5/EsCqaL5imV3NY0bdo0TJrkn6dbee+h3G2I8gQmCK7oAYiIkvYhq70eR04Q/M+TULaJ0i2pJAjsiPa8hTAaas8QRdsjAZEp/bwdUb3EEAxBUC8x1NfJ6SYnoaFRrUUQcpbAggAEwWOBJclHENRLDMEQBPUSA/GSIsi1TzCU8OFgzG2Z/h6E8pzFAQcBByIRkXqid2mD9fDZsls2WIKgXGLgYMoZnjItt1I3eK289VbtQSjLXwerKzBBMCSc4o1aVy8xBEsQlH2f7y6d2xEYZ+pTsATBDTMsyUO9WKiXGIIlCGp7FWgHhWxHOdBoEYSK3H9gM1ZpmlGnx4yw1KHe5Rj1EkOwBEE5OLKuugiC+n2UBKGw8JDoB/KWVWLBiaP8fjwbgURaIghMROZbuq5rSVciCL5zdbR2CARjO7QIQl3Pl72E9AQGyqRYH0HQkjmYMfKYEwQ2wF33PYJtO/Zh2KlDkJOXL1KJJiUlIC+vADm5uZg1dYq3sbmHmMrNrS7c78q9xPQosBNzP2xjlUCz4O+++04YAyYsIikhQVEGrNFNyD32WkyYW1NYuHeVHo8ffvhBDPb+RpL7+Wu7YN944w2MGTNGbBsjM2bSn0svlQ5NkUuoBIGKyB+ZnQZLENSY18VaG4sgKGfIfH6wBEF5mmMwnfxICII0QMI7awyWICgDrJqKIFBm6oZyMAnGg6BMp9t0BIGnOfoOPgqWIChdtk1FENSnOQZLENRpi5uKIMh5NMTkJkgPgjKoujEIAmVg7gMuK3C7q1xkgqA1NgRDELTuD8Z2BPt8JUEINK79zxMEvviEh57A1h37MH7s9SgrrxDLDDt37UXBwUP46+8lmDn1fYEP86nTJc+BjNnamABiwoQJIjsV93jeeOONjcUPasUg0LX/008/CS/C77//LggCiQmTXASaXSiF+f7770WSE3o5eD8TgGgN8uoXYMfn+RL33XefGFjk7Ghz584FD7FqDIKgfmawBEG9l7gpCIJa5mAIgvreYDr5kRAE9XODIQjqe5uKIKifG6wHQXl/UxGE2u17ZEsMTeFBUMscLEHQ6sOBotOpw43hQVA/M1iCoLy/MQgCcztwKZb2S04cJBFyyYMgxzIol+WCIQhapCsY2yG/rzLGpaEeBLaZ1mFN/wqC8O2c7zHl41no3bMrBgzojRYtUpG5cSuWLluDjm3T8egj0rnnHJCZoY2zGSbGoDfh5ptvFkkj6F4aNWrUUSMIJB89evQQcQA8cnrmzJlCCR966CG/9SetIEXGHowdO1YsFZxxxhkiCQhlZrKUp5/2P5tdfegKlzS4nkZPBQ+c4hIDE5XQe8DsYo1BENRBisEShNoxCEd/iYEGRRmkGAxBkAL+mP1R2iYVTCc/EoJQK0gxiBgEtcxNRRDk7I1yvEuwBEGpG01FENQyB+tBUBrwpvIgqAP+giUI6j7YFB4EtQs+WIKglPFICUJeXr5ISibvWOB4QPmkdOHNf4kh1BiEZr/EQANNRXnx5bew6J/ViImOQZ8+3fHPkpVo37YFXnz2//xc+OzsHFiZ7Y0eBAafsEMzq6Aya9WRMoVQdzFIis51K9+57sHIUl/QSl11+QUpFuxChHO75uUeGGGIGwxbeIz4Xt4eJC8xcPCsWP8ZzPYAQV1h6Yg+YVTAAKu6lFIy3m6x9uoXpOh2oTrvL5igvRWt2pCCmNQ+im1wviA8vkNl0X64t3weEB5nm+GIa9Hd+77KTIrKA4m0KmCwHNcttWIQSnNXwebR3oVgd4chPPVkL05cFpFmNFJwWL0ehIT+iO9yjrhWGqh4iJCUkVJrq6ZSdmXAX60YhNylsHg0diFwKxdiEZk22A9naYlB0ueyslJg0wcwuLW3ZjpbnIm4Nr7DYZT9iG2vdEmrsVaus6pjEMoPbobFwYO/ahcXrCLWQ14GkWIQfHETYufFhs9gqqm9Q4a1OaM6IO6Eq7wVK13ffHfKFSi3gXI2rt7FUJq3DrYAgZUu2BCeOhTcPihkOHxImnzyZUXpITi3ToXJqR0w6Eroi9gu0kE+LGp7VdeefaVu8F45SJHyl+WvQVgd+hyZdjKMh4MUa8cg5MCz5dNa2/1kGWvSz0ZiW9+kRulpVBNgdSurd3cp348nRMbHJ/jFgvF+jg+0aZzUBfKm1GVv1URTS/doO1gC2Xul7dC6n4H2gXYZ1NfHWR+PPOcW3UA7+OqqX7MzqT485jEIsjxUkJ9+/gXLVqwW+9F79eiGq68e0eiJIRoCilaHa+h9x/I6JUHgDLO0YAeMnjKOLn5iuSwpiE9qUye2hdnb4CrRCHI0GGCK64yENN+WQ7adcjsVByR2YPXWIXlrI3O7s6jzIJQW5cJTnQN4/KP63aYIhMe0RVh44LwYTocdRVkrAUdZrSYwWCIQ22ZQnYlV2JGlrWr+WJHM0Gj7vA08x8J3mmN1ZRmqS/fA4FYFdhmtMIa3QHSs70AbtWCs+9C+THgqcmrLbLIiIr0PIqJ9+RvUF3FQkL0Syu8YnMgix7KoCQK3wNrL9sLg8SdjHmMYLBEtERmjvbtFfsah3cvhrq69lc1gtiEyvQ/Co6T21TaI5UJX1DjzWvkQHP6uJgjMCVBRvAdGl2rANJjhsaYgLtH/hEL1s4sObIKzVEp/rSwGoxnW5O6ISfCdJKm+hrosBZj6b7+TtzbKO5HUBKGmqhxVJdSNStVDzTDY0ut8Jm8oyFoLVObVhtFoRVjqCYiOkw530yok6VIeEn+ZeS31QxnnpNzmyBwX9tLd8LhVRN1khSm8FaJipMBmrUJdLNy7BqjW2P1ksiK65UCERQTuw+yDUlHLzJNmpfMF5KIkCCQPtH3q+7hVkKmSeSIrvQssbCPlTgD2DRJCZb4S+Rm0oXJ6cq175esk22GqlYeB/ZsTWDV5UMpAzLhTofY2R4PYQcHzU+p6Nr/jNlziI3uCffK7vOepBGy0er44bgiCLKd6Nhvqix3pfaF6ENQBf8HKoU46FMz9WutZaqUR3e/wvvz66ta6V+v+QO7M+p6tlWq5oc+knvA91O9S3zMpP6/h/eqtSQ15tnaqZQZ51kYzkGwNkVkLZy3daIjMaoIgSRqMzCSA0kxXLg3BmdeGKnOgVMsNeW4gG9IQrOoyxvU9W00QgsEqkN1oqMyh4kwZ1amWG/rMppJZMlf+pEHLQxKofeQBWWsXQzBtVJdntKGY8XnByC7LF2gXQzDy12fvtb4/5gRBXuMLRfijeU+oCYuktUS60LX3Ctcn85GkS1ZHMtf3LKVysR20Ehs1tI5QrpNSLTsaFOSprl8dgxDM8/muoaZcpbyUuyGBqWqZeB/JQaA90/W9Q6ipXvlc3qvc3lXfs+TvOYshXoG2JtZXT6j9iO1Lkl5fnhCt5yuXseqTT+v7UGU+klTLde1+asg7hCoz6w41eyvtHHUr1IO8QtVnyhxKuuK6yF9DMFZ7Shtyj9Y1odQTyj0NkY82X17WOi4Jgs8QufDHn4uwfOUGlFdUoEPbVjjn7NORkdGiIe/Z6Nc0fw+CB5VlhYDaVUikjDaRJMk3k5Wnvz6WzpSpjnIN9ybnnpYYP/emWnkl0qe1l1qqXx5c1R4Ep9MOe0UhHYG12tMSHi/S0/pIDa/xeRBonMuL8mBwae/hDo9vBdPhtX8tD4I08NdOWETPANe25fVttQdBrBNWHGRAgZ/MfFODJQphEVKcB4s8y1B6ECpKCuCx114W4fWWqGTYwn058tWzRGmNkks5/nBJnhVfx1d7EDjoU2aDKqU1J2kmawxsYT43MHElBkryWF6SD9g11saZfCcqFbYw38mdapn5t1ZaWimpE/fmS7EOag8CsasqJ86128hgjkB4pG9ZQ8uDwCx/rirqVu1iDE9EhCINsFpm3ySmtpuIcstJlNQeBA76VeWHNLN7GjV0Q03S2X/d1cWaMpsiEhEe6Utd3HCcpeyjypMulR4EJiwTMqsTlpHYWqNgC/Ppo5YHoaIkDx67RnInoRspsIX5tnCrZWabS0mcar8yXej+Kc99yYaEblRVBvSMKjNKatkq2nqtZ7IfKfOMBBqkG2o7lHZAaQNoKyUPZG39kmOO6iIIxKx2qmZpZZmYhTpZpUTH3IMgG4Mvp87ClzN/QEJ8nPAmiWAmiwnPPfWQOAtbLsxIKJ9pzmu4Q4ABigShoVkNG8ImQiUI8kDQUDe+Whb1GllDZJWv8TvuubIEKFmumZrW4zHCEzsA4ZGB17cPbvkNYUXLNB/v4Rpo3/GwWKUsflq7GAKleaVR4A8VV51quSR3HcKhTUqqPfGIThvgHajUHcZRXY6aNVJCLa1iTzsdCe18WdyUOLMu6pQcAa2+v7y8VBxmoxWkWHxwD8Ls22Aw1O7cDk84rEmDYD2Mk5og0BhXrH4bBqdqjfqwADWxvZHY/QKvOBysla5+BgzKKaDVMtcVpFh2cDusDiknh7rYPdGITBvih7MwFAoLWrryHRi1Ui1zYE/oh7gu5ypk9sWn8P25Xqpc11U+X3KjMlucqRZBKC/Jg7lynWZKawYpmuIHe4mJFhErXj8V5ooszXd2RrRGXO/rNGXmh5RZTltdCy+Rg18yxGqCUFG8D+aqTZrPdHlssKWe4s1KWEs33G6UbJgOS6W2zK7ItojtdU1AmevWjarDZ6JIXk7/VMs7YHPu1JTZ4ZGCbn2ZFKVlKlk3aqorUZ35mWaqZWEnEgYgocvZ3rrVtq6ugEESAKVNUXofpGBHTh5qMwvJ3tDLIWW6VCdKUterfHF1DhCtJQa2m3RAl3ZsBe0KgxCV/UcpO/spPYpaeXMoL+umXQq0xMBr5My0Wo32PxGk+M+SpXhs8hsioveSC89Cdk4eIiMi8M+yVWiZkYL3337R++6zZs0SYDPlMV0jDPBgwiQmK7r44ou1R4cQPg2VICgHwBAeG7K7j89SEoSSwv0Iq9kYUARHeE9ExWWI76lkVHSl6/vQpp9gK1kb8H5L33u8BlmdB6G+tToG9dDgqncxMAWw1RAoi5sV1uSTvTNMdSZFR1UJata+E1Bee9JJSOg0zPu+yl0M9BwwuVUgVxsJkHy2hNqDUJq3Fja3Nqlxe4xwxwxE5OGgvVqZFF0OVKxkqmXtHQH2qM5IOOEKIbM8S5KDy+ojNbxHdsPW2sWQtxIWt3YabZfHAmPCSd5ZsdYOj9IVb8Ho1PZ61ER3R2LP4d52UOqCFPVurzP7I2dR9CLU2sVQuEOceaFVPB4DaiJ6IzZOOmtD67CmkrWfwlQlnfOiLo6wlojve733Y3UmRdoY5jsJVORo/Fq7GAo2wubUOEtBzBWNQNzJCDu8K0WdSVFsNd40E+aq2oGVlMNlS0Fsv1s1ZeaHddkvaYus09vGMkGgTpXkZSLco40T6zUm/sc7MVDvYhAej8wpAXFyRrVDbM+R3sFSTQjqWiaRdgv40kMrB1kSODmYT+vhMhZ8P+Kq7Of12SrKKC/Nqbegy7pWn+2QznrwkRfl8ggJRF3LaPK78X1JctQTT8okneXgO2xMiUGoy85yHceFB+Gd9z7GN98tQHRUFPr364l9+3OQ0SINW7fvEt6BaZ++6e2ga9as8aYsljsCG5wg9enjO7wkoJY28ItQCcKRxiA01lpiMARBa8YVDEFQQ1pfp2sMgqCOQQiGIPB9lXkQmoog0OXMGZfvsKbgCAIJhuxmbSqCoM7dwLYOhiCo97o3BUEgztwloXStBkMQ1HkQmoIgqLfUBUsQ1GvyTUEQaOsotzz7DZYg1E6fXBOQpDcGQdAy/fXZKiVB0Lq/IbZDTRCU9TSUIAQatv4VBOH5F9/Awr9WYvxtN2Dt+k3o37cnNm3egfBwG+b9uhAfvfeCyHvANJo8f2Hq1KnC9dKxY0dv7nYmxujXr1+j5UIIlSA0kH8clctC9SBoCRMMQVB39Po6XWMQhFqzwCA8COp7G9LJG8ODoH6uOwgPgvrepiIIWroRDEFQ3t9UHgQtmYMhCMr7iXNTEAS1zMESBPX9TUEQak0MgvQgqO8/2h4EOWZHmRq/PlulJAhaAeQNsR1qgqD0RDSUINBLxQyQ6kDyfwVBmDP3R7z30QxcdvE56NGjM2Kio1FcUoZly1dj+co1mPnlewKYDRs2IDMzU8zAeMgR99P3799fuMo2b96MM888U5CGxiihEgQ1qw5WliM5fStUgqAVbBQMQVDOuPi+9XW6xiAI6h0BwXkQGNwnnSjZUDdhYxCEWmcxBEEQ2EbKnRdNRRBoAOVATVmXgyEIShdnUxEEae2Y56H4kpUFQxDUZzE0BUFQL00GSxDUruSmIAjSLgZ6taSMpMF6ENQDblMQBOUZLA2xVf4Eodq7LCP3BZ0gBDvCKa5ng8sJKuqqpri4BA89+jT27M1DcnICrh5xCb765kfkFxzE2FuuxMUX+h95yzMZhg8fjuXLlwviwCAOMjEe4ERPQ2OUY0cQmC1P++S4+t4rGILgDO+ByDgpucyREoRgZi9SUI+Ume5IYhA4CDDhi5zgJFiCQN2UI5TVWexqeSccDkFKqWu1YxACZ8tjDIInZiAiDscgHDlBoMxSYGjDCIJDuH+Di0EwwySOTpaMvjpQi58FQxCUg219AVVKMhJsDII9ojdiDscgcI2dSwzKwK/gCILP1d0wD4LUZ9UxCGUFm/6fvfcAl6s6z4XfKWdmTp9TVZCEQAVQQwgk04sLruDYpNz8TrkpN9d/bhLHifMnf3JvXOLEub7uJcHGNeCGjbF/Y4ztYGObZkAg1FBDDYGk0/s50//n3eusmbXXXnvv2XtG5xws7efxY3Fml2+1b73rK++HRN4cQ6DHINQKEPTNNSxAGOvbjVSxuhgEPc0xOECwb7gmH79ci3r8TpgYBJP+9DvM1OpioNw8XLgFrfulmHoFm7I9XNvUg24xCLWkkvL9CyIGgYIwG+EjH/8M9u0/bCV7pFJJ/NZtb8Atb6rQifptkPX8PSxAqKcMQd9ly2KYHgNGnkQUTL+zR/dy44qkr0CqyZ3xbmDfj5EaftIogsVsuPnttmAlNcDRzRwmT+tULDx1OLMYnkEjzLTFM6W0LYvBsYnPTGBmx6cRKZE9znlll9yMToXmVb1DRDdPW4GuzoXMDAdBh2rKYhgdPIpk9qAhur4EK4uhaysSSTPgYxbDxDOfcc0IyLRvQtc6e7VPVW4qDwItk/JR60voAGF8cD8asscMMd9AFq1o6t3mydUw9tS/IZozp9/lOq9AhxKprsorNluReWGSmcqYZlTOJR0gTI6dRnRiJ6KObJESrCyGziuRdOlnyjC68yuIuWQx5JovQMem33ZdbqR2Z5CiiSdEpGyasxgmho8jPrPfNfMi2VvJYtA/zjk5uuvraJg6apSr0Hw+2je9zVVmWj0Y/GbqZ5HhEi9nI6hZDKP9B5HMHzHOjVyJ9NBXl8s96x/PTE1gZs+XEcubabyzHZeh82J3fa6WVdfnjdzoyhkTmUqaI58jcDaNjwq8ROxRJY6H3/DWVfZKprqllM976Q5+TwIQdRzUoG5aUZgVYspioOx8ngdgxmAQBOjj6QW6RWCz0GthrwUDEGSgnKDNnKzK8hC20dU8Fzb6k+3goIUlw/FC0X5y6yktU5PDyEyPOVj+Uo1taGqppDiaghTzuQzGTx8yfDKCRPsSNCsUwCYmRcoiecrlSzi5CQzceBDYb0xnIx+CenEBtbT1lnkM+BsXD5GzmvY33P8ikHFuXMVIAh2LLyhzyLO9PK2qJmieOimzzKGX3+c4Moq5UgqbVMtZGzf/xFgfshl79kU0EkVjaxeSycriFNS35BSIlZtHzv3MeJ+Dk6CECFq6VyKhcAro/SytCHoONPukqanRlvFBRSgjva3nxvqQy87Y+pltbG7ttvFN6IGVfGB8ZAB5A0dGMRJHW/cKNCgbtUlmbl6yL6QA7BMqMhlYSCVKwKumRE6ODyIzY+dfiDJXvSlt45swBQqTEpv1OnTuB/Zzqn0pmlorYNm0EVAWeYqtyCy4JmR1QH6XAEjKbFnLxgdAmmj14jpoaum08U2YZJ4cH0Z21HmaL0WiaOk63zY39CBFsTlxDdp5I/S5QbnULABrDY71I5+zzw3KzLmRUOYzv8F1qAaDToz2IzfurHlRisTQtmi17V59bogNcdJBH855ST4AdROL2wRfAAAgAElEQVTVT8Zcu8ICZU835thIfaNnAskx4SZMvauPEZ+VFjsBJszWXcrN+WHWHc0OGmddxxMkZDJZyy2mXtRPsk6DV9VGjjHXt/59jos42NhZUHWl7pWSvyAAAn3S+sD6bYZn+neTkqjmm6aUwWqek/fUAhDCZkCYAEIQmfl8GN4HLiyv4j1eMsjFEIb9Uc9iCNJWKqF8vuDwRVbzDlNGQDXP8R7T6afaZ2tlrOS3w5KtsK5KImFOwfKSXxAqMU4k+OlHzwiotp/kfbWsfR4swpzYmConipiFY2B1ozuvpu1hraW1xlvVouv01Opq2inXURhdVeuzqnxh9GWYZ6rtEzcuFT6/IACCbMhT25/GY48/hcGhEay6cAV+7dY3upLXVNv4sPeFXTS1TqRaJoLuz7IKr2SmHMg0kWpBo8LwZ+ojboSjg6eM3UfrgVp0RZdZBNRljBYEomLp39aZFK1Tz/igwYLQYDHlSSZEtz7myVY/yVuTPAKku5YiGquc3HWZuakQyesonCfbxkaaL8WzploMLH6Uy2oWhGgUqaZ2jf3RCaRmJscwOWE2ybZ19JTdOKY2yxORBB5ysKgA2cfSQqK7GKznJimzbkGIz8os4g/kN0UfVtxUk2PDmJl2MinynraOXsSV4EC9n6VJ1mlB4Gk8ZbMg8OCQTlcsXVOTo8hl7Cx9Fitgigx/dqIa/btkBp0gs6jOZxUBWlo7kWysMPyZ1iBPmU5LjbCIydRTPQbB6uepEeQ06xL5XmjFU0/jpvFlH7Ov9YtD0dLeg0RSxKO4zw0W89IYPmcZNm3xGaMjNqsHYwnyefuJmv2cau5ymML1vuJamLYKJ9kvytzetdRmWa12bkhGQxU82S0INKXPWIcNfYA5NtLCQ4lMLJmVYlyqzFxDCRvjpP6svJt/Z1VFgjz10nWHer9qYZa6Uj8k06VQCaTOW31nAjeSSt1kwWCcVZhDVFmXvO97/aW/uilcUJxjFmh/qDZIkR1z11fvxte/db+liHniYJT5sqU9+Ie/+wusWL68/OY9e/ZY9LJr1661zGes1nXq1CmrI6+4olJK1E82v9/DAgS2hf8LOyhhkTHbowKEmZkJFIcZg+Ak4SmSDCd9ubUZuG0C/ft/gsahx43dVGhIo/nSP0K8QWwkTibFaUtpmvqAY0Zlwc1Lj0EYObUbjSAo0amWI5hBN9oXs9yzMJdxMQhKYbFx5WYmMbPj3xDRKkHKBuTOewM6VgieDN00apmCPcquyn41xiAMvYDEDJkU7YrYkqnUglTP5WhokIGFdtpixiCMP/tFxDLmstrZji3ovLjCSkhlX2GxgxWYa46bgLVGOAZUKo4YhIFDiGePIBJx9nMW7WhZtLU8diZLzej2f0cs69y42OZ8z1VIr76pPG9Upcp+Jq8JfaomRccxYHs4b5wxCP2IWDEIzn7Og7EeFcZKk8wju+9GfNzkMgNyLavRsfE3yzLra5AmeNXNpC4K6jhJEa0DhMnRFxGdfA6RiB4XE0EeTWhadFUZeLJvVNekFYOw+240TJoZL/Nta5FeL0i0eOlzg64OWaJcX8TUbQSQcpNSYxDGB48gnjlknhulZrQseoXNVafquuzMFKb23IV41hRHFEGm+yp0zZKVWXMln7dZTKQZ3TQ3dF+6nUlRMkNWDgBqv1BG6hsBTqdsNUn4XjddxUMS9Y0EJm5Mil4MkKrukDLplSjZXrcYBFlDxZtJkcGezj1cHiDC1GCRsi4IC8L2p3fg7//x/4D+wFvf9GqcOHESra0teOyXz+Di1cvxoQ++tzzHv/Wtb1n/Xrp0qVXn+/Tp02AQEa/Xv75+AY1hAcLLhUlRzWIwuUWCpDnyeRUM+EUGu2UxTJ18BA1RM5NirpRA8gwxKRKosA1uTIr8PVwWQwSltm3lLIZ6MilSXvazFwubNJUHz2K4pnzqqieTIq0GdDmofl1186oliyHXfCla288Mk6IXDTfll7pCBwh+WQzF9qvLZZfrzaToFUMlXHu58hirTIpBshjqzaQYPothzIfpUsQO6AcDjp2frpqeJmgV1inT4a0a3aFnMaig2Y8KWQb18tsmC4IfD0JYt/OCAgifuePLuPvbD6C1pRnbtm7GseMvYlFvN57bd8jK/f7qf3wKLc3CBLhz504sX74cfX0iEIYdTPTFxblx48bQJ3cTyg6TblirBcHNjKXLZ/rvIGmOKtWy6V1BAILDzDg15eqH5b314EFwWBACECXpp7VqcpnrwYMgTYjyhBSUKEkFYqIf3etHcEzrQbUsZLaXew6S5qjO57niQTCtwSBpjno/zwUPgi5zUB4EXW+ETXMMQrWsyxw0zVGX+UzzIHBNBNVVapqjyfVUje7QiZLU91RLlGT6NtvjBxDCBtsvKIDwT//8IfzisR14+397G37xyJPYuP5iHDt+Ar293bj/gZ/gs5/6Z5x3nqgbwIsuBfId0L0gC13w9EeUFWZTN22QYS0I1WzkZ+qe+QII55gUq6vFoI97UICgPj9XAME0V4MABPX5uQIIJpmDAAS9n+cCIOgyBwUIQQ449arFoH8zKEDQnz/TAMHkYvCzIKgAwXRvGICguhiqBQhuLoazAiDc/a3v4Av/cQ/e9l/eghXLl6K7q8MKVHx253P46c8exje/+hkLCPzwhz+0fJfPP/88jh8/bpkqr7zySgsVnjx5Etddd928MylSCdKUqqbQBQEEfsQZXu8KCxBMPtsgFoT5KNYk/YPSjxqEKIntfXkWa6rkNM8VQKAJld9SS+0GAQgqM+hcAYSXb7GmQtnNFRQg6AeaubAg1O5isFsazzRA4DzWeRCCAARTdksYgKDqy2oBAueDqabDWQEQBgYH8c53/SNGxqYtgHDrG1+D+37wExw7/gJuu/XV+P3fE2VNOZh0LfzsZz+z3AmkXaYlgSQmQ0NDVrnnhUC1zIkYlgdBz2cOCy5+1Ys16aAmCEDg+Kg8CNUs8nq4GKhQGVMpMyKCWhDUuTFXAMGUmhkEIKhKda4AgimmJogFYT6KNek8CEEBgr55zQVA0GUOakHQdd2ZBggmXRoEIJier0Z3nCvW5LKLVZvFwMdPnHgRH/7YZ3Do8HF0dKTBCO/X33wD3vZ//Ybj7S+99JIVpCgILkT5ztHRUXR1OdNwgmyw6r0vdxcD042i408h4sgIsDzKKLVejsaWLtfuGdj3I6SGnzL+Xoo0IHXZn5UJcZzKyV67XTczywApB5PiyafRGHFjUmxH6+JtrjEmuZlxZJ75pGt7sotuROeFVxt/N5ke1RtldL0pi2Fk4DBSuUNGtrx8KYl457ZyWWyniyGPye2fRKRgDszMtG1E1/pbXNvkRcNK5cvAUWY9OLIY+p9DIn/c+N5cqRmNi67yYVL8FKK5MfPzHZvRcbGdGl3eSFBDmd1K83I9y+h6B9Xy6EuIT+029nOxFEekYxtSja2ufTX67J2ITZlpj3ONK9Cx+Xfcnx0lk2K7MfNCWFgEM6gjSHHoCBKZA8b3kv0x2XOtLXVXXydju7+GhinzOBWalqP90t91ldnrZCozLyQ9r51JcT9SeRf2RspssT+6lBZmWvXuLyBasBNDSSGz6Y3ovMR9Pntt1jIrRwZDq2Z6rywCjgnHiPOK80+tZ0K5vGrf6DwtJtriILqj3A/ZTDl9UmZRmA6UIhB50iJlo8WTc0zPDPML/PXqm2r2xgWRxaAqELoKWJth6dIlVjGm+brCAgQOGPNhTWkr1bSllgG1uSeYUjZyEpGiPdedMpSiSbSml5YVnimoiwAjP2quZV9IpNHRU0k91QGCnNjOdKWIpUw54XnpPAjMy5+ZOMlIIntXRYBEUw+SqcoGoLsYSsUihvuOIl6w58nLFzX2rEXDbFEZyqcXbaHSNOVR83mOpSxIo/Mg8F2T7Keinn5XQjSRRnNrBYTptRj47pH+E4i6pAw2tC9D4yzjJceISkIlDqICo4Iz9bPF1jdLsaoDBDJVTo2+ZASPsVQnmpor685YrKn/OJA1czck0ucj1dxWHj99HfF9lEcGbMobKS/BjFoDQuVBYD9PUOainrZbAuLNaG1fXP4m+5n3q24RMvwVJ8y8HtHmXrTM1nHgS/TALspKkKhQQVjfosycqpLtTgcIhUIOEyMnZ+nO7VM62tCG5rbu8h8ZF8DxlPOMP4wPn0RpygyYI81L0ZquzC1dZjE3po0yM3VPjdVSAUIhn8Pk6EkwEdN2RSKIJtrR3NKpyOwkOhvtP4ZI1gkeyf7Y0ErGygqvhT43CGq5vkxpjtxA1VQ+vaAW54oprZpjJ9M9Teu+Wl1lmheyIygzx1pXW0J3kEuhUjSMf9OzNai3BR2+Xe+xnoiky/aihGY/lkqilLx6se3kgAi7F1lzfCHwIDDPWJqMrQ0sJDNfNRtwtfeEZ1MjD0J4quVaXAxh2dRqzbyotk/1+wRCp9/VvoCqeZ8w17NYkzeNqOldwsWQD7Vw/Ao7eclO4BiJkCPDma/t1+ZaZNZ9xX7fUn+vhf2R7wm7jthXuVyloFYQmU0uhiDPh+UioUIXwDM4r4yQmXojHJNi2H722vj8+ozt5YEoLPtjLTITaLoVKPKT+9zv9h5Qycj0vlkQAEEKxeyEb93zHUxOTePii1bjzbe6m6PO9CCHtSCcabm83q8HOFLRyWIy6nMkovJbXNyQTM8KVNxg25jd8oN1Hng+SzQtFYpuQeDvAg3bobBgUkv50jmbTqay3fyuF8WqOKHPOL7Neg/6yYXfUelJeSIg0NEvtwIy+gYsLQv683o/m8aeMqvgmvfwpEuZZXt1CwLvEaceu8ySgdEPdEmQZJLHr5/Ft8k65z3G3ABoJleVl7A+2GsL8H0q6Y/b+pCmZtPv1fQzgXsu57QSqUx13CxJBKXKzL43jW81MksTd/h+do4x36XPS9WCIAGDPqf4dwIfP5pir7nhxjOito8AS2ckNM1L3dxPXWLSNzx8SNAldZouh/uzFTIpyuh2AKtWd8h26sBIMDHamSulnpWnf7aX1iVT/0vLiG5BsNgvZ6u/ht2XFgxAuOfb38UX77rXUrQsNDM1NY3zly/Cv77/H9DRUTFLsaFchAxM5EW/laz+Jk19YTtDfS4sQNADd4LKUkveqgoQSDmcH3oSEWSAkr2aYykSRyx9BZKNggBEbsjq5Bs8+HMkhp4wik8mxZaNv+vDpMjKY87TPRWIZA5zxCAMHECS5XEddLglZKNL0Na7vrxA+B4uALmZ5TOTmNr5eYMJWjShcN7NSC/bVG6vjF2RDaSJsqmpQrerNpzmZWnqc5R7Hj6Fhpm9gFZohY3IR1rR2HNFGRDpp3FuKGRSjGbNlRHz9OevfbWrzBxvFQioMnMeyU1IBwhjQ0fRkDlskBnIRzvQsmhLuZ8pM+eHekoc2fElxDJm03eheyvSq24oi6IHnjFWiEyKpkv6oE1MinR5YXyHs1pnpIQimpDo3la2CAmZWdeg4isf2fsdxFyYFAstFyK9/q1lkfSNgHETdO24VXOUqda6i2FynBUoOTc08BgBipEmNPVeCdIu8xKuyUr2E/t8eM+9rkyKhdbVSK/7NUXmil+bf2RqphvLptxcZXtUgDAx/AJi04yb0BchrPncvOiKSpBtsTgrs+hn6pypPV9FLGdi2Ywg17kFnWsqLJv63JDVPE2boF7jQgUI/E0GEevzSq45yZWjMynSbSeCCM26iiyZEmC4xUh46Q6ZJqm2SWdSlGDAJDt1JMfRLc1Ruh5VOmn5HglcatkXFwRA2LVrN/7+3R/CTCaHN7z2JpzuG7DKPT+1/Vmsu3glPviB95T77p577rH+vXnzZgsc8JSxa9cuK0DxtttuC7ofu94fFiBwQgpfYnCzOYWpV5rj2PBJJGd2urYv37QBze2CW8Jkkg2S5qi7hLwCf4Q/d8KKQ1ABAhXk5KlHkIiYA/YY8JfoudpWoVAE4QlzvW8WQ8816FwtNi5nmqPw/7qdcNQUIwdA6NuJZOGksZ9ZVrvUvg1NzYLSOiiTYq51LTo2CDpd9hv7VYIY6RcPx6S4HQ1Flw2+lECs62qlXgbjBYTlR15BshhUpcp+p7XFRAur94+DannoeYsC2HSVShFkm7egrV349AOnOTYuQ8fm3yu/Wl37IrByvCqmPkeQokcwaAlRoOMapGardRqZFJ/7BuIugZWFZC/at/yxUWb+0S+LQRRJExTgQZgUY903ID5LHR44zbF5Jdo3/nYZfOrxVt5ZDMJypJ6opfzqgdE0P9S+4BipQM9PV/kTJVWvO6Rsqr700/cyENnN7U7dRCunm0W4lgMn5V0QAOFzX7gTX/vm/RYouP6abRaTYm9PN57dtdfiGP/GXf9uFczh9eCDD1qLdXh42Kq9sH///jJp0tatW103xKA/hAUIQb9Tz/vD8iCYZAgCEPRF55c6VA8mRV3mIABBf7aaVKV6pDnq3/VLc1QBggQJ8iQyV2mOprkRBCCoz89VmqNJZs80Rw0gqM9XBxCmLAuDDhDG+vcgmTcH+loAIX0NUi7VKq00xwAAQW+zH0Cgu0San1WAEIRJUf+mb5qjBhD05890miPHkmOkZgz46SoVIOjMjxKM0iVSzeFCtlfVl9XyIPDbBDa6deWs4EH45w98BA89vB1/+Pu/iZ889CjWrrkQ/f2DFifCD370EG7/xD9Z9Mo09RIt7t27F5dcconlE2IHc8D59wsvvBA9PT112XPDAgSTuT6IQPpmG+TZ+QII88GkqPdzUICg9vNcAQRd5qAAQZV5rgCCaT4HAQiqzHMFEEwyBwEIej/7WxBqBwi6zEEBgvNkLOoPmK56MSnqwc1BAYIu85kGCPye7mIIAhDOMSkG2Y2quLdaHoSvfu2buPPr38Ofv/2/ormlCUuW9GJwcASHnj+Kb3/n+7j37s9bX/vBD35gAYKBgQEcO3bM+ttNN91koUKmR15//fXzTpS0UFwMQYiSancxMDq/4sPzW3T1sCDQXF8/F0POCozyOgXUw4JQbxfDXNRiqGexprkCCHPvYqgdIMy1i6EeFoS5dTEwvbVS9VD14zMLzo1bg3uEetjTrQB+ukq1IJgOb9UcLupRi8Ht4HhWWBBOnjqFv/zrd2NqOoeV5y/DW259Lb77/R/j+cPH8JqbtuEdf/5/W2CACpYD+s1vfhNvetOb8NBDD1kBjHQ50NdCK8N8MymejRYEh6lxDoo1nbMgzGWxJpHzL69fdQsCAxwl4J0rF0OtFgRVZn1T1NdnvSwIDGRkfIqcGwvdgmA60wYBCKbnwwAE9T3VuhjczuNnBUBg4/cfOIgPfujTePHk4KwFYQhvfN0N+OM//F0HqxvjDwgMJLkNERpRIgO2wlIcB/HhVWE8mZdbVBfD1OQwomPMYnBGI1O4osWkWCFq0QUeeO4BpEaedm1HYss7kUgKE6buYvByz6iBanoWw9jJJ5CKmCP6MyVGUL/CdXz9mBQzvTega9U1xvboQYumuSDTLPUgxdH+Q0jlnzebcksNiHZuQyolskX0i2yhk099zDXzItO+AV3rbi0/pgcq0fTtlhEgskXgwqS4G4n8i0aZ8mhEsudqz9x2L4CQa9+ADkVm9SPCLUKZK0RK6u8E+Q0NcUtmR5DiyIuIT+8292MphlL6FWhq8mBS3PFlxKZd2ty4HOnN7qyEehqgKoTKtqfHIEwMHUZD5qBZZsSR6LnexqSoji/fO777q+5BiqklaL/sD1zXJ/tZEpLpN3G9ykwi/qa2b6xvL5IFM+NkoRRDspcymwOwpydHkdv9OUSLzpQ9S0+0rUPHuje7pkoyo8AtgJXrTk1HVS0IfiWTpetCuBimy8RWlMkrSFGmxkrLoulemWKoEpip/c1n9EwjVXbKw/e7kTxJKyEtGWpKrfyGsFjnbQRb+vfdZKtmk1oQQYpSUCqIffsPYGxsHMuXnYcLLlhZTRvOyD1hYxAWiouBymZq9ARKuTEwEUy9IvE0mtqWIDpLymJyMUyN9iHTt8uQChdBrH0lWntX2VIO1TQ49gGRrdslJ6zOgzA9NYbC9CmUNAUTYVpm42I0NlfSXXUXAzfbiZO7UTAwz0WicTSddzkSs1S8JkBAJcJMCucVsdopA7p0gEAyn8z4SygVyIZWuXgCjSS60NxWYfjTXQw8fo0PHEV+hCmHOntkBInudWjuWGK9VM9i4N+4idIFYLp4v8x40NMcMzOTyE2eRKlozxhhP0eTPWhqrQBHk4th/NRzyI+95EiFi0RjSC2+FCmFbU8/oYl+5nx08iCwC6TfXAcIhXwW0+MnUcrbWfqsfo6n0ZyuVHs1uRimhl9EZmC/cz5HIkh0rkZz1/nlbtTXvsxT15kUxbhU+AF0gJDPZTAzdgKlop16OBKJIdLQiWaN/ZGKXk1XG+87hPyIk/aYqZENPcxC6nWVmWPO9/mtQR0gcD7PjL2ASHHaNkKUGYletNjYHwuWVVeuDcvacvogCmNOemiuwYZFl6JZYVI0ZTGY16CwUrgxKYr1PONgjZTrhvpGsF4KbhfVleilqzi2ko3UAjjZrDE7jRs+SaMM+dk23SHHQiV5EuuajJdOJkX+JkEB9SlZGc0poOSOsVrrGG6C7bAZdXzZggAIVCLSxHZGdvsQL62FlVCPlA3y+VrYxbyCfLxkqNUtEqR96r21MPzRpEqfpB9xi9vmyW+HYYDj4qb/NixbHuXxIyJy68+wDH+SMEtVdtWOmdjM515muSmHlZlzOqw1kRtrGEZDzkkqezc+De81WLQ2mbmWmTJ5mdn99AY39DB9JQFumDUonj3HpFjtGva7z4snYUEABIn0aDl4avvTOHnyNC7dtB4XX3xRKDpcvw6p5vewFoRq3n2m7tFzai3ylbyTeY4LWloP3GShsisVnM9a90ditudN9NDcWHSmPj5KBSg3SN2CQKXOk6ITLJYsUiYTmYkdcOQQcRAWWQIjEiMZip0wSn3W+vYsKZD6d1EjIFZ+VrcgCGWVBWtB2C+SCyXLRDhu/UzLh4NIZ/bmSLTB93nKLDfxyjf47Up7HUyKs9UsBciyX3HrlOJNX+0uM/s57vk8+9nMHGmXWbcgUEry3Rc19kdrTsXJ7OlNX22dTC0LkcHlFo1X9bzO8Md3cYOT/aVbEPg7wUZtMpusACwJynXk3Wb2oengJWSurAW7C6VkyWuyPsTjCd/56Dk3onHP593WIMdYl1lnUqxG30hLgw46zWvIrqsog9ueUK3ukCtNP8hRLkkgp65GVVe6uRjk3mlaU+RH4BwJc4iSciwYgPD440/iff/6SYtJkSaRbC6HNRcuwyc/+i+OE5eMQWAj6Ifl5OFmI9kV67EBhwUIcrKFLZBRr2JN2ewM8oOPIwrnJs/qd7GOrWUmRWnyVRXOwMGHkRx81NiVhUQHWjf9ftkX6YxBmDJWHuPLpGtAjhkXiyT7GTq9H01F+j+dSnw6shjpRRtsbg25eVvvzUxjZsenjeyABAj5Za9Hx7INVntMLgZGQrv5xvlbe7soYOSIQRg+hcT0XkQiTvdEttSKpt4KkyLbTr0sSU0sJsVnPotobtzYz5nOreheK5jnqIT0Yk2c+25ESQSLPMkSjDmZFI/PVhl09nM20om2xZeX5RHVCks2M+Xo03eYC0xFIih2X4H2VRW2PH0dDQ0NoqOjUvBHbThJYeg3NzEpTk4MITK+A1E4+7lgxU1cWbYImVwMI7u/idgEzfXONhdbzkf7ht8qi6KTy9CfT4uRaUPmmHA8JVMf54qkWp4c60N0cqcxDiiHJrQsvto2n3WyruHd9yA+YYhviURQaFmN9Pq3lGXW+5mbPuezaXOgxUC0RwBBnUkxPrPPOB9nSm1oW1xhUtQtgJwrE3u+hviMoShWJILcohvQuXJb+d265YL+drfTLO9Vf9OZFN3ossWaE9kPpjRHwaSYMFr1+KzK0OhmaXHTHSLAdQzt7SRKqwAyVXa6Dmg5MmVQCReiN5MiO1OudX3QLDfzbDXIsHviggAI+/btx9/8/QcsJsWbX3Ud+voH0ZhK4ekdu7Bl88V437v/rtw+ZjDw2rRpk2Ua42L+VWJSDGvukxOFlct4jQ2/iOTMHvOJiafepo1obl9a3jD5D9X0HYQoSZ98fpHB7kyKjyIRMZeKFUyK15QtShJxh2VSVKs56ilmenu4wbqnOe5EsujOpFhs24rmFgEu9GqOQXgQuNjVUrUi4G/CNUhRgjEqRh0gTJx2Z1LMlxoQ77rGVlWR31IBb5AsBp3FTq+iqfa1GqOhWxC8Av5KpSiyTZeiLS188qZqjkF4EHSAQHpooeSdlwBuokCTbkEY79+LBKnDTc9ZTIrXlv3qejXHoDwIusxea1Cf74GIkrpvRENDclZvMAaBcRPiv0UWw2fcdY5GlKSDGi8XqWAMjJZBoD3NsUK9b+prr+BHb13l7zISWQxkYRVEfibdoac5qvf4MSn6pXDqAaf6938lmBS/+OWv4q6vf8+q6nfj9VfixRdPo6OjHTue3YtiMY+7v/Lv5UCYn//85xYZ0unTp7FmzRocP34cnZ2dliWBzIr1usJaEOr1/TDvmS+iJN1n6wcQ6sGDoPdPUKIk9flqUpXqwYOgyxwEIOjPVgcQstbpyAkQnkJDcdA4xQpW5sXVnkVeggAE9SNzxYNgalgQgKA+P1dpjqaN5RyTYqVXRDBubTwIHEuCUDVoz09XqTwIJldqNbpDBwhqLFG1aY5uQYpnRZrj+z/wUfzs4afw6295PfYfOIxly5ZgZITmxmb87BeP4Y5PfwBLly5FX1+f5Q9+7LHHrP+2XBHZrPU3uh0uuugiLFkior5rvcICBPp1awk2ChscyfaGBQimIMUgFoT5YFLUg+eCAATpB5en4moWeT0Agu7KCQYQGIFdUW5zBRBkHIkaPBcEIKhBt3MFEOi6YVS3KnMQgKDKPFcAgXOD/5NBe4ehTmAAACAASURBVEEtCHpw81xQLesyB+VB0Dfcc0yKzl1LWhCYyqm6heSdZwVAuOsrd+Mrd9+HP/2T37PqMZy/fClePHkazx85ju//4Me4+67bLRPnT3/6U/T391vWgoMHD1qL6brrrrN8TLQk3HjjjfNOlFR7muOkqx/OD/SEBQi1Minqcvmh8npYELipMzgsrIuBZkcZbT5XAMERg1DIYfKpj7vyIOjFmtQYhLkCCKYYhCAAQc0dnyuA8PJlUqwUDAsKEHRAMBcAoXYmRRYfayqrjzMNEEz6009XqRYE0/PV6A4vF0O1FgQ33X9WAITjL7yAd77rvcgVSli7+gLc8qbX4L77H8S+/Ydw7ZWX4m//5h22/rn99tvx9re/Hd/+9retzVT6B+l6WLVqld8+WtXvYS0IVb38DN0UFiCYxAliQagbQDj5CBJRt2qOidkYBDNJSxALgi5vNYu8HhaEl4eLIY5oJ6sMmn2qbEMQgHDOxXCuWJOcA/l5LtZEOQis1cDNIABBf5bvq0Z31AIQ/Ks5ZmZjMyqlzdU19ysRg8AG7d6zF+99/0cxOjaDxYu60dc/gJtu2Ip3/sXbHUQPstEyY0BGPdPlUEtKh9qxYQECJxH/FzbX3VQxrFo8oQKEyfFBxCa2uzMptmxBY6t7YSs/gJC47C+RmC1VG5RJkScFmst0JsXxk48jGbET4ci2Z4rNaF58VdlioLtFfAFC73XoXHWd9Tp9jNzSn+S3ORfcmBRH+g+gMX/EOESFUhzRjm1IzRI0CZmpoET0uJ+LIdt6CTo3VCLV9bnhFcAkUzYJbPQYhPG+nUi4lKjOlxqR7K0wKZrmsxdAyLZvQKfCpKjKzHfJAFVTh3Fe0CJEmR1BiiMn0DDNoFvnVSSTYtvlaGoRRFommYO4GPR+Hh4ecs28EEyKOStIzRGkOHgQiexhs8yIoaH7ejCt1CSz1X5mBLiUey6metF2WaXcs87V7xX8xvnAS/ri1SyGkdO70Vg0M06ynxMKk6Lez1MTI8jvIZOimbwr17IG6Q2/XtbRej97BRPypMxsEalX7UyKzH4ws5WynfJeUxaDH5Mi+0qCZROY8OPrUHVHWZdlZspBjV7pixYYn60zwfEk4ZO+r4iAU/dS9WH3MSnrgshikMIMDg7iyJFjGB+fwOIli7Bm9apQZDbVbqhe94Xt2NpdDN6T3UtmVSlwMUyNHEU+O+7I7IolWtGUXlEmODG5GCaGXkKu71nj56Kty9C2dL0t/1uduAxanJmRjHmVVxC88T6CA/5b50GYmRpFdvy4I6/fqnfefB6aWrrKL3MyKRYwfOQRRAuTDplLpQiall+JVLPIJjClORJ0mvKhZUEoVybF7AymR4+imLczR1rpjI3daGpbWlaIOpMiFezYiWdRnDJnQTR0rUNLt2D4471UZioJD98n06TURot+jlgKhf82MSlmxo+hqHFkWOlgTb1osrE/kpeispnwO8PHngJm+o39nFq8CU1pkR3Dy8SkKFwA9nRD9rOUmc/pACGfy2J67BgKWZ2VEIglO9CcXq6kDPL9RRv97PjpA8gPHwYiBra5tvPRtmRdWWZ97VOWCltepdmi/C6ZFEU/6wAhl5vB9MgRFPPahhmJIJ7qQEt6efllpkya0Zf2ojguitLZryjinWvR2nOBq8wcc84PnSND5MZzDVZM+ypAyGWnMDVyBCWNhVHM517BDDrLoaC7GDhHR1/chdKkCWBEkVhyBZrbKmtYT+nmXBYyO1k24/GYB5NiwcokEXpM1TcUNYqmJuqbqLWGdGInMbZuuipiW29uhzfODZE545zTBLy6NU59j9RFfFYeemQLOFZkUuQ7+Iyp3DPvJbAiPYDz+ahFXZ5IiCyTMNeCAAhsoN65YRpTz2fCBguaAv6CyFWLBUEnDwny3fm4l4uK//MyZ7vJNV/9TAVGmcMwKdYqM5WbHzmOqb8Ek2ImJMPf/FjExMlsZl5k1k/j1a4Njq+erx/k2fmyPIblXplPa2ktjLPVjsnZcp8XW+mCAAhyIPoHBnCUFoSJCSxdugSrLrzgZcmkaPJVVTvZanlWNyuSRdHEbc5NhuxzXheZAUm2ZLpo6lOfN4EpN3YyW4nmXM5C75Lsh203MinyxEUmxFliF8pk6qdcVnKiO6VOJFM295P+vPXtApnn7M+GZlK0CiU5Gf7075KFsZA31YAAGhIkcKmw5Zlldp4ceMDjc9Kqo1sQRFvJ/qifpiOIxe2sgiZQw9O8zG7Qe5qnFb9xMjH8ycJS0kVoZFLMZ52skVZbRYEn9dL7igx/0oKjyxxvaLA9b5pbbjKr/exkUnRj2ZydGzE7E6L+3YIFoM1sphYxkNLmsDKzL3QmRY6vfhpliqFgrLSzbDplFgDadFW3Bp3zme/yY1KsRt+YXAx8t8V26VgLghdGzYRxi1eoVnfIPtEPctXI7uZiELpQsNb66a5q9yD1vgUDEBiD8J5/+giGx6YQpbmuVMLNN70C73zHnyKRqGxmNP+NjIygt7fXmsQkMRGmo6L1t3pdL3cXg2WS7X8CcTiD/lixL9F5GZKpZqu7TC6GgcNPIHX6P43dmWlehfS626zNhJdeI0AUTok43EP8m1wcXHy6i2G47zCS+cPOuAk+F12G9KKLy/LoLgYyKU7tuB0xrQCRfKBwwW+gffGacnvVLAb+kcFAbhz6zLpwY1IcHyVb3nOIwul3zaADbYsvK2/yDhdDsYihPfciObHf3M8916Jr9fXWbyYXAxUW14ZOjcx+lmDRxKQ4PvwiIlP7EXOwP0aQifUivWiT0s9OF8PIM19EfMbsFimcdzPaV1T4SHSlys2I/mI9Voj/zewksqHy3zpAmJocRWF0J+JwgtYcWOlza1mZm7IYhvfdj4bhHcZ+zrevR3rdm8u/6WufbZCxETblGYlYTHU01/N3HSBMjQ+iOLYLsYhzk88ijbYlV2hMivZiTUO770Fi3Dw3yErYcWGlOqku89jYmDEtjn07NUU3Zmv52ypAmBw7DUzsRRTOTX4a3ehYfGkZAOouBm60I3u+jeTkIUc/lxBB9rw3oGvFpeXfdMsF15mI9XFSfXMM1Mql6ibLAlPc4Mn5oQMb6iISORFg8DceSFSLJd9D8KPXhGA/SQIsOVfdsiy8dceEg2RLPVBxroo4h0aH7JIFkvJTTjfGR8H0WXEZyQ4WOmPak0zNb79cEADh6NFj+LN3/iNy+QLe+LpX4uChI+jt7bGYFK95xSa866/+vNyOb3zjG9bEXr9+vWXOoyJZSEyKYrMthi5gUoubQLUgjA2fmGVSNE+BfON6NKeXlTcf/kNV2n5Big2X/SWSs0GK+he8wBUnLXN6aTVQAQItHVOnHkWDC5NirpREUmFSpHKSMQ38vm+QYs816Fx9Q7m9zMGWvjnhPyTFt9lXx3tlbQOdanns9C4ki6xs6LyKpSjQvg2NzYKFT+cU8AtSzLVehI4Ntyky23kQ/FOw8pbiC0aUFEes69oyO560qqgKNEgWg6oMuTZkgKqpvzyZFAcPoSFrLqvNzSfftBkts9UN5YlMZX8MEqRoz88nXa57iWq2QwbX6QBhrH8vkh5MiqX01WhsFCBdl5l9Mbn36+7lnpO9aN9SCVLUOQW8otd1157KpDjWtxspl/lMOaPdN6ChQWS4sL2UW/azPw/CBWjf+F/KeoZuL3XNeac5CspkOQ9VPelV2ppyeukj/ywGO8WzPm+D6A7TnPdz73iVdOf7BMMk+8VsEa5lP7H2hPd9r7/0Vzc1+gGJUL9zwMly6Hfd9dW78cU777UG/+ZXX4/jx0+gI92OJ7Y/i0RD3GJSlBG3jz/+OM477zycOHHCYlQkLwKRJTtqy5Ytfp+q+vewFoSqP3AGbpyvNEfdH+i36OrBg6B3XxCA4FzkpEstGvnQ5SI8e9IczzEpqvODgFZaNtyWrIyEdwKEPUjmz6U5yn6b7zRHAVBJi105bfvpKhWEm0BXmDRHFTRXy4PA/YiWBN3Fc1bwIPzzBz6Chx5+Cm947Stx9PgJ9HR3WlHwDAR77PEn8dlZJkVONJrO6GJYsWKFdRLloMk0R55KwwSPmRZ+WICgo+qgOMAr1cfvXWEBginYKIgFQT+9+C26egAEIndZrYz9EgQg0MKTyVTSl6pZ5PUACLXXYqiYRzlm/rUYaqdaFjKLSovyCmJBUJXqXBElSZ9yWAuCepKdK4CgZz8FJUrST99zQZREXce1I60A/haElWjf+NtlC4K+4Z5poiRTOrOfrjozAKFiOakeIExZqZFnJUD48p1fx9e+dT/+x5/8nqX0V69eicOHj+P4Cy/hBz/8Cb5+56ctv9FDDz2E888/Hw888IBlQVi+fDkuuOACa8KxNsNVV10170yKtQIEr7zchQoQdLn8Fl29AIKtmuP0KDKs5uhyZW0uhmIZgPL2lw9AmCmnes0lQOC3whZrmg+AIAMKwwOESp76ywcgVGT2M6sTQLHIkvTFByrW1HUDGhLCxSBATb4GgEB+kYr1+kwDBJNq8NNV/m48f+tjLURJ/sWazgKipIOHDuGv//b9aG1txxVbNuDyyzbiye078dTTO7Hu4pX4X3//LmtsWYvh6aeftnxKpFbmqW716tVWYNO+ffss2mX+dz2usBaEenw77DvCWhBM3wtiQdBTM/0WXT0AwjkXw9xYEExzI4gFQX1+riwIJpmDxCCcczGYY2rYL1EFIDgOBlY1x9td1dd8uxgI9ggeVeDop6vsxZpyjqy6ag4XOkBQi9tVa0FQ46DUDj4rXAxs8BNPbse7/+njVjTq+nVr8dz+Q7ho1TJ89MPvd0Q8P/vss7j00ktBYiUOMF0LL730Ei688MIF4WLgRFTTY4Js+HrgTpBnVYAwMXoK8SlzLXoL/TdvRlPbIuv1plQ2P4DgxaToFSClkhTpTIoTJ1nuecLY5GwphaZF15SDP51BimPI7PhUlRYEFj7K2gLx1BOV/hK1kpojSLH/AJIuTIpknkP7FWicJWiqJUiRZv4gxZpE6lXBGKQ4fvoZJIp9xr7Kl+yU1kJmzudKGqEnQGhbj671lYwANT5FpJlNu9YaUUv66lkMkyPHEJ/eZ5S5xJj7lsvQ0tpt/c6AU+oRNbAyCEDQY2q8yj2zTZJtz8GkOLAPiZyJ6AgoIoZ417Xl0zif5f+kzL5BiqletCtMik4336RrVo6or1EhkrIxKZ7ajcaSmUnRSnXsuRHxuGB/1K2l0+NDKHgCBD1IkYHCFep0r4A6WZRP6tW5YlJUYxbMTIp2a4w+QakvdIZfVXaZBePGAOzPpMixhCsdwK8M1TIV2vDwCPbsfQ4nT57CJZdchIvWrnHQLAfZMGu5N6wFYeEwKRYwcno/4pEZrmvbVSil0NazxsrTlwtdBzWj/ceQHzQr5GKyG90rLyunIzlz+/NW+peeOsRvUTm1tbUbmRRJ1ZqbOIKIxnZnyda0DC2zgEa+R81TZp774OFHEcmbazm0LN+G1CwVr4lJkfKaLm40/I4kE9EBArkXJocOIBrR08JKKMU60da10pNJcfDodmDGXHo50b0WbbNseaY0RypNQU+sp4UxTVD0My89i2FmehQzo0cR1dMcSYuQ6EFbZ4XhjxuPzqQ4cPiXQGbE2F/J3vVo7RLZMbx0pcp1xQ3clObIcZGUuU4mxQzGBw8iFtHSSUtAIdqCdM8aTybF4Zf2oTBq3qxjbSvQcd4lZZlNTIp0/emgX6ZjtrSIlEEdIGSzU5gcPIRYVJsblsxt6Ohl3RixOE1MisMndqEwbj7Nx9MrkV5ykavMcp46DyqUswDKLC8VIGRnJjA5dAixWNE2vqUiUIx3IN1dmc8mJsXBI0+4zI0IEt0Xoa1HMIOKuWEHMex39oM+n+UBRqVTVjdZykGrpGoZkN+gvmltbSv77p26KmfFspmepSx8Vs5VE9eEbAfXyCzBZLl9QnfY2Rj5o/oe4cIaM+pKfp9t5hi6fZvvY9uZGqp/n4HXZFJU3TjGRevxxwWRxcCJ4iTmCNqU+t4fnknRmgKha0KEZXHjV01oUada5X36ZJIEG84JzpRNA5mOtiGZJq8MfNRHRQ2y4QLgyb2xsVIYyCQv32EiaKFydS4KJ+kQ28uFKi82iSco/Z3VfNvEpGhqqyg37CSVEf1vR2xcyDoftprCKeU2zY1q+5nzWWVMq+Y5qczqLXM1/WxiUqxVZsn3YZ+TEeM46WPkNsaSbpnvNFlIapW5lrkhyH/s69dk3dRBXPUyO3Ud572JnM08n8UGql4mmU3rX7eYyDWt6xtV17mte7dnTfrBrcZONXO6so7t7RZ9VnToMvaZnIfidycIUHWDs+2V5712R686FgsCIMhNaGJiEvsPHMD09AwW9fZgzZr6xBOEgQ5hLQhycYUt1qSTDgWRnUiY1S3VSWNivCMiVeUzuRikidr0fT6vKlATmJLmR/159ds6URLvNTPWUYnbv2mSWbCJObn2+V7VmsF7dE522V79eZ3wSZzMsjbyETcmNJ39TSoRte+labmafjbRcLt9Wz0RCQvCtI2wZT5lpnXDNEyqzJwHdJlJgir2Ty0yB5nPQfpZHWPdghBEZpPeqH1umBkC9Xmpu1BMa5Bt0U/ZQWXWLYrmfnbKrLOZUhbdHeGmb/TxoSVI3xCrnVdeAeRuestkRdVlZz+a2CdVXelV1MnteYIvnWHUpGfc3BvWwWAh8CBQkP37D+LDH7sdR144hVg0hngsgte95lq8/U/+wGF+sTNR5a3Nip1kGowgG6x6b1iAsFBcDIVCDhN9zyJWnHDYvgqRJjR1bbT5P/WTxeDxnYj1PWzsvnzLGnSueSWis1Sx+smW48NNwETeQeQvq5LpAGFs6AVEZ1gZUd/kSygmlqOt+8KySVZnUsznZjD23HcRzQwYZY6vejNaOoXp2+RiYLCQ6g+VL2G/EBQwEFYoJgKEjGV65DU1OYL8KJnn7Gx5EZSQj3ahtXedO5NiqYihAw8iNnbAKHNp8TXoWL7Z+o1y6MWamBJLK4rJukIlJM2juothcqwPxYmDpBeyf5fAKbEUbT1ry383uRiGnvs+ohNHjTJHlr0a7YrpWz+dClOwueoqZZbmet3FkJmZQGZoD6I6kyJjLWJptPZuKveDkUnxyGOIDDxt7ufOTeiYrfTJG/S1T8ucG/kZ5wMtMyYmxZmpYWRHyLKpMSlyQ4h1on3RRm8mxUMPITpsqGAZiaLYvRWdKyuMlU72x0mrP5y1O0T8jcpmqboYpsYHUBjfhwiclrhshEyKl5Rdi0Ymxf0PIDZpcOVE4igsugZdyzeUx0B3MRAQckNzzuei5ZpU3SJ2JsUcZBCfPsBcq5LpUoBEkodVUnY5fnrgonwHn1X7ye3wxjltIlnj9/TDhASN0vXDd3Idm55nm8mUyvXCf+vATsrp9n0JmtRDY9D9cEEAhJdOnsQ7/+Y9GB6ZxI3XXYkTL55EOt2G3XsP4DU3bsOf/9l/L7fru9/9rvXvrVu3Wv5NEiUtJCbFWi0IJlRd7aAGyWLIN21Ac/t55c3HQouK6dsvSNGbSXHKSP0pNzoTkyIV8OTJR3yYFK+2Fot8jypzEB4E0yKl4mCeseniIpeRyI4gxb49SBbMZDhFRFFq24amWSZF3erhz6S4Fh0bfr0skjo3+C7/FCw3JsXtaCiagVSh1IB49zVlhWWaz0GyGNSIbRHQRy4HMzGbJ5Pi0PNoyDgpfMVciCDXfCla2ytBt5Rb3WiCBCna16A3k6IAkCL91BGk2P8cEvnjZlCCKJC+BqlZ0h69n4PyIOh6w++0q873IEyKse4bEW8QjKO6zEF5EHSZ/ZgU+U1pxQjCpKhyy1BmVc95ZzEwqJYFwwSxkv4s/2aKHVEHXNUdlb/zACRcK9UyKZq+zed1+nZ9sv1KBCl+9evfwue/fI81cLe84VU4dPiYxaT42C+fRnNTEvfe/fnyoEqAwA675ZZb8MQTT2DZsmV44YUXcPXVV1e7l/reF9aC4PviM3hDEICQa9yAlrQACKYrCEDQXQx+qUPn0hxFjwcFCOo4cf7PBVGSaW4EAQjq8+fSHNUtwg4Q9H4OChD05+eCKEn/ZlCAoD9/pnkQRIyI3cXgp6tUEG4CXWHSHO3gZqJcrM641sZGrWBjHqpIAnhWEiW9/wMfxUO/eAI3v/oG7Nv/vGU9oJm5s7MDjzz6BO749AcsEMDr0KFDluWAKY2SVZGmF/k3aQqudR8OCxBqdTH4IUqvdoUFCCbfeBCAoJve/BZdPQCCo1hTAKIk4WKonAyqWeT1YFIUxVcYDzGbPVLIYfKpjyNSdBZ6sk4HrRULAgEBT0KSJnauAIIw15ds7pcgAEFdR3MFEEwyB7EgqKcu9vNcUC3zRJ/PF8qpt0EBgq6v5gIg6C6GoABB1xNnGiBIkz8pi+Xlp6tUgGCKtapGd+g8CKr7tVoeBDXVWt0DzgoehM994U7c893/xLve8d8wMTWF9ZesxYGDh3G6fxDf+f9+gG/c+W8W69eDDz5o1XZgPQZaDLq7u62iTbzIpEgLwnwTJclI6fnmQRgdOoFUxuC/nJ1dqgVBN33zliAAwXGSmJqyRcw7T76i+I1erGny1CNIRMxpiqb8/NqKNVUKH1WzyOsBEILzINgBgvBJVlwsc2FBkIGf9SjWNFcAwSRzEICg8iDMFUDQuRuCAgSdu2EuAILO3RAUIOgb7pkGCKbDVRCAYHq+Gt1xjknR5VhbbbGm3bv34v999wfR1dGJq67agnUXr8Wu3fssF8OSRWl88APvsb4wPDyMAwcO4OjRo5aphf9N6mVaDY4dO4Yrrrhi3gFCrZaLWp4Pa0EwfTMIQDhXrOm0cdhYzbHYthXNLWnz7wEsCPoL5sqCYDR7PvlJRPPjxjZlWteha8OvGX+bK4Bg+ngQgKAD2rmwIOgyBwUI+vNzARAcB4MFz6QoqomqMTBBAIIJwIQBCGGKNdF6yBgpPePgrLAgcKLdd98DuONLd2Mmk8P1174Cj/1yO5af14uPfPA9DnZEgoS1a9eC6TlcCAwiYbAi3RCq+aiWzTasi0FnFwsqQ71qMYyPnETD9C4wmt6IfJs2obl9ifWTKRBt4LkfIDXyjKv4KpNikNOLmituY1IsFjFx6jFXJkWWe071XlvOVOHCZF6wtNTkZsaQecaDSbH3WnSuut5qD2VQyw5z4+L73IIU6TNklDEXpzNI8TkkC+ZANMGkuLVc7tlZrCmPyac+5uFiuBgdG95aHiMZDCfHTAZ7mgZJpvWZyj17Myk2INFzbTkY1FTXwMvFkG1bj06FSVE11+uuHdOmSOBPmfUshonho2iY2e8KxAotW9DS1mX9LkrwkimwwtIXBCDoGwGJbGTWigmoiU0n5QxS9GBSLCGGSCfLaqt1DVhyXMjsz6S4CO2X/VFZHD0YzUt/6Vke9iDFPUgVzUyKLKsd776hHKTIPqacUudOTwwjv+sziMBOsiSFzLWsQnrDbyrFmoLVYuB6N5V79iuJLMfTNP+89C0Dp2XRQLbBVEjPL0hR1R2yH1S2XD8mRVnKmnKaijX5Byna+zjofrQgshik0KRO/v79P8Sp06dxxZbL8MpX3hi0PXW7PyxAqDUGQbUCBG2M+ixNlqOndqCh5KQuzkVa0NqzwbbQHWmOL+xC4uR/GjavCKa7rkLXqmscATOVBZC1otVlxoHaDjVlUE9zHBk6hfjMIaBkT7GyGOuS56O9q8LC5kxzzGJ03/eQnHRGuhdiTYiv+Q00pxeXAQIXe1NThTNCpt85NwBR+bG9XbAS6gBhenoc2eG9iJVmHMOVi/ci3XuxB5NiEQOHH0dq4FFEtDYXI3Hkl74Gncs3lQGCnuZI5SOZHvWPU/Gk0x3Wt/U0x4nxARTHDjjT7yIR5OJL0NG7pvw6Qctrj0EY2vt9NIztdWwExWgSuPA2tHVXmBjNaY6MwbAT5FBO3ptOC2uLDhCymUlMDu5FQ2nK2c/RNNKLN3kyKY4cexLR0w8jqsV7lCIxZLuvRteqSoCzvvbZB+xDPY2aMnNMaMHk5qVnMcxMj2NmeA/ipYwmcwS5WA86Fl1cTkEWG00lBoEPDB76OZIDjznay37OL3kVOpdvLP+my0xdoAJo+xqcKbNs8u9qmuPM1BgyI7sQK9lTYEucR9FedC66qNzPJibFgf0/QePIUwaZU8iueDO6F68s/6bHW3ENitz/mO15zj+mMaogTQ30Y9/xv01p1QROpOJ3c/nKNEczX0ElvdlLF1NufttErkW5VC4P/T2cMwSgpswetpl/90vf5/Om1GFxWM3b0kOD7ikLAiCIPOPKSdctpSNo42q538sf5vfeWuSv5Vn9FGFZBooGZsEoGbl0el57q/gs6YtNVzQWty0GU2qmG7OYyg4mmBRzNguRxcKms+hYjGKUWWVDFPNF/ZsV/2FoL+/TZdb7WVpRjO2NVvqKGwUXnVpT3moruWj1bSDqT+4UpJ9Nc6OafpYbnE6i5ZQ5gog1N85cP7OLqpGZfcz5rJLalDi+VfQzv2Ea32rnc9h+ZrtkbRg5FaqdG/MlM7+rHizK6yBsP1s1JZw6h3gwGrXrjSBrUNUblNnJpMi54Vy96nP8nonzoJr5yDe78SBUqzukdLq+rOZ5Lx6Eap732rOYHeF2LQiAIIO3OFAsutQ/MIAVy5ejq0uYDOfjCps/qgfuBJW9lmJNpgwI2beqHDqaNgUpBpHbFN1rbXzcOLVL/bbbxqWCRQkC9PQetstE31qN3OJEUgn4U5W537c5PiyaxFOJvKppK+/VgxSrkVX9hlpgSn1WH2O9X9hWnjDVDB+TzKb+FO+2F2sKIrcby6bez3ynOjeojDmfZT0JVbl6zSnZz3y/38nLrR26y6zab3O+8zTpJ7OZdpgFplisqULiMxf9zG8wG0zP/vKbU3xO6DoWBKufzNXOS9MBzk/Xx9QeiAAAIABJREFUCReD3XLoNramMfKyKsvgdHXM3PSTScf7ye7FpCjHQl9TggZcK8RjmFReAfULAiBQ5uPHX8CHPvbveP7Iixb6b2tpwhtedxN+920Vn5VsmzpQnCjsCA5QveIP+J2Xu4uhQKrawd2IFA1ZAdEUGjvXeboYRk7uR6lvO9WANqUiKKV6kF7zqrIpUD8JEN2LCe+cnFQoRKy0COguhonRfmD6CEoOF0MUpeRStHaoRYRy1rhXGMlyGNt/H6J5Z9GlYjSB5LJr0NwheB9MioILUBRFca4gtkWevh0uhqkx5McPAprpmguzGO9ES+fqsitG9xfyNDxy8CfATB8i2omNFQqj3ZvQfp5gnmMfO5kUBcOf0xokKjnShWJyMUxPDiE//jygmZEtRtKGbrR2VSjOTUyKwwd+DEz3OeNbIjHEei9D6+KLy52ouxgkW57ey9RjrMvBfrZcSvm8tdnSTcIrm5lCZngfoJnrOcNKsVY0d5OxUlh6TEyKo0cfQ3HsqMOVQ796pO1CpC+4qiySvvY55qLAlNPqJq1JUgex+p6UOUP30+h+oKQxKXJdxNvQ2n2J5mKwk3WNHH0MGH3eMSHpFomm16B9hReT4tRsnQOnK4d9y7gtuXnYXAyTw8iOHXKwbEboUIp3oLWbRbFEP+guBq6rEbI/TjsLTFHmyOKrkO51dzGw38V+pusNcdhQXYImJkUna6SQkfEhUk/wPephQ1gEncXDhJ6grqr0k/6sHBhv3SEKLqmXqi/5bR5G43Gn7uFvkknR7dt8L9eYidpfAIaSK2ldNQB0QQCEgYEB/PX/8168dHoIl126DhMTonLa4SPH8NZbX4U/+sPfK7fl3nvvtf59+eWXW5v40NDQgmJSrKbTz9Q9qqlwfPQUGqos92ySxy+LQQ1S1AGCV+CPV5Di+KnHkHQr91xMoXHR1eXTigOU+PAgZHquQdfqG8pN1Rep9PeZ+kIt2aoDhNG+fUgVzFUCC6U4Iu2Xl8s96+8OSpSkt1mWgjXJrJ7u9BiE8b5nkCi4lXtOoqH7as8qqkHKPasyq2NvklmNyHYGKR5Dw4xLddFSFIXWy9HS2um6tLyDFJejY/PvGucG/zgyMlKOjXCMocIOqccgjA/sRyJnpqRmkGK081okFPZOta/8gxTt5Z51ubyi80VciVu5511oLJkrSJKxMt5TCVLkN1WZmeZY2P1Z1yDFfPNKtG/8bddTrSkIULaLc4M0zKZyzzKQz23wK9ZgAueizVLlp6vUYGbTJu2XmcNv8+Cqu0Llhs5AYxWs6W2QdTIIVkwASNQ1KRnjvfiusAddKceCAAjfuPvb+OwXv2lVVXvDa2/CydP9aEyl8PgTzyCZiOPb37ijPKj333+/ZTpkx7/uda/D9u3bsXz5cpw4cQJXXnll3fbeWjrW5MOsVrBanp2vNMf5YFIMChCyPdeg0wUgVJOqVA8eBN2VUwtA4LvmggfB5H4KQpQUBIgJC4tQdg6AMHQIDRnnaVpsUhFkmi5Fe7pCtWydQxXzapAsBlVm/ntu0hxLlvVKyhw0zdEJ0kmqZfYt0+pBaw1P1rzULIbR07tdAQLvjXbdUK7hYgIIxd23u6o6HSDoMp9pHgQBUMMzKZpAVzW6Q+dBCMekOFGuYaN28FmR5vhP//JhPPSLp3DNVVegv38IiWQDUsmEdYrZ/sxOfPZT/1JmUjxy5Aj6+voszgNaD8iFQFRJZblixQp0dAiTZK1XWICwULIYghAlSf+Z6ovysyCotRh0ZO2XW7wwmBQrvshqFnk9AILuYggCEHQXw1wBBFMWQxCAoM4Fv9NWvQCC0cWw40uIGUzf1BO5xmXo2FyxUqprf64Agp4uFxQgvDyZFHl6rmQSnWmAIOMbVD3np6tUJkVTMHY1ukMHCKq+rJZJkd82xRScFQDhM3d8Cd+57yd41zv+BANDw1h3yRocev4YRkfHLCbFr3zpk5Zv8kc/+pFVrGPfvn04fvy49TcWbeLAnzp1Ctdee+28EyWZTlxBwIppElb7fC0WBB3NBwEIQcybYmOrnUlR7+egxZpUk101i7weAKFWC4Iq81wBBOnHVP3vQQCCqgznCiCYZA5iQVBlniuAwO/wf9L0HBQg6CB9LoiSdJmDMinqZvMzDRBMejQIQDA9X43uOMek6LKDVcuk+PQzO/AP7/4Qli9fhss3b8CmTZdgx869ePKpnehob8SHP/g+6wtEW8xy+OUvf2nVYjh48CCWLFliReCSKGndunXzDhCq3czPxH21AARdniAAYT5cDLq8QQGC+nw1i7weAEGXOYgFQX92rgCCaZ4GAQjq83MFEEwyBwEI6vNzBRB0mYMCBP35uQAIjoPBAmdSNAcne9PC24s1Od021eiOergY3LIYzgoLAifaf9z1NXzjngfAzLgbr78SDz/yJM5b2o3/+XfvwLJl9qqDrMPAuAMCBpn6xUCi3t7ecjnQWjfgl7uLYWLkNBqmn7V8uqar0LwJTW2CSbFWF4OeH+wX+CNzxXUmxfFTjyIZcWYhUMZsMYVUL8s9i5Sq2os1VVwMuk/WqawF6ZOJSXG0bw9SLuWeC6UoIu3bykyKQV0M2daL0akwKapZDKolxjS+nkGKp59GothvnhelxGy5Z8nol7V84yorYRAmRfWE5h+kmLVO0EYmxaEjaMgcMMrMjI98s8qkyAJTlSA8PhQkSFFf+2qUvwPkeQYp7kMiZw5gpcyRzuvKTIq6iyFokKIus9fJ2JtJcTdSRZcgRY1JUc9iEEGKZFJ0YW/VghT1tGzVN28CTHQNmIIUvZgu+R4ZpMg1ww1VZUz1Y1JUyz2b0xPt8RxeukP+pqbR+gUpyraZGBmlHuT/S72ofz9sur58z4IIUpTC7Ny5Cz//xWNWwaZlSxbjrW+91bXoT60AwO/5sAChVh4Er0heP5lVC0Ihn8P0wDOIlpxpjsVICsnOS8vBRia3yODxnWjof9i8iTQuR/tFr7fIh0wXLUeMDzNF3UpqVm4EDibFwRNIZA87QQ1T4GLnob2nkn5Hhcp3lFPbcjOY3HUXIiVzZcTIitejtecCS1yTomDfmamWmV44g9bWVutZPYthcnwImNiHCPRUNiAf7URLz/qyjDqnACPJR/fci2jGpZZD1xVIr9xWlllS+so+5ybQ0EDyGWf6ncz3Zv/oWQyTo33A1AFE4CS0ycd70dZzSXlYCZ4IEFROgZFddyOaHTBPxyXXoW1pheFPNxsz516kuerpdyJdq6Wl1ZjmODM9gfzIbkShsxIChWgrmnsuLc839jP7Vs3PHzn4IKJjLlTNLRcifdHryu3RNwJuIiKl1jnfJf01Ny49i2F6cgRFi3HSNDfa0dp7qY2VkCZ3lX10+MCPEBt3MoNS0ELnZehQUjP1fqYbT0TPO+cGZZYpsBZ4Gh0ps/1NTwyiOP6ccW5kIl1IL1pXfifby3UowSP7ffzAfYhOmaiaI8gvuQmdSyspsPrmxc2SaX26zHK9qumCepoj+840PrkcwX3SlROD/cbLxAUgM5v8uASE7mCFSGda9/T0JFpbBQur6WL/mbhC5ObPeeeXvs9+M91j6je/PUT/fUEABMlRH1T4M3l/rcgrrGx6LECQ93idGoK8J+i9bsQyfu8xESX5PTPfv5uIkuZbJr/vUwFxPterFLrf9+rxuxtRUj3efabewQ2Sm4VOlHSmvlev9/qdwOv1nWreU63+C0MoR0Cjpi1WI496T732hDAsvTywEgSY+A6CtkO/34tQbEEABA6cvOg24EbHss5hmdBq7TA+H9aCQCXB9riZfPxkM7Eh+j0jfyeSVOl0q33O5GKo9lne54aA/d6hWxD87ld/5wZCZB+mrLZQFDOhCES4uHmy4Ek36MX28uAchnmOipNWAZXiudrvC4BAJkX3k4zbu/zyrP1kCLuOOL7cbL147L1kZo0K1S3iJ2c9NgKeYpkSGU5mFpgiMQ5PosGvWjYvLz4NL0mo6zhOfidct3fUUpjOyx3h9j0/F5dfr9cir/ruMLL7MSn6ye71uxfoWBAAgcKzUNOHP/4Z7D94BPl8AS3NTfjNt74eb771jY62qakhVEDcJCQ7WC0dpT4bVrFxkZOMY34AwkSZtavI08zgXiOTYinajMaONYg3CD+zBGjqRBk9dRCl048bQxhK6YvRvmKL0YXA93EjlBu4Ph4qO5mDSXFsAJgisYydvdFiJUyQSbESi6JXc6RLZfzA/UBuzDEFaPhLXPBaNLb1lturAwSCUsGkaPefckNnW6R5U3cxWKZvmoEdTIpAIdaJ1q5VShEh1rYgBbCIo+C3yPCHMXN+f7RnC9qWri/fqwMEnqLE2DnZ8ggKSAdtZlIcQWHisINJkejFYlLsFK4YXgIg2H2cowd+iNK0k2iJUsTOux4t3ZWiWk7fuJmxUrpCJIW1k0lxGpnRg4gUnUWxyKTY0l0pimVMczzxLEqDO43qIdJxiY2VUN9s3dj2xNwQzKBGJsWZSWRHDyDiYFIESvG0xUoox46uHMGcVwEII0cfB0YPGudzZNE2tC2+qPybM81xanbe2edGNBqx1qdqrrcxKU6PITd20ME4STmL1txYaXOLqFVQLRfL0UeAcRM5VBSR825Ee3dlDZtSM93M+dQbbkyK7DsWVCOPjs6EKpguOT72AlCy44SuEpVh1YtjK9lI/fYUNyZFyQ6q0rKb9CFdmCYmRQkY/Q7KPBianpc6xqvWgl/bFgRAGB4Zwbv+9j04fqIfG9atxeSkUNYvnTyN33/bm/HWt9xabsc999xjTdDLLrvMsjTQp7lr1y6rbsNtt93m196qfw8LEKr+wBm4UY1BmBjtQ3xqh2vAUKH5UjS1ieqGpssviyGx5S+RSDZZj+qpmX5BilTAZA+zBSmWihh/6XEko+NGebKlJjT2XuVqVcpNjyGzw73cc6b3OnStus74bsrPTcBtIXkzKe5HqmBmy7OYFNNb0djUZvwuiwd5lXvOtq1D5/pfMz7rl8WgxsI4mRR3IFEwxz3kS7UxKerlnlXh/U5wIiI75lLu2ZtJsdh6BZpb3TlQwmYxUH6/IEValBi/4mRSPIBE7oh5/BBDrOtaG+mQeqMFkPZ8DfGpF8xzJ9WLtsv+2HX9elkidW4Le7nnvUgVT5i/WYqioef6MkW7ftPUxLBgUtSo0uV9+ZZVaFfKPevPe1lBOIfdghT9KuCqQYoEA2qch5+u4pyUlRZNrlS/zBxTcKEa1M09zBSTI/tGun/cijWZSpur/VpLTBvfsyAAwne+ex8+eftXLBT+xte/EkODw4jF43j08e1oaUrh7q/eXjYl//jHP7bM6AQGV111Ffbu3WulOpI8ads2EdBVjyssQNBzg4PKEtafz++ETXM0BinuvR/J0R2u4qtESfOR5khlTIQukX+QNEe2V63qVk2qUj3SHHVLTdA0R8qpWh/mgknR5H4Kkuaozmc/ZVovoiSTzEEAgqrA5yrNUZc5aJqjM5PozDMp6sRDQXkQdF13pnkQzjEpBt2NFghA+NcPfhw//unjuHTjOpTAkr0ltLa2IJPNYs/e/fjC7R/EokWCRvXFF1+04gNWr15tnVzJpMj/Z5ojmRRrMaeo3RcWIJyNTIqOk8SUd25xPYiS6pnmOFcAIWiaY651LTo2/LrVvVTGzjTHiXJ2hWnpy5K4ugVh4vRTaCgOGrVFodSAaOfVZRrec0yKc0O1LNIcC2V/flCAcI5J0T2+xkuXnyNK8gYNC8KCIJgUf4q/++u344UXT2Lr5Zdix7N7MDk1je/e90Pc9YWPW4qQBEmveMUrcMcdd1jMiRs3brT8rDQ9seATCziRQKkeV1iAUPu36QP3L9Fp+k5YC4LpXX4uBtWCMB8AQf9mEAuC/uxcAQT9u0EtCOrzfi4G3lsPgGCaG0EsCOrzc2VBMMkcxIKg9/Pc1GKwSx0UIOhtPkeUVOkRnTpbjXN4uQAEt+yOs4Io6bHHn8C73/8JrLt4DV6x7VJcuPJ8HHr+KB55fDuK+Rnc/ukPWaO9f/9+qzgTi4w89thj6O7uxubNmy1/NuMQbr755nlnUjSZ64OABreqXdW8Y74Awny4GM5OquVKqdq5Agim+RwEIMwX1bJKW8y1EwQgnKNaNhMlsR/VYk21Uy3bSy+fczE4tbzMMKFuZwaTnnFwVgAEnizuvOsb+Oo3v49kIoHXvOp6PPjQI2hracR7//GvceEFlRri7MIHHnjAquS4c+dOy/RK6wLLYpJdkaChHldYC8JCcTGMDb+E5MxuVybFfNMmNLfXh0lRBzXe7GQlMOqWlh+dSXHi1KNIuDAp5opJpBZdU/bB19fFQPMu07VEdTv94iJ0Y1Ic69uDpAuTYrEUQ6n9CjQ1p61XzqWLQY2zcLoYnkaDC5NivtSAeNc1ZVM3rRBBmBQzrevQtaESWKkzKXqll/JbtJ4xA8hZzfEwGjLOiH72a6kURa55M1rbe6x+rmexJr7PKw2Q/SzJkvQgxbH+vUjmzUGGgknxWiSTouJi4GJNKXu5Z1MWg1tKrO7OUIMwR0/tQsql3DPljHXfWA5SNDEpBqnmGIRJkXOD8UYyol9NFfTjcZCBehwryqxmBfjpKtWtp8d5mMbNqTuy1nxWrRZqULdfarpsG79NS7me5cG1zb/9yjMpstN+8fAjeOyXz2BkZAwXXrAct97yOixZ7B5pXw8g4PaOsACh1iBFNRAtaPtUCwIX1MzAdsSQdxCflhBHsnMzGmaVk+mUOHTsacSGzEGKhXgb2i95M2Kz6Xq6nJKdzJRfK5nXONn1NMfRoWOIZ44bm12IL7LSwuQCEUGKkUoKYXYGE3vvdqbuzb4tsuR6tC8WTIwmRSGY58wAgVHQrkyKYwMoTe5nEphNbjqJ8mT4695QZnjTgxRLxSKG934H0dyIsc3Fjg3onGVSlMpIVW7cfPnfptQwjgEtayYmxYnRlxCZcjJWWml70Q609W4oy2MK+BvZcw+QHTXKHOnaZEsZ1JWqZFLUH+a32c9Mv2N7dIAwMz1mMSk62B8jTIpNoalnSzmQ2RikePDHKE2YN2u0LEd6zWvKIhEsqqx8IgWWrJ32VDnKLKxngqnPwaQ4MYjCOFk27XODHypEmtC6aIttPnNeqrweQ/t/jKhLFgNaL0B69U1lmfV+pi6QoNYEeNXTqAoQJsdOoTR50Onk5NxAG1p7N5T7QQ9SzOeyGNt/P6K5IcPciKDUfRk6lm8OLbMbkyLHgH1v4kThWDKwV64b3VRPoEFQ6qarVHIiNzN/tbrDtGBkmqWJG4Wycy1QL3kRSHGsTfwZfEaktFYqZgbdUxZEDIKgRjXzdwdtUL3ur4V4pF4yBH2P05/GCcLce/vltqmY0K9JBp2ARvq61XvlCVZ/XkW6BEPMX1YnMBcFSW68nvPqFyoL/WLut3MBOmM9ZM6/+jwXqLop8/1sr6qsqJwEjbL9qpYLQ57S9eerIfqRxFxe36aS4CmqtbWSblnNc8H7uXLC83rW3M92AinOA56uVHIn0ieTdyB8P5PTQee5cD99qd8xjbEgvSL9sogZ4j3cLFSZa50bpvnsdWJUZa52jPUTuOm5agm+5KZU3Rp0zhLzt+1rkE/pTIru+qYyPpw/am0F+fVqdBXv9UoZNM1p6h0T/bOTBdKspwl4JHChJYOudRN1NmWT1km1R02g1rQuXxZMivLkLSeImvPqpWzO1G9hAcJ8EiWFZWHkwqHeDEvjGdbqUQvVsu5iCDIP2F6ObzhWwgyy2ZzlIgl6CUrxClFSkOe5PsIyKZoAQrXfnl8mxUm0t4dhfyTIZLEmQQQW9Aq/9ovgZhuGSdFElBRE7rAy8xtnC5OicAeR18BsKfTr7zAUyaZ3hkllp6WDFqGwOtqrbV5stAvCgkDheVr42Cf+Hdt37LNOven2Vvz+77wVr35VxYzmN4D1/D2si0ElqAkjTy0LXXUxcDGMDh5GLE9znz0rohBNo7VrZRndGgPR+o+jePoxQxMiyLVvQPeyS4ymbT4gefRNJ2j+Jk+yuothcnwYhckjDpNsiSbAphVoaRM+Zl4EkjxJyQVDBTty/BnEyBCoXaVoA1IXvAaNTYIeme2VVUDlrbS+8NJqCFnAiYDCjUkxl53B5PAhxEo6w18JxYZFaOtcrjDPESBU6KEpx9BL+xEbIsOf02oSXXIV2rpXuMrMNggCGWdBHoIYubnqMQgz0+PIjB1FtGQvfMR+RvI8tHVU3HqmYk1Dx3cgOmoofBSJoWH59WhuF4yVvHSlSpAj3UP2YRJuBenK0V0MNF9PDB1BrGQn0iqhhFK8G+3dFfZHY7GmvqNA35NAyWnuR+8VSC9aVRZHD7plH0h3jj63eK8EBLqLQcyNw4iVxNyqXBHkY93o6KkwTpoo2odf3IPIEOOI9MfjwKJtSPcsd5WZeoRymzYUfkulClddDNnMNKZHDiKqFT3j7CzEetHRI+YjL2kdkevcms/Hn0XMVBQrmkBkyZVo7xRxT7xMRbFoPeTJW72kS1C1gKkxCMJyQ5eKqZhWxrLouG2sQleJomdeY+schMpfhO4oOfQhdQcPjF607GwbQSXBrG7don7kenCzGkgJ2HaTDpDBtmEOQvLdCwIgMI3o3e/9IHY9dxiXXLwK42OTaEg0oK+/H//9D38Lr3/dzeXRePLJJy2luH79euv/+/v7cfz4cetEd911ZqY8r8F1+y0sQAjzrXo9owKEybF+xCaf8WBS3IymNsEtYboGnnsAqZGnzT9Gokhs/gskUoJJUUfEXn3HSSsD1XQmxbGTv0Qq4qRKtpRJqRmNvVe6MynOjCHzjDuTYrb3enSuutbYHj8mRSpbURkv4qjmONq/H6m8G5NiA6IdW5FqNNdt8GdSvASd699ilJnKhOPtpny8mRSfRaJwyvheMikmelhW2/307VnuuX0DOtdVmE/VjwiiGtYLMfcHwQRPM8Zyz8MvoGFmr1HmYimKYuvlaG7tdJ3Po89+GTFjlUEg17gMHZt/z/VZxk24Fbpim6iHeCp1MCkOHpytTup8dQkxRLuuc6294MekWEgtRvtlf+gqsxe7oB54qjIpjvc/h2TBhb2RTIq9NyAeN8+N6clR5HffgYhGOy6FzLeuRXqW18MkuDeTIudG3Fju2S/QT2VSlAGl8vt+ukplUjRZEILoDvlN1SUrXAfO6qbyXu6NBAkE1owz0IGOH5NirfvYggAI933/h/jop75kKeBb3/hqnDzVZy24Rx9/Cum2Znz9rtvL6IxUy7yYrUCyJIIDLlAOHtMc63WF7djaLQjTZWrPoG0Jm+ZoCqwMwoMwH2mOugUhCA+CbmqcKx4EUZ+CpWXFaSUID4KwelRq2fO/54JJ0WRBCJLmqCrVueJBkHEsqgUrSJqjKrM44TGuwEyXzXGUkfDOLIY9SObNtMXMYkD6GqQaK3TlfF7KHJQHQd+85oIHQVgQ8mUwGZRJUQcEc5HmaKrBwmBe08Wxp9tWWg9NMQjV6A49i0G1nKh1hUwySPcPrRTcE8/KNMf/8+FP4YH/fASXXLQKiWQS2UwW6XQbJqemcODAYXzpjg+hp0eYl3fv3o2Ojg4LFPB/RI8cACqfdevWhfY76oMTHiDUVqyploph4QGCMwYhCEDQ+86PfKQeTIp6NcdgAIExCJky62Y1i7weVMsiBkEGtgUHCOrpZ64AgqlYUxCAoG4CcwUQ2M90C6lWkCAAQZV57gACU20rcRNBAYK+2c4FQOB4sq9lNcegAEGX8UwDBNMG7KerVIBger4a3aEDBPU91QIEt8PiWcGD8PFPfRYP/Phh/N3f/CkOHTqKa6+6Ao8/ucMKBvve93+E//j8R5FOp/Hwww9bxEh33nmnRblMQMAiTTRLnj592mJZpFWhHldYgFCPb4d9R1iAYPpeEICgEsvwXX6Lrh4AQZc5CEDQn61mkdcDIOjfDWJB0J+dK4BgPNU8+UlE8+aiWjoPgvr8XAEEk8xBAIL6/FwBBF3moAAhyAGHp37GeclgPdXFMHp6Nxo9eBBUoiTHwWB8CEF4EPTnzzRAELEMIu1RXn66SgUIZh6EnAXs3Epecxy9eBCqBQjuPAgscMbsoUqb1H6tJaaN71kQLoaf/fwRvP9//xu2bF6PN99ys7XhT01N43v3P4jTp07hK1/+tNVmuhN+8YtfWMFXDz30kFWkacOGDZb57+mnn8ZrX/vaeQcIphzsIBu+bq4P8mxYgGAKUgwCEF6OLob5KNaku0WCAASZiqUGhM2Fi4FBVgy2UiOdg1gQzhVrqs7FoLsmgwKEIHFA9QIIusxBLQjnijXBchN6ZUSdY1KcDXL71L99Dvf/8GGkUkn81q/fgm995wdWNPtH/vf/xAUak+LPf/5zXH/99Th8+LDlZmAQB2sxrFy5MlRalGkTDmtBWChMiqNDJ5DK7HHFF/mmDWhuF7XZTaAmCEDg5qWS9fixk7kxKU6eehgNkWmjzPlSAomea8s+2voyKXqfAhhUJLgjoo4gxfH+3UjkXzTKzOC5UttWNLWcGSZFf/MnT0txa41wTGS0/fipJ5EomchsAJaoZhlieSKqJ5OizrzntOTQNVAyMilODj2PeOaQsZ+ZfZFtvBRtaRF0W08mRWGpYaCYewyC9E0HZVIspa9GY6MgsQnMpJjsRfuWSrnnIMWa9G/Zyj2f3u3JpKhaEOrPpMgYm6RxjHUW0mBMijNla4lu7fTTVexXGaOg6zk514JaENT3+AVYSgChyy07SS2Rbuq4XwkLAhtGJfbgT36Gnz70CKZnZrB8+Xn4jbfe4gAHQU7UtdwbFiDwm6aJVK0sbhOhmuftTIoZzPQ/iRjsqWx8TwFJJDo3I5lyz+UfeP4xpPp+avhsBJmmC9G+/q220sMqQOCk5H+b8mu50JnSY2JSHO47MBvUpZHZMF0utgTtvZXUSt3qkc9OY3LnlxHluYrkAAAgAElEQVQzsLiVIjEUz38L2pesLbdH7WeZESDrvuuNphlSBqnRDMpFKTeMidE+YPI5RGEnpLJY9tCGlt7NiMWE+U+XuVQsYGT33WiYZBaEM80x03MdulZXMnNMrhyTf5N9LyliTUyK48MvIDp9yMjwx/S71t5NZcBnsi4NP/sVNEwdc8yNUqQBhSU3In3+VmM/8488EQmF6yxIRpmZlWFiUpyeHEZhdBeiyDm+m0czmnsvLzN7mmQe2f+AxQyqsxoyWDCX3ojOS97oKrOMc9IDxCinzHAxMykOoDBGmZ2plflIK1oXXYFIVKSoOuYGUwafuw/J0V2Gfo4h37UVHWte6SqzZPczsWxSZsmyyReoaY4Wy6aBGdTS0UijbfFmhVGyZFmX5DdyuQzG996LhMXSab+4BrOLX4WulVd49LNgBDQzgwqWTXmpAIHrkReDf/VUQYJF/l1a3lSaYz7DvuC4mtIgCY4pj9RjJt0sdMekK7cC57QOLtX3UB/yfwRGuuySQFBmyKjMsbIfZCCliQVWBjar/VbNPqLesyBcDDJ4S220aZIEbVwt94dFXiblFESOWgCC7k9jv+ayIkdXvRoSTa4+q/IYFIuYmjBTpqaa220MYSbiD/6Npkz7JRjRJHOXTpRkTegM8+TtmwBP7gQz6pww9XNmehKFnM5HICRobO20Pa/3s1xM+iLltwlo5LepjHSipGx2BoW8DsQiSCSbbSDJJDPHKDtlpi1Oav1slpm1EvQNKGLJLJWeiSgpm5lCoeDs50SS9MwVSmGTzNnMDPKZSee0jkTR2JL27Gc+RJClyyzYASsyy/x0NXuAG1BeG1/CjHii2Zb+apKZyjYzaaa0TjanbeNkWoOCzldncRQsjOoGojMpcr4U8vY5yTnFNagCaPPcyCE7ZUj7jUSQak7bNrVqZdb7meOhMilSjhxlLtjnM59LJFts3zTJTO6H3Ey4uWF9Oydok22blDY3LLCSzdhSRM36RrBzSn3D90pwpL6f33Qyodp1Fe93OzRWqzvkN3XZhcvHCXxVYOOWxcB3sl3C0mfX81zHXgGSUp4Fz6QoFIZoHAeBnUXUFJYJLciG7HZv2FiA+Uxz9KIC9eqTWkFNWIuJBWByuXI2QZBx0/35QZ6lvGEZ1bgQGeDllhrlBXKFEiLfvpOUpRr51VOT33iqYIr9zGfDnCREmmM49kcJBtzMxl5tYF9Ji0I1faPeYyIdCvKOWtY+3T5exDhucgiZC578E15tqIXlz4szweub1HWytkqQ/pX3hj2E8XkTvXs1MugWhGqekffUcnhTvxPmPUJuWpuclrcgbTDd68UsuSAsCBSai/Kzn/sSHvrZLzGVyWLFssX4H2//r9i4Yb2jTeqGJP8ddpNy69ywLgbKwQngRV/ppxjDPutgUhw4hmJ+gvZL2ydjiXa0dVUY/kwAYWp8AKOnzQRAyeY2dCrmer09bD99Z6aTLU+1ki1PZ1LMZbOYGD6CUsFeTyESa0Bj21KkGit+YH5DNbnxv4de2IVc3onEo5EIOpZejERK+HvZXi44FTlTwRJg6Re/0djYWFbcuouBSn1s6DiK2Qnbo1ZkcWMPWhRWQXkyUs2ZQycPImOyIESi1hg1z1Yo5Mv1IkJsA83DpvnCtklAoMcg0Ow6MXTUKqWuXpFoA5LNPWhq7Sr/2V1mnmx1V1AE7YsuQGNLhbBIl1laM/RTIvuEFgSprHQmRcu/b/Wzlj3BCn/JdrR1LvOUeWzwRUyNnCLvojbEEbSkF6G1q/K8LjPnC/tZt2oKJs9YOchMj0GghWZ88DiKeY1JMRJDPJVGW8fSsixcK2QRtAWD9h/H5Fifc04CaEqfh7auCiuhvvHJWhb6qVJWy1QBrupiyOezGBs8BhTsc6MUiSPZ3IuWtsrcMOm6oZOHkJlyWmrYV229q8rxOKb5LOep3mB+h/NCdQGqYJm/03VluvhdmvjdLNJCV40bawFxbKWu8tLZ1AmZzLSuZq1vioOuOa5CvpMWHH09yN/IAulnTSeQdqvZQRbFamvCGPvvfd/rL/3VTaLkaL0vdlxnpzu7mfweG/e/3v0v2P7sASxbuthawvlc3hq4d/7FH+DGG64vi/bggw9ayn3Lli2WtaGvrw/79++30iDf8IY31K0JYQFC3QQI8SIbk+L4AGITZFJ0+j8Z1FVq3YLGFnNpbC64wX0/dGVSLNHkf9k7kJitBhkki4EbKgs0cdO1MymWMHbyCaQiZjNwptSK5kXbXE/fOR8mxUzv9ejyYFKkwmlqMlc941wQhVJMTIqHkMo/bxytQimBaMflNmCj3mgxKW7/BCKaMpb3ZNrWo2v9m11ngqrY9ZtUgiNHkGL/HiRcCHxypUakeq/ydEF5MyluROe6W4wycxOcmJh0Vbo8UZLylhYWHSBMjryI+DSDbp2xGsVSfLastnvdBm8mxRXo2Pw7rv08MjKMdLrD+Lsa8KcDhImh59HgElhZRAPi3Qy6NbMSCibFryM+5VLdtHEJ2jf/gavMXtHx1MukM5bfVufRyKm9aCy5MSnGkei9DjE3JsWJEeT2fA5RFybFHJkU19/muuF56VyuT+HqEzEbKkCg3uPaNW2kwvyftXz8wsXAoMPKOvcKUqSuorVQWsBM8lmuK0/d4WRKVGUXrgMyJNorhbKNEvgwuJiWKQIkE5MiZXCz0nmlcVazxSwIC8IPHvhPfPgTn7cGn0yKp071I5lK4tHHt6Onqx3/8YVPlAf/3nvvtdrFCoBbt27Fvn37LOU9MjKCm26qX92GsAChVvNm2IJL7JNgaY7r0ZIWpybTKTFIFoOeH+yXWywpglWAwMU4eeqR/5+99wC36zjLhd+9z66nd0mWZDUX2ZZkSbZcJDt2iklCQigJIUCABLhw+eFCKD8/cOESLpBwQxLITUwqJCGJYzukOcFxqmPHJbZlW703q0tHp9fd/+edObP3rFmz1t5rnaN9jpHW8/ixffYq3/rWzDfvfOX9kKixioG7YI4XteMKwoPA99UZ1arxINCdyUWLk9P0IAyf24ZU8Zx1rgkK4NZNaJquYuBzeKia5aBljnqzJhqP6mWOObF7MAHC2LmtiBf7PUBNHNHOzdpOPid2tnq4L0iZoz6PdHBoe7iMw7KKIeECCGMDhxDP2IGYu4rB3awpCA/CbBEljfbtQSJvX2zdTIokSiqUd5tByxzN8GJooqTzu5AunvZcO8wqhpkRJU04GqbVgwfBDC1Ws1V6pZC7C6OsmAlaxaDnbFUrc1T5IV7Nmi4JoqQPfuij+M9HHsdVq1im2ILx8Qm0t7ViaHgEL710Ap/55AcEtTIPAgIaPQIEflzSoCojeO2114aKZ9tmQ1iAMNMchFrjzDaZgwGENWhul2WOXGz4j45OgwAEU5Zqk242iJJmSrWsdhWUvZZJPhtESSoRqpzUVshhfOuHPLnruePqmOauVwlcyl1ZG0AgSUtiRgBBZVLr4ZggAEH3LtWLKEnKXHR4QYIABF1m6vnlQLVsevFCA4QAREm0ddS1cmEH5UEwAcHFBgg2m1nNVlUvJQ4OEHQ5qgGEap02LwmA8E8f+ii+/f2n8K7f+w3s3X8I69ddj/0HDiPa0IBvPvw9fOYT7xehisceewyrVq3CN77xDZw8eRIrVqzA0qVLxcJGJsXbbrttzomSanHbXKxzwgIEmzxBAEJQD8JsAART5iAeBPPaegEE87lBPAjmtfUCCLaxEQQg6NfXCyDYZA4CEPTr6wUQTJmDehDM6+sBEFwbg5cBk+JMPAg2AFOL7TArCfQEy1oBggyxuEtALwmA8P3vP4b3/fMncefmW7D59puEF2FgYBiP/ejHOHbsOD7/mQ+LsXj27Fk8++yzYre7d+9ekUlOrwFLoXbv3o277757zgGCiaqDgoG56cUwMw9CkBwEubBJ4pngIYYt5bjp5V4MtYQYZu5BkH0NJHmROoIAhLnoxcD8C72vAeUOAhDmqlmTDDHInISgAGEuejHI8jpZw88jqAdhLpo1mTkIQTwINtAVBiDo46tWgOCVg3BJAAQaoD/507/Cjj1HkU6n8Gtvfwvue+DrIk78N//zD3DTTRsc6+zzzz+Pm266SSQo8gMz0/T06dPCu1Ct/KzWBTtsiGHeMCn2n0Qq68ekeD2a2mQ/eU50fgM9gzqIByFoiME7B+EJJCJ2HoNcKY5E9x1lAzqbTIq8F3XgzeLmzaRYLQeh1HoLGptl8pzJBhfEg8Dvo8iP1DerVlKnPDuuHISzWxEv1ZaDMJtMitVyEPQmS2aS4uiFg0jk3AQ81AVzEHLp9Whp7xV6nm0mRb8QA78LFzom3ZpJiqPndyNRqI1qud5MinyerRfD6PldSAbIQVAl6WEAgplv5R9ikPk7CqgGYVL0s+XVAcKECGd7HbXZjrhnYma1ElOdo8Img2yR7t2LYSYhaz5vXiQpUhC+6Je+/DU89fRWZLN5dHW24Td+/e245urZab5UKzBQ54UFCEGfM5vn64MtMzWB/MAziEWcJYPCgJbiaOi42TO7nuf0HXwM6QtPWsXLJ7rRvO4diE1nYJslVlzIdAYy/SZyQDeIEkOzimHw3H40lo6zxsL13InSArQvutFzouUy45h88V5ESyY5k7xVbskb0bF0nfV9dK+GeYJ0MY+US6VcSYqDp5GY2oMoTBIdYKrUiqaem8p6Mu/NBXP0xX9FQ/aCVa5M5yZ0XXuP5xDh92YZk40FTv/NBAgj/ccQzx60MvxNoROtC2/2La0aev4TiHnInO+9A+2rKlVHpvCsCGBWti3jnHpmaSbfx1XFMHoBkdHtaIi4v2+WlRc9t/lyCAzt+jJio/utusw1rUTHurd56pkAgRsPWzkpxzrzPGxMiuPDZxEd34VoxD02sqUmNC3cbP12AvSUSpJlc8yemJlrvxEdGvujKfzw8LDYONnHxrgANOo3vYphdOAlxDMHrNVPk8U2MTaiHjwe3M1O7Po8Yhl70u5U793oXrXZU8/0LLLCwCbzxATHeqVSQV/4CNB0AjbT3qiKDZnHI5lcdTtP0GEjC+Jc59/LidA5mfSrH0Fsh7pOD8lKAq6ilYlRsixmhU4k3bsbaPD5XnkSvG+1TUS19WdeAASVJKeAAhWjU4FWe4mL8XtYEg9bwl8Q+cISgPAZJq93NjMOltKZR7QhDjLmqUPVSutGu5DPIT9lYXHjRQ1JJNMV2lMbsYxkNnMaRtIPK3YvsWjncgIYqmYllCMzNeribeB18USTwzCZPAi839T4ECIltzHmb4nGdkSmS4n4HLOrm3KXKl0o3chOabKCgYdkUsw6yHCyU2MWlj0gFk8hFq/UQNuqRXhtycXCKJ8eS7U4SspMxkpVwmXKzGtVuaCUOSt2uYqVUBjKDGV2M9ZRZr2MzSZzZnIEMFgYlb5iqdYy5TH/ZuanqGRLVkboh6lnyaQ4DtaBq8M6ngWldxzxRKVU2+YRI8NfMWth+AMQjTciPl2ya5NZ6dCmLwV2eQ5/J8hRPS+89CymUDyBeLwis40HIZeZQDFn700STTQhnkiVdUOvid7Rz1vP1Fdl0eMN9EQ4rzlI/oRYIu16BkGuTvyVnRxDyWBh5DPo5YmnW8q04zY9U3/S+2Pwa0Qkq6EO0Exvg1poTVvHa9Sibitz9P62skGZrlOvTWOttqM8jq0skG67xTmhwIxXiIH3pJ1VoUBzTtXCpGgDZOo+8wIgMC6kjJzippY1n7PPGmUOIK//Z61+MmmvUfa7x0yrGMICE8oU9lo5IZ1VDLXqSUx+wcce5Ap57kyZFGm0JLtYsEMurGwMUzGwtd5Bjk8yKQbnDsnnJZOiH7WplxwKDIRhJZRMihlfV6nXc6XhkYAjzBGW4Y9Gj3YhHPsjWQmLoQliZjL36bL2687npcOZlkeHlZnyVGsY5CWzXNCZN2FvNVxtvMzE/W2jd6/2PMkX52wsV+0a/XfOwWqkRbXcL8x95PoYCWVnq8lEL6TXMS8AAoXjAP/Phx/B40/8GJOTWfT2dODX3/HL1mZN+q5ElbtxsIYxvF6KmasQQ5jBo97BZFKcGD2LgujF4DwaEk1obOktk47YdDA5NoRM/0GremIti9DUsdjR0EefOIpnwM1vTg6AWJkRzc2kOIXM2FnXbpz3TjYtKDMh2oTiDmz4zD6UcvZdYvOiNY5dpqln2ReiQvmtniE46BNJLfbpbNZEDw31XDS8ALwulmx3sAravu3YwAnkRs9a9ZzuWolUs5O5zuHlmV5ETQ+CeHYsVgZALibFXBZT1LOrF0MEiXQXko2VXbtN5tHzh5GftHeDbOq9Bom09/Wi90Q2Y/FekEkxXt4xuZkUC5gcPYeCZUdNT0tjs8w/8JzPw+cwNWQnHUq2XoHGDlnyK5YQYyFQO08b250+ns0cBHqpJq1jg064TjQ2O8mXzOeOD5xA1mNspLquFn0vvGT20rNiUtSBph5iKOSzmBw94/I8ih4O6W6kGp1dLXWZ+d/j/ceRG3ezPwJRNC2osJna9EzvAdcBrz4demjAZFKkvXb3ypD2hhsBNW/4jfQds/y2Ux7Xxh2uf/NapXt6fTnHbPOQMptkWKbO+Hx33xp6W6MihEjZvZ5NGVR/GBezKQntkskZrYvzAiDw5d/9N/+AJ5/didaWJrS3tWFgcAiFYh7vf89fYPXqa8sT4aGHHhIf4tZbbxUJiixv3LlzJ7q6uvDmN7/Z10gE+fHlDhAmxoYQHX3WGs+nHootNyOtLT6mbqolKSY2/mFIJsWimExMkHIzKW5FKmJfeDKM5wsmRTfjGGXPTY4gs+0jnp94qvcudK/aYjWoXq5HdTLde2qimjkIQ31HkM7bgRRzPWKdt3h2zRRMioIHwd1xk8/OtK5F1w0VVkJzAfFLYJJVHrLDnYtJ0Sd5jp0RyaToR/ftV8WQa1uLDk8mRZnPoYcN9A/GOac6fZoAYWzoNOKT7s6GYiyXGhDpuA0pLexlDgT/Koal6Fj/K55jZ3BwAB0ddkZYmVwomexMgODPpBhDvOcVnoyVvOforvsQm/BgNUz1onVDpd2zXBwqbjzG8716QkgmRQnIeOgAYfj8HqQK9meyFXjSh0mRIb7sLj8mxavRfsNbPDcWfjbXXfEwVQbA1TwgiuCI34c5I7pXyp9J0dlrwpbQGMR2qAGmgxu/fC3Od5Ug65VvpMIb/6WZFH/w6GN47/s/LgY4mRRHR8dRLBXxoyefQ293Oz73aVnmyOPrX/+6+DdR1Wtf+1q88MILWLBggahiuOOOO4JgAN9zwwKEeVPFMHASqYx3FUMuXSFKkjsjhhgqi281gBDf8C4kU9I1ZaLbapnBs1HmOJtVDLWUKs0GUdJsVjHQeFwcJsUYop1byjsnysxnhWVS1MfCxeRByDbeiNb2BWI81rOKgc9Ti4wJEEb6dk+3L3ebGpNJsZ5VDLJ7oL2KYTggk2L9qhiYbC27ZwrwnKkAhGpkQsqWy9wjZw+WarZKTwC0NXqqxXaYeQD6fWqtYuD4IGg3QxyXRJnjP33oY/jmI49h0YJeLF++BBf6B7GgtwsnT5/DuXPn8bl//Sd0dEh33MGDBwVab2uTbszBwUHxbyItciLMVgfIsACBg5D/+CV++CETM6krCOIJS5SkXGP64AsCEEwZq0262QAIpsxBiJJ4LY252iXXMslnAyDwmdzVKz75IGWO1LFuWGoDCDPnQaC7l+FPfTwH4UHQZb6YACHTeCPapgGCTeYgPAimnuvBpGjajaA8CO5KoklPVllfgBCASdGUOSgPginzZSZFt7WvBn4uCYDw/n/6F3z3B0/jD373ndi+cy823HgD9h84Ivox/OfD38W/ffwf0dPTg+PHj+PKK6/Eo48+Kgw8QQLBAhEaXVCLFi0S3oTZOMIChNl4dth7hAUItucFAQhzQZRkyhwEIJjX1gsgmM8NChD06+sFEGxjIwhA0K+vF0CwyRwEIJh6rgdAMGUOChDM6y8zKVY0onSh8g10rpxqmxndgzC3REls6pRybTwvCYDw8Le+gw/9y+fw+p+4G9dfdxV6e3tw/vwFPPf8Duzeswdf+My9wrXy5JNPCoplgoE9e/YIhW3evFnsBI8cOYJXvepVc86k+HINMXDBCUuUZGYUV5t0s+FBuBxiqCXEMHMPwmwSJdULIFwOMTDscfE9CPJ75srhqKAehGBESbMTYmBoQm8bXc1W6QBhLqmWWdHDZGnTM31JAAQq/i/+6u+xY/dhtLa24Jfe+iY8+JX/FGGDP/zdX8M997zaAZA//elP453vfCcefvhh4UZjfTdd8/QeLF++POwG3HFdWA8CUarewCSoMLNFtTwycBJJnxyEfHoNmrRmTZSzXiGG2enmmBdlsCpvIogHgd+IE0sZipl5ELYjWbRXIbi7OUpOClVtE8SDQACn88jX5kEI182xoWtLmVVyNqmWZXVLxtP1redouJIUfVonl0oRZBvXo7XMpOimhw7iQTAz5MN7EPYgWbdujlz4KmW79QAIZoJcUIBgdqC8FEMMteYgeK0jlwRA4MtzcHzgnz+CZ57dgUIR6Olqx+/+zjtws0GzzHNVUpytrCTogux1fliAMFvPD3MfJ5PiOEqDT1kZ0XjvUtttSGnlbObz+vb/AOmBH1vFKEXjSG/4H4hNE7WY5E5+qFz3sJhVDANndqE5Ym81O4ketC3c4FmHnJ0aR/bFD3mqLbPwHnSt2OT5u1/W98gImRRbxLPNKobBCyfQmNtjvW+2mEaq91bENbIk/URWMYw+fy8aCvbSzGz7BnRe93pPmblwUS7boVcEuJgULxxCMufB0IcWNC283bfee2TrRxDN2Um0cp0b0XHt6zxl9qsI0Jn0XABh5Dzi4y9a71soJRDr3lxulWwNMWz/dzRM2GmP803L0L7ulz1lZpY/Ky9sNfAcD7IUNuGuYhg+g/jEDut9i4gjtfBu31LjoR33ITZ+zHp9LTIrwiZb+EFVi/A3vYph5MJhJHOHrM/MFNJoWkSPrZ0Tg+ytk7s+i1hO5oWZR6Z7M7quvttTz36LpWmPzUoAgn3b95FcDfny99HbvFOQaraKydvqfU1Ao17Ez3awaofVJLpsOhCiPDp5nK4cnQuEctpCDDzfSy7+Vq3XQ7V1Zl6UOSohRR3t+MQ0vWSjJzd+tZeajd/DAoT54kGgDrKZCVE3bhIXk8GNrGhq0NoSKwu5jGAmtB2JdAviGhOjmYPA+3FS8h/9UPX5agdt8iAIrv7JEUsddBQJsgpqhsls1sRn5qZGkcu4meci0ShSzZ1lbwOT2ORu3Mm+R6DjZvhj5nSi7NozAQKfSzbEQsFJaS3qxhONgk1RHUofOl9HPjuJzIR9sU01d5RZDaUHwekeFc+epmrV9UzPCnWlnmMCBOqZ1NQFFxtiRJRk6kyKNg8CwVhuasw1NKjnZGO7g0nRLE9Tu06TU4Ayk7WukjiaF0292ttlcrL4vpkJ5PPOXh1iTMXTDo4LvadDWfe5DDLW8UyOjVbHdzJ3suLZuaxoAOU3ns0qBo4z6socG8zGTySbHCybttBkPjOBzOSoW88EJI1tjutr1bM5B3lzHSCU6F0TY8MYz6wgsMhMXesldpwLuSk34GVibrLJHBuTrjmovHmmnpln5mRSrFQx8FzaEtPe8O+cAzqTolnmKL+tm/WV15IcTGdS9AIT0iPp5kGQFM9xR3UY72sSRMnnS0Iy/eD7qqR7P1p1FeoxN8yqR0PYhHnKMi8AAhVmvtxsLPIzuYeNPriW+3GwmPH8Wq5T58yEXSwsk6KtiiGIzGHPnQmTolpgwgx+ZfAZ0wt6SEOUE7wIQQ9FHOXHMeB3z7CshDNhUqTM1FdYErKw82imTIpzITMBAReRMOyPBG0c0/qCFGR8hdUzn1GNR8BLDspLucPLnPH1+vi9fxgmxSD6vJTO1TdK5nvPC4CgEODjP3oSj/3oGQwODuHqq1bgZ3769bhyqew4WO8jrAeh3nLqz3O46Nj9b2IARQuzYDTWhFRTh697k7va3NBRy+tEEG1ehMbWnvJvNBI6h4KK8dtAH3cSKlbqYlLMTSE3MYCS0XCJ18RSXWViJpuOufOZGDmP0oS7UUwpmkBj9yrHzti8R2UHYvpbJCthpf7aYFIsFjA1dgElC9lRQ7LdtyEWZZgYHURxlK5v5+6UzHPx9uVINtpDCLxWJf2ZeuZOhLsHRSXtYlLMZ5GlnotmIy/qud2T2EnpbHL4PArjZ1yfoRSJI9mxHIlpfgzbd1Kg0GR9k7TZlR2TjUlxanwApYLbQ9SQaEGq0clKaD47MzGM3NBLgu/DeUQQa10Kemv8FkIbyybPJ0BVejY9CAwhTVHPBbNDaQTRRCvSPiE+3ntypA+FMUvILdKAeNuVSBqshrr8XmODepYyV8Cxg0mxkEdmnOPZHBsRNCTaXEyKps4mhs6hOGHJyYnGpcw+ZFYE3uRnqDY2+EwzT4Tg2WRglLJFhL2h50R5NvWGS/62itdWvIxeJeiqPYCbbt5pO5SuzDJaKbuku9cPwSA7zQJJ3dAraAujcH4rYjRzbHs1oqp1nZoXAIEK/sSn/h1f+cb30dXRhmhDA7KZLEia9/73/iWWLbuy/D79/f1gTHjx4sUCcQ8NDYmqBipu2bJltb531fPCAgSbu77qw7QTzKYrQa7VAcIU3dbDz3jmIBRbb0G6qeK+FVNJG+EX9n0HqcGt1seXIjGkNv5+uVlMkDJH6UplTDDpYlIcOrMNjREbTSswVWxHy6JNZVe/5BQgN7lkj6PLO/Pi//VUV2bBq9G18lbxO7+RTpgiQ1vjnhz6jOOx5as1B6HvGBrzHl0Ci0kkum8tAxvT68EFZOz5jyBacNNhCyPYthZdGiuhaaD8mBS5oKmmPK4chL59SOa5WLqPHJrQuKDSZdDmqRnZei+iuWH79R3r0bH6J8u/mcaQXQbb2/az9FYAACAASURBVCsUwfpN+A3Y7p1g05WDMHwW8Ynt1mcW2J206zYkp8NekgfBSfw17JeD0LgU7TdWmBRNPVNmJkLbjLNOJGUChLHB44hP7bXKXEQMid67y25zyqtzc4h77fwiYhP271RIX4G29e+w6pl/9BsbXFz1EJQjB6HvIJJ5e1vtfCmB1II7yg2XTJkzk2OY2vVpNOTdYRHKlO3YgM7VlZwaU89++QC08QQ16huYOQheHj3dW0idBmNSZBMk9pqQPXls8gWxHepjOWWfFJsPm4dO3ntM5DB4hRhk6JHhUntfmbDeISXrvAAIj//oKfzNez4sstLf9MafQH//oFDYk09vRW9XKz77bxUmxQceeEAMktWrV4sFhsZv3759wuj87M/+bJD11PfcsADhUixzNBVZrXTocpmjZIMLWsVA48bWrwrkVGdSnI0yx5cHk6JOlHS5zPFymaNuk/xseTVb5dVKWd2/lgoov46K1ZIILxMlAfiXj/0rvvz176GttQU3rrseZ86ewxWLFuDg4WMYGhzC5z/9oTJz4nPPPYcVK1bg2LFjoiU00T3/TXS4YcOGOQcIynjbdhu1CEdEGPbauSJKmguAYHLPBylzNL9RLZN8NpgUTT0FAQimzBwn9QAItvEchChJH8/14kGwyRykzFGXmf8dvsyxdqplU+agREmm3ahHmaMpc9AyR1PmS7HM8TJA6LQ3OdGN5T9+4CP43g+fwe+TSXHHHty8cR127d4vmBQf+fYP8K8fex96e3uxd+9ewXPwla98RbgQlyxZIlx0/IehhxtvvFEwLc7GEdaDwIVLtj8O0f/Y0tcgyLvMFUAIEmKQCxvL81odIQbmMYyffRKJiDvGTB3QvZno2VLujGYmVgYFCKpUVtw7zyziomfVDN9vNgCCKXNQgKDLXC+AYEtgDQIQdJnrBRBsMgcBCKae6wEQTJmDAgRdZo7pegAEU+agAMGU+WIDBFuIIYgHwXZuLbbD9CDoIYZaAYJXiOGS4EF46Bvfwr2fuA8/+6bXYt3a1WhuasLo2Bie+vELeG7ri3jg8x8VCy4bMx04cECAgxdffFHUgN9yyy3CsO/fvx+vfvWrLzMpNjULTDEcsFkTdRqWSdHkVK826WYDIFxmUqyPB+Eyk2J9PAjzpllTgF4ML0cmRepZT1KsZqv0EIMtPywMQNBzL2oFCLR33KRcks2amHT4Z3/59zh4+CQ6O9rx9l/8Wdz/pW+IRky/899+AT/1xjc4NtIPPvgg3vrWt+Lxxx8XSmMCkerFwOTF2TjCehDMxJ2gssykfEf3IMxnJkXlGterGGrzINxRntw0TsxZUY2PgngQzGxmW8xa/27+HgR/JsVS6yY0NsukPHeSYm663bOZMS6fnmu5Bh1r3lIWRR8b1ZKjxPW5MEyKMTR03VH2ptjKdoN4EHSjqjLGvcqq/JkUDyGesZM7lRBBNl3p5miTOYgHQTfgtYUYJK2xmaQ40lc7k6IsGWSZoyQhCupBMBevsB6EkfO7kCraycooV7TrrnJyMpNB6XlTMgf1IJi2zt+DkBN6mUk3R5stDgIQbNfXYjv8chBmzqSYFXbQq9Q0bOm7etd5kaRIYQgSPvihj2LHzoOi2COVSuDXfvln8LrX/kTQNXZWzg8LEGb68NnKQZiaHENp6MceVQwRoG0TUo32bHK+g18VQ7EhjfT63/GsYqDu9IxjXScqiZO/m0yKrGJIR/qsKsyU2tGy8GbPLpkkSZra9lFEjBJJdbPcolejY7msYuBhxplNXnhdCJUJbKtiGLrwElK5A5bSLIZFkkh03eJZnimqGF78mCcrYaZ9A7ocTIqcGZXQlWJpsylMgRp6hcwqhtELBxHP2UpYgRyZFBfc4iJ30Z8xsvWjiFrZ8iLId25E+7Wv1U6vyEydc54T0HsZa2ZjU2azimF85DwaxlnFYJYpAsVSHLEuVot4c1P4sRLmmlaiY93brDLzj8zyZ0jMq4qB59iYFMcHX0LDlL3CpYgEkr2sCLCzEgqwset+TybFQtMytDnYH51jg146Lz4GLsQkAVLPdlYxHEAi78HeWEohveD2chWD+Q0zk+OY2vVZNOTtBGu5trXo0KpyTFvHxZpAy3aYJGFmFYMqBzSvVZsB9X3cVQwka2LJpzskLHlLyAEik4q9qhj8QIayK04mxQrJE1kQ9YoSXX4ZEpkU1VVeIQYJurOe4VE9sTnM2jRvAIIy2nxh1sImEmSgioZ5p1m5JixAmC9VDFQCQYJgJjQ0kkq3IZWW2fA8bDuuQj6H4QvHrbpsal+EpFbrbvN6UH8cuPoh63qT5cFs8iBwRzI2ckGUQepHQySCxtZeRwjEDDHw/NHBsyD7nO1o611WXvT4vpyYqiKA5/O7cTKZbHnkE+B5aiyaTIq8dnysH7lsxvWuLCNNTNNR80d9h6xOZjnq5MgFq8zNnYsRnyZzoqEzJzv/RgPEUiz94I6ChlYZNjeTYhET44PI55wyc7o1NvUgFpcGUcnM5+ht1MeGLyA3aWd/bOle6ss+pzwfijRKPYcyU89eTIo8b2J8BNmMk8GRqT7pxnYHOLDt6liCNzFsL6FNt/UipdXn2+Y+9Sxr9CsHZeZ4VoRbpgdBfLPxIWSzzrwaIXNTl4MkyAwx8ClTE6OCC8F2NHctKefj8HebzAS2JrsgZaYHR3ez6wBBLErjg8iZY4NzsLnbMTbMEIOQY3wYU6P9LpE591t7rnQATxOUqxwBczzzWiai66WAJqEcF2nF+qk/nIBTcT7w/ibVstJdNVslvseUk/lRPadW26HONz0lzCOYmlJcCBXpOecUYFKbLtuayPembTBZYGOxBkHoNpN1dF4ABL6cSnixzoY5+GNYZjK+Bxc6nTgoiPhhn8tnhGXasyV1BZE57Lk2A1PrvSQPApNBg4NIvi9BSBgGOEWL6sc+5vUONk6BWt+X54XlyKAB4bjS29zW+lwbeKz1Wikz9WzfJfvdh2ODxlwHcbU+d65klkyKk4IzI+gxVzJTTj/vmd97zDScGnY8z2QuBP0ul8L5fnNsXgAEfgQOtqee/jGeefZF9A8O4ZpVK/CGn/wJdHd3zck3CutBmBNhpx9qxrMmxgZAN7Z5RGMJNDZ5hxd4fi47hfFRe9OVWCyJ5rZKdYq5CPBbMvbFvALnIdnyvJgU5e6lH6WiySgGJNNO7nnzncTOdOgcCsa1PC8SKaKJHohpV6HtGyk6YtOFTfTNHaLa2dp6MUxSz8a7ErzEEo1VWQkZtzW9D1K+EtLNzp2x+50lta/7kBzwatdv8yCQlVABlvL1ESCRbPZ11YsFZbgPOaPPhtAzSkhVkVl6b0itbjJHyt24AhNmiEHtxln54Tio51jSt/EYz58aHxZ9EZivYB70hqWa2nynLvVsysydLd3D+g6Vdeuqf4R4V5ue2SMgkUYq7c2SSWG4G89O2b5vCck02SO9r5dzcNL9jdkHIhF3eB+cHoQCJsb6LZGcCOKppjIZlZeyxkf6kc+5c2qodY7neNIeQuD9JCi0MSLKZli618NkUqS9tjEp8vsoe0OdcLeumC/VuuOlJ91W8VyvDZgE4G4PgOg/kazYDqUzs7kd54MKZ+h65fUK1JtEUfp5ksnR3QtCstayRXSD79j2+3FeAAROpM9/4UF8/oGH0NzULFwidOd1djTj3X/5Rw4mxaNHjwrWu5UrV4rdycDAgEhm5OBZs2ZNaEWYF4YFCGayUVCBZtKLwcGkODmK4uCzaIi4AUKx1IBI+83lHATp9SDzXGU3fmH/95EaeMYqfiHehsZ1v+GTgzAhJqHNtSXd7CVhoFw5CGd3ohGkaXXHmSdL3WhduKF8T04oGmj1DDIpTm27F5GSCUrkK+SueB06lm2US69hKPwS/vib6tZmz0E4jlRuvzXXI1tqQrL75nKYwezFILo5vvgJNOTsMVs9B8Fm3Gyd4tQHo1dOARt3DsIhxHNHxIJuHplSK5oX3lrWq63BlC+TYtct6LjmNeXb6kaV7+DHpMjk1cbGtJVJkTkI0fEdiML9fZnrERc5CHLxkf0jnH0NhnZ8EbFxj7yLpuXoWPdLZZlNL57KQbCNZ85XGmJrN8ehk4hN7rWOjVwpjfSCSmdEykzboTcWGt71IOLjdlbDQstVaFvzVque+Ue9A6nbtnFsJOw5CBeOIJE7ZB8bxSY0LbytfB3lpSeOc1ksoFMTmNr972jIDljtRqbrVnRd82pPmenJoEvcluvB8ax3bNTtpOx0aF8IOX4pp/o+ZmiR9/WzVaq5FYW2rQn+ycKsgCETYrPRzVHPQWA3Rzl+zEPvR+LVzdErbKLsXDWip2rr07wACM8+9zz+8t0f4FYPb3rDPTh56ixampvw9DMvYOXyRfi///Se8nuwgkHRKrPMkVTLp0+fFkjtjW98Y7X3rfn38ACBVMKViV7zA6dPDOvu4+WBqhga16CpTVZ82Fzf/XseRnJ4m6f48Q3vcuQh6CdWywz2KnOcOPsk4h48CLlSAkmNB0Fyj0uPBI8gVQzmpJLx34Jnog+BDJ/DiWx6EEbObUOy6O7/IPRaikKvYjAX2yA8CGpHqChlpWGSNKxeh3LhmgBh7OxziJfsRrxQiiHauaW86+I9+Cy1CIjF57kPI+pBp5tpuR5da36mLJI+j6rxIMgYMudOwk213H8I8axHFUMpAieTYmVRUIIEqWLQM78VQGSSou1Q3jJbFcNo324k8vYW0yVEgQ7qWSZWcqGlflQ+Q9AqBjNbnQufF/0wn8UNmNpZKw+CAHAByxz5zZQHJWgVgynjxeJB8GuHXM1WVVtga7EdtvJENZaqlzl6J/XyHhwnonOsljekj9OZbDh5n3kBED7+yc/iwa88gubmJtxy8404fuI0Fi7owb79h0RM74v//uEyT/62bdsEk+Lx48eF4VJ976kkEiWFJSgyJ39YgBAUEMzm+XNFlMQFV99dVZt0s8GDYOotCEAwr62llnk2iJLM5wYBCOa1cuEaE1wgXodyZboAwrmtiBfdiWRioSrFEe3c7MntHhQg6LJVAwi6d8nVi2HAp8zRAAg2fQQBCPr11HM9iJJMmYMChCD2a7YAgvnMoADBvP5iAQRly2XuEbtPVnJiqtkqHSCYfC+UvxbbYZY56vepDhDYB6RNAGZuUi5JHoT3vu9D+OGPnsN//81fxvMv7sK6Natx6MhLaG1pxre/+0N84t73YtGiRdi6dSvWr1+Pz3zmMyKscN1114ksTyqur68PN910kwg9zMYRFiDMNHFntngQghAl2ZIUg3gQ5oJJUSYpas2aJoeR2Xav56fP9mxB51V3id/5vjphSi2TfDYAgumpCQoQzPr8egAEW/JcEA+CLnO9AIJN5iAAQU+eqxdAMGUOChDMPKCwPAhBPAhS5mI55BAUIATjQWBeQ2WnrO+Mq/UrULpQVRJ6+WcQgHCZSXE2VlbtHkSEnTVQLf/HVx7CJz/9JfzCm9+Iq65ajs6ONgwMDOP5F3fiiSefwYP3fUyAgD179mD79u3CnfLMM8+Ie2/cuFGAhN27d+Oee+65zKQ4B0yKNKI6sq026WbDg3CZSbE+HoTLTIr18SBcZlL0r8LiOJwpQODSZLamr2ardA+C6SkN60EgqFLVV7V6EGzPliGGjPDe/pcmShoYHMQf/b9/jQsDo1h8xUJBufzQN7+LU2fO4m1v+Un84i+82QFdvvnNb4p8A1Iv8yDxCpNy2JuBPRtm45iJB4HPDxvqMAdwkHcJlIOQXoOmdm/WySAehLkACKbXI2iIQZ9wtcUR6d4LnoNQbN2EpmkmRVPmoB4EXeZachDCMinqOQg271IQD4IuczUPwkxyELKNFSZFW9JtEA+CqWcFaL3mor5D1asYRvqqNGvSchBMmYN6EMwFpB45CKbMQT0IpswXO8QgAUKwcOhMAYKNIlmXoRpAUG27vQHCJZCDwA937vx5fPCfP4YjR0+JJk2lYhE//VOvwVvfUkl4CrJYzvTclztAIEELhrciGnFnfTNBqtR6E9JN3o20Zsak6Mw41r+Fvhi7mRRfRKMHk+JUmUlRJiW6AAKZFF+814M5EsgueBU6V95WFkWfcDbXoy4zgRdrhe1VDEeRyh20Zn3nSinEO29GMlVp0ayDR8Gk+MK/IJp3kv+oZ2fa1qHr+krirWkk/FyrdMEyLMIyL1cVQ98+xPPHrTJnS81oXMBMdbueKdvI1o94sj9mOzagc/XrrXrmNyOQb2uzlxRyN6fKwlxMisNn0DCxy/p9Zd7ErUhpejarcoZ3fB4N43bir1zjMnTc+MtWmfnHoaFBtLW1ezApyvIyJhfy++gAYWzwGGJTB6x6LpBls3dLeednLrYEU2RSjE+8ZDVlhaYr0bbu7Z4yM2/CzJ5XJzOhkWNDxeL1MsfhvgNICSZFd4VLrpREesGWMpOiKTOJnTK7P40Gj/GcbV+Hzuu8x7NiUrRtrphoSB1XCMsqlQCsamP1i40Thd+EISP1fdxMiv62SlVAUHc2b4O0Hd7cF1I2Z2WGkwVyUrBa2jwAvDevZ56RP5NiRlR4uA8SqVVaxIdZE+dFkqISnAOOVQlUCj0BttKPMC8Z5pqwAGG+MCmK2OnQWRQLNGBODcQSKTS39pYNni1mOzU5jpFBe3Z+PJFCR/cV5ZuayTu8H5G3yZan6sYVkQwXLu4aVKIdF4XxkTMoFpw18oIZsLnHQVksQwyyDl0BhqGzh5EvuYmTWBrX2n1lmZXQNql5PxthF2uI0+lUeQJzclNuldXOe40NnwWZJ/WDssWTzWhsroAwG5PicP8ZZAX7o1mfX0JLew9SjTJ7XibkOic7n80dhnnIsrt42WiYAIHfZWzotKtGnt+H9Nvqmbyvqq9W2fX8Gxk2s1l3+WwERTS3L3DU55tGlc/m30zeCOpZshLKci8ade6uFKeAGM/D51AwGP4U30Rza09ZDdQzdaOy6/kD2R/JK2DTc2NTK5raKtfb5j6BjY0HgYZd1arz3fg9dB6EUepZUPZWDsrMsdHUUuF4sTEpSpkt31dwZHSgqbUytkw9y8VlzPWNxbiMJx1JqDpAYALjyOBpDjhD5igSja1obKyAOxvR2fCFU8LtbVusWjoWOBgrFYW5OpffnEnpNj4DLoD699QrE1SliQIs+rMJghS45+8cz/pYFuytY249qQopPV/BKz+M95Q8DE6dmbaj8p5O8jB+J1ma69a5oiXnHPbq6UCbJPkjzOdLHgUvOu9a1sV5ARA4QM2Xq0X4i3lOWAY4ZczDhxicLrAg7zgTFsYgz5mtcyW6J622uwa42jPMsEa1883fvVx21e4j66or5WjVztd/t7nrg1wfNvw0E8bKmcscbjzz+3A8q1K8IHqSMjMvJjjLJp8TdmzwuWbPgFrlnis9U77wpXAlQe8blso3rJ4pM4HMTBa+Wr/LpXCeArS2d50XAEEJtmfPXjzx1I8xNDyKlcuvxE+98fWetekX+8OF9SBcbLn87m8yKWYzk8hZehPEkmRES/mKyl3PmAd3faqZPPKVRd0GTIhouSMwD6J3VbPr7sVQwuTEEEqGB4H34I6pmiGaGBtBPjtufa+WjoW+eSE0VtyV2FC4k6AlI3ZIel381OQoChb2uGS61cFdbxOMupsic53laGrt9mV/pKxeLHAkjlEG1PQgiOsmRtwsmxEID4Le9tsmF3e1uYxdz01tzp4Z1usFb7zTSyRZ3yrkWmaIQSxkU+PIZ6fcYyrdLHbFfgeZQSfH7MygKfbMqDIfJNud6TUh+2Oi7F0yQwyUh/1QTK8H+V4SqRbP2nX1Hpy/UwwVWo7G1p6qFNZeMquGWOq2ugdBjA2SrBlzN8K+E+m2qmODDZvY/8V1RKJoaa94LW3vRP3RbrhZSaln2cRLHSaosb8rm2hV7I2a4ya1sN1WudkbvfgUpNxkrXR7AJhAbytN1L0Y9EBks5JATj/onSpzTAgyKDv5nKIlt3kweE3YzSplmTcA4cEvfRWfu//ryOcKaGxqxPj4BFYuW4z//dd/gu7u7rLeyIPAD8oSRxq+Cxcu4NSpU8KVcvvtt8/a+hwWIHBwz4woiW5k7650tQKETGYC+f5nBJOiGU0sIY6G9o3gAsaDbjZuuhxMigd+iFT/U9bH5ZML0Lz27YhNG2WTU50TiYPb3lgkJ3Z2BAmuHIRzu5EqngUihsQlIBvtQUvvOgfDn06UlM+MY2L7JxEtuKlpmXNRWPI6tC9dL95HTuipMpEMJ5aKFdpemL+peK6LKGngFGJT+xExcj34Clk0Id1zU3nxchElFQsY3f5ZNEyRPdJ9ZLtuRec085xtd0rXqM0AiYVpijFaSfPqykHoP4qGzBFBQe04SkA+2oHmBRvLu28bUdLwC59CQ8bd+Ig0xoXeLWhf9YrybfV5pHIQvLgblJuc48YECBNsADS2AxE4F2kGZvKlFJLdt5RDSDp7nhJkcPdXEB/ZZ9VzrnU1Om74ufJvJukQwwZeTW8IFgnEOJ5NgDAxcgYY2+PWM3fAaERj722ITi96JlES7zW85yuIj7JTqHlEkG+/Hu3X/bSnzEys9GIllO9XYR7UAcLowDE0TB1CxJiD1DPzU5oXbEJ0OqzHhUknSiKgGd99P+KZM1aZs923ovPqV2ljw0nmxLCkV1dGyqzbRR0g+NkbCepkeaTNK+Vvq+iliJaBti2JMojtUC+uUy3znjxsREfK88f39qJalqFHNpFyb/jUBsKrq2cti+W8AAjbt+/EX7z7/cjlCvjpN94jiJLaWlvw9LMv4LprluF97/3r8rv8x3/8h0BEzFFYtmyZAAc04FTma1+rt5mt5fW9zwkPEJx93YNKMZP+3cGqGG5AU/uSaYDgploOUsVgvqNfBrWMF0qCHx0gEFiNn30CiYh7h8j750sJJDQmRRfVckAeBJ2TvVrYQLVOtjMpbkeSoMZyCCbFtk3lvheKb13t7INUMVBveltX/n81lrfZqGKggSV41MllglQx6EZVGmivhCqZd8Bn0Vi6iZIOI545ZNUzgUk2XalikDJX2vTyoiBVDLpHTB+vXnPZu4phD5L5Ex4yR1Fq31IGqSbVctAqBnPx8mMPpG75j41JceT8LqSKpz3NVrTrrjLFuhkiDFrFYHoBODb0nbUuhJm/o1+rMv2rfR/b79XKHKu1S7Z1DjXl9mNSNPMwTBmrvRvHCfNKvMocwzbwU3LMC4CgmBTTqRTu3LIJR46dwILebuzYtU+49R743L1l9Lhz505cccUVgiiJBxcbfgBOsLVr11Z1Q9e6YIcFCLXe/2KcN1dMima+RrVJNxs8CKb+gpY56tfXiyjJlDkIQDCvrWXhusykWNFaEICg61okR46OilJq7wVI7oRND0LVMsf2LUil7d7CoADBDdIny62Czd8uZSZFHWRTL9VslQ7CbaHUWmyHmVyoe1yrlTmqSiUu9AzrXpJMin/7ng/gR0+9gN94x9vww8efxuprVuHsuQtYvHghvvXID/Dxj/y94DhQC9GJEyfQ1dUlSqboQlWd6ziZw7RatU38sACBRoJgxYsbuxowCPtc3jcsQFDZv3pIIIgHYS6YFJXrMEwvBul6Y4hBlgbVMslng0mR45cZ7GE9CHoCXL0AguQmYC+GeHnoBvMgVMrRqvEgzBbVsk3mIADB7MVQD4AgPQi0GzK3JyhAMHfj9WJS1JOMg3oQTG/pxeZBsFUvBQEINs9oLbbDBAj6t6oVIBCoMBfKDNteEkRJX3zgy/jsF76Od/7Kz4seDL29XbgwMIhduw/g2999FF+5/5NCMY888ogACQQI7MVAo33HHXcIA3bmzBnceeedl5kU54BJ0QQ91SbdbHgQLjMpXmZSVOOu5GrWJMscHaWZ2z6Dhkm76zyXXoKO9b9aHsZm3kQ9AMJlJsX6MCma1U/VbFW1MF4YgKDby1oBglfV1iUBEM6f78Mf/em7MTqewYplS/CGn3w1Hn7kURw+8hLe+Lo78Vu/+Q6hUyJOtnf+zne+g9tuu030Zujp6SkzKa5atWrOAQLlnEkJ3kyuDetBsHk1gngQTB6EapNuNgDCTEMMup5rmeSz4UGYaYhBl7leHgTb2AjiQdBlrpcHwSZzEA+Cqed6AART5qAeBNNu1MODYNq6oB4EU+aL7UHg8/QeLEFDDLbS91psx2w0a7IxMkpP0yVAtcwXPXr0Jfyf938Yx0+ex6KFC0Tc755XbcZv/PrbXW6Vc+fOYcGCBSJ7k4pjbIbnd3R0VC39qebiV7+HdfVzEHL3Uq1UzEuO2WrWNDE2iOjoc1YWNz672HIz0s2SqIUy89DjWxf2fhupoeetYpYiDUhu+P0ycVGQEIOeqGZWMQyfeR7piL3kb6rYguaFt5b1yvs4mjVNjSLz4oc9P29mwd3oWrm5/L4MUajEHq/yJ3UzneHNrGIY6juCdP6g9blMrIx1bkIy1Sx+V6V9yk0omBSf/zCihUnr9dnWG9B5QyVT3awWIdDyavesE0mZVQx+sfEcGpHu3ezQM8uvSPqiDl8mRYMtz2ww5bfYMrGOLnbOHVeS4tApxCd3WfVURAxo24T0NKkU9cwxrc/BYVaLTJyyXp9LL0XH+l8p/2YuBDIOzBwEk8zKGZ4ycxDGBo4gnrGPDcoc73mFYwzqjY8E6dKu+xHzYlJML0Lb+nd6yuy3M+WioiqJeAMHk+L5fUgVPNgbSzEke+9EQ0yGQUxbRybF7K5PeY7nXNsadFz/Jk3mnCO5zs/mct5xobUxKXKXb5Yu6h9aAQ8ZYpiAntXvl1DN8zmP9FJDs8IsiO1QMjmZFCV7qD6/1HmyQkK2dPdjUtRlNAe432atlrVwXiQpKkGp7H3792NoaBirVq4QIGCujrAAYT4xKY4NnwZyrEl2lg2WGlrR3L6oPChtBnVipA/589st6o+g2LoK7b3Ly7+ZhCfUAY29jaiGRlBNbcwSpgAAIABJREFUUJMHITM5iuz4GaBklLJFGxBLLzIY/sikyBIkuXAxfjty/giiY27jVmxoRNMVGxBPypwD26TmpJVVBs5FgDkDfI7ijTABAhkUJ0ZOAsYiz+siiW40tVZ6g9iZFE8hMrifUhm6bkBD71qQC0EZYzOjmguZZK1zy8x3VHo2AQKZGzNjZ4GiUTESaUBDqsdgf5RMnDrvxci5w8DoUdfYKEVJH7wO6eYK255poCiLKvfUb6DAaSUvJA8CIEXiQkA3wfFcMGmpI4gk2tHctsix8JghhrGhcyhe2G3RcxQNndeiqbPSl8Sc+yp2bSaI8f+lniWVtgkQCvksRKljweSMiAKJDrS0VeybjUlx9MJLKA25AUYpEkOs63o0tVfGlikzx5pqcGTqmQuPvtDpACGfy2By5JRrbIi5HO9Cs8Y4aSPg8hobiCbQ0H0Dmlor7JHmws65pXKLzMHF+cREUNsiKyt6Jqz1/pRRp5w2vZ38f+rOVpLN78lr9fXJdp60Heb85YaL/0h+D/3Q7aWf7LSVigXSjyRNMsDaV0p6PsMQ0am7zQuAQLRro9ecK3DA585kJz8TuWcSYphpSUtYucPKPBOGv7CyzvQ6myEPcs+wugryDPNcyszxrBbfoPeaC5k5Ngh+9EUhiNxzIbPJrxFE3rk8N+xmaC5lNr1ptcqid1Ks9Rp13myNqTD3CXNNre+nk765gNn//kZf6Y9eaWv0UOvtvc+rtd2zugPdj9/+zvdw9uw53HzTBtx2260zFyLkHV6Ok8ZkUpQuMrZJdR5M3qqFXYs5H7aDLjH9elv5jyRRsTMpqmtNDwKfxXu5wSKZ1PyZ8pScNpmJ+mtB0ZK0xGRDI6Na5dlmLwY+V4GGsHq28ajzXrXQDMu+A+6GXDpTpulB8Ja5Nj0rwhmXMYnUdr39G8PB7mn2YuCzvMcUy7+q0yp7jeeweuauTZ8Lwos1UunF4Dc2qjGZ8louCopIR9c1508t88E2NkyZeV/dg8D/t4+p2p7pNTZqnYMypm/2rnDOQcpoVm3UYm9sIQb/ceW0c37uervtsNsdU3alM3oc9IMhUOUh9QoxqPNtz2fYImw1nbrvvPAgUJhvPfI9fOxT9yFD/vVkClOZDK5ZtRTv/z/vdhn34eHhckc4Ek2omKXuDgqJC8qXhQUI8yXEQOrPwsCziMC9SJfQgIb2m5FMt4j3lbFxZ5z5wuEnkbjwrFWNpVgjmta9E7HpkizTbUfdsVmQzWhzMZX9y2NuJsXzB5AqnrR0kosgG+1Fa++aMjBxVTFkJjG541Ou8IR8gQgKi16NjqVry+/LEIgetyQhiXQVu+PMKg5o6+Y4PHgGiam9Ltc175JDM9I9GxGbjtmaIQaxoGz/d0RzdjrdfMd6dF79SiEzFwszxEC5dBpo/WMpohzq2sWkOHAMscwRi7sdyEfa0bzgJoee+WwdYA1v+ywi2QHL2Iig2L0R7SsrTIqmUeVi5LVjUS5nK5Pi2AAiowx5ucFQAWnJpDhdimkjryErYcQSfhLjv3kF2q+vdI015z43LvS+2N3LjI3LbnxmiGF89DyiY8ybcLufi0ihceGWsp5tnqnB3V9Dw7g7lCNkblnpYFJ0yzxSdk+bH4oLFEGvWnwcTIqDxxGbIiGVW2YyKbYs3FQOTZoeQNJZj+15EA1ZWx5RBPme29G5orLpM0MM/uPZm0mRiyPfxR4mYBMkSb5lS1KUtsrNLyCBA21VQ1lPtiRFnsfx0dTE8IfbdihSOH1DpdtLCZadZcTqe6mkXtopryRFnss55sWkyPebybo4LwDCvv0H8Kd/8V5MTmVxz6vvRH//oPhoL2zbiY03Xou/ffefl8c4mRR5rF+/XiiGAIHkSeRFePOb3zxTXDBjgMCPzX+q9Q3wEjSs64z3czApDp5CcooxV3twKt+4Fk1tsiOjLUkxSBWD+S5+4EpPvHEzKT6JRMSesJcrJpDsvaO8CLiSFAMyKXLyKXZAaZwLnrsyfybFnUh6MM8JJsXWTWhsbteAWIXSOihRkj42dD16jSVvJsXnES9esF7G1skNXVvKujATK3lRkCoG3ahWc8HrACoQk2IpglzTBrRMx8etSYoByhyDJFZSH15MiqN9e5DwYVJExxakUjKuTq8ZufzVoh20isFcvPzmoB+T4vC5XUiXfJgUu+9CPC5j6maSYtAqBlPmalUMXGRVYnF9mBTZldaZ1GhOmlpsh1cXRtNm2yZkLUyK1IuXp2AmzLyUZ14AhH/7zBfwhQe+KYzSXXfeihMnT6O7qxPbd+wRKO5L932sbLAeffRRtLe3o7+/HzfeeCMOHTokSh3JrLhp06Y5BwizJkCIG81VmaPOLa4QrVc/CRqV+VDmqKu3llKl+VDmqMss9Sgpq70BAlvEJlwehLFzWxEv2qtFCBCinZt9wxtBAIIu28ulzNHU88uhzDEISL9UmRRtycnVSrJ1HgQbfXUttsNNlJQpr2e18iDQe8iw1CVJlPT37/0gfvjE8/ilt/40nt+2E8uXLcXAwCC6uzvx/R88UWZSZGiBiGj79u0g54HKACXq5m9XXXWV6NEwG8fLPcQwPHASqQw9CPYjl16D5naZuW3bJQbxIJgJndUm3WwAhJcrURLjjOXyykIO41s/hEjRnSfC75JruQYda95S3q1xTCrgVS+AQPDnqmJ47sOI5ketAyvTcj261lTc9fpYqBdAsBntIDwIl4mSauvFYIYYgnoQbFUMXrkVqiJD7ZR1D4KiI/aydbqHh14KPVm3mq1yAgQ2uXJWJIQBCHrOVu0AYXK6HNKZa3NJ8CDc98Uv4XP3fwP/43feiXQ6icVXLELfhX5BlPS1h76FL933ceF6I0HS0NCQ8BYcPXpUxO/uvvtuARTYtOmuu+6ac6KkmeYgVKvp9QM/YT0IKilQzxkIAhBMmapNutkACJK2OFJ2yQbpxSB3EpWYZi2TfDY8CAQ1MwEIOj10vQAC9SxLBivtvYN4EPTFtp4Age56Z95E7UyKc0O1zAZKlTBX0BCDubutB1GSTAzMV3gCRgdQ3PUxTxOVb1qOtrW/WM67MO1EtRCD6srIB4QBCDbBqtmq+cKk6KXUSwIgnD59Gr/3rr/CVLaAlcuX4uff/EZ8+WsP49DhY3jtq27DH/z+7wj9yNKnLD73uc/hbW97m6BebmtrEyQmNL5s4kQvwmwcYT0Is/HssPcICxBszwsCEObCg2DKHAQgmNfWCyCYzw2ag2C6vi+HGKRGTKpl23gO4kEw9Xw5xFDRiN7N0bUxCAgQzOsvNkCQVSH0AlSq9oIABLP6gPLXYjvMEEMYDwJBKwHvJRlioKJ37NyN93/wozh7fghLFi/EmbPn8LrXbMZ//+1fdyWPsZRIgQKVEapcR2EZDM3BGhYgcLfFf/T2uEEWfL82rdXuowOEidF+RMee92FS3Ih0c8+0gQ3e7jmx8Q89mRSrsZOpb2UyKY6ceRapiD2jP1NqRtOC28oeA353SWIkiZJykyPIbPuIp4oyva9A16o7yu9LGZS7sFryHMcCz7VVMQz1HUQ6z4oA9yHi+R23IJWWZCvuZk15jG/9Z88QQ6b1BnRNMynSuOktqnk/vwQmRUbEceiqYujbiUTe7kbOl9JI9m4uj19b62Q/D0Ku9QZ0aOyPutGv5vWgAWYjK8rsZlI8gfjkHquei6UGoP2WMpMiZaYHQU/c8gcITiZFc6EaGhosEzaZAui7aLOKYbT/EBLZw3aZEUOs+85ycybeR2/WJN5/9xcRm7C3iy6metG64TfL9zZlNkuedSE4HvTENgeT4rnd05VEbrGp50TvK8pMinxfR7OmsSEUdn0SkZK7ckrM0ear0L7m58seBDOBLiyTot+78rkzYVKkrpSdsIGJILZDadTNpOjOLZDAt5Kv5VXmyLHOsePVJjvsOqZknRdJikoY5hHs3XdAZAWTbnn16murrYkX7fewipUTvRi6/rTaYPd7Yf1ayjAxdAyl/LirjiEaa0Zj21JEG2LidrYchNGBUyj22ZgUgUjrCrQsvNaz9tyL4Y/P0hnRTB6EyYlh5MdPungQRPZyelGZGloYm5zBpFjIY+SlHyMimCPdR2rpFiQbJcOfGWLg32islB70qyUbWqS86zCZFFnalRl9CcWCM49AXBfvFJUiOu+DHmKgARg9sxel0WNWmWPda9DUdaX4TZY5VnIQlA7sbHnyfJIM8dkmQMhMjSM3dgLFotOQi5BNshuNrQvL8nCHJMuwtBDD8edRmjxnlTmx6CakWysMgTY3sqoy0G/AnvY81O7OBAj5fBZTw8dRNBkrAUQTrWhsu1IrGXQ3axrrO4zCABkr3Ue0fRVaFlRsjQnS5Xh254lQX1LPafFsEyCQlXBqhGOD/BqVI4Jp9sf2JZqeaejprq/EuEfP7EZxxE57HO3dgJaOCnukaa8IJhmysB2UVY/D6wAhl50QMpeKBptphDL3oFljf1TcA0pmMZ5P70JpzAJqIlHEFm4ymBQnHIyOkknRLbONkVBfZNV8tr+r5Nfwqirz+ramrbIqcvqPfraDYRE/gjI1r+33LwnZq216OV4JiM1DbaBq4czwer95ARCo4PnGpJjJZJFMVoyi3wCZL7/NtKQl7HuEZfmaKcNfWHlnch2BCRfNsAx/M3l22GsVYPPjqw9774t1HRcKGj6dN/9iPWu27utFxDNb979Y95lJ3tPFkqnafc3KqWrnq99NzpZar+N5OkVykOvMc8PcxyzrnsnzzWv9bNm8AAhK4IHBQRw4cBAjI6NYunQJrlq1MvROfKYKDOtBmDkPApsIyZ190MPFpFiQOynziAjyj8ozbDwIYpdn7IrL9yFnfyxe/l8bk6IKtZjPJpJXaN70IIi66oLcseoHdzz0duhJlLYJU8i5mRDVfaKxCiuaWb/Nc9TfrM+ORsu7U9ODwGsLlNmiZ8qsN2Gxyky2yZJ9pxdtSCASrWQt24wb/2bKTJkaGiizvNb0IHjpme4dyqvLTODOz6HvwNh/YrZlFt9Y07PpQfDVM2U2xrPJRcLGWOauWI2NSDTmuD6InvXxbHoQ/McG9eycg9S1Y7xcBJlNPVNGJ5NiCfy+tjEVbag0S9LnjL7D5VyAhdmT51cbz95zUIYSdbIhG5OiVWbN3ngBOK85pH9byu+Vr1Cr7VDjzcakaPdeVpKw/ZgUgz4/yLoybwDCi9u24y/+1/uQzRcRa4ghXyhg04Zr8Q9//9eu92HL587OTvF35iMw1kgjyITF2TrCAoSZVjHMVoghl80gc+HHiEfcdMm5YgrxrpuRTFWazHCQ6RP9/KGn0Nj3mFWdufQitK75ZQdI0E+k7vhNbECHXg7+xmeZAKH/7GE0lY4gYmFxG8didC5aU36MGWJgA6KpF+9F1Gj0pC7IL/sZtF9xnfhfWz20zs6pvwv1QgOqmgaZAGFk6Dxik7vQYGGsnCp1onnBxkqlRU669FVsXDApbvssYhm7uz7TdRu6rvFnUiT6t7lPOS/IoGZjUhwZOIH41H5EI25gMoUetC3aqOnZXeY49MKnEMv0WcdGfuHdaF9xe/k306gODg4IXdqovvkNmFvE30yAMD42CIy8iFjEHd8mw1+691aN+ModYhja83XEhu05DLnmVehY+9ayzObc55ykq9c2nvXfTIAwPtqHyOgONESc7no+aKrUitZFt/kzKe78EuJjZDV0H9muTei85jWeMjNvgrq0dQlkFRE9M+ob6ABhbOgUGib3IupirIxgvNCO9ituLo83s8yR32x01xcRnyQbqvuYXPQ69CzfoI0NZxdGyWYqx6w5B0mIpzMC6ous7E5JsiC3x5ffkt/Ni0jI73faKpNW3vZeXmWWpu2wXSubauUcoRZ1Htc0hp2qeSu9urpyPHJ8+vVaqLZezguAcPDQYfzJn/1dmUnx9OlzaGlpxrbtu3HrzTfgf/75H5ff48EHHxSDYe3atQLR0WDPJyZFChrW5a4Wr7AsjA4mxYFTSAoeBC8mxTVoaqt0sDMHSpAqBvPaWjODnUyKRYyfJZPihHXM5kpJJLo3l0vXpI55qoxdB61i0N181Row0Z1JI8MduQkQhs/tQKp4xiozmRRFG+ImyaRoemqqVzFci441FXZQvdEM76UooG0P5++KLdL0IIydq51J0eZdClLmqOvZlvuhy+7HpOiX8FcioTiZFFsrSbdiZGjk9kGqGJwNfUpiE9Laat98UD8qM96VpFiVSfGOcs6FqWfqYnwP2z3bkxQLyV60bawkKZo2xy9RWPVaULkDCiDwHiPndyHlwQxKnUY1JkXT1kkehI972xyjzNF0tftVMZiJlfViUpycdFI8m3Otmu2g3HPJpGirvKgGCvTf5wVA+NznH8BnvvA1ocjXvHILTpw6g472Njz/4k4wd+nBL3y0XMnwxBNPiDbQZ8+exbJlywT/AZkVuSjddNNNQd7d99ywHgSbQQ0i1Ey6jc1VmaMZYqgGEGaDB2F2AQIbxBRDUi1vQ7Jo9wAQIBRbN6Fpmmo5OECoECWZ4JH3qkeZ40wBgr5w1YsHwSZzMIBA8CmBJ+9VjzJHU+agPAjmYlsPHgRT5qBESUEAwmwRJRE46Xkt1WyVzoNgOzdMmaO+aNdKlOQVYrgkeBD+9j0fwONPvoCf+snX4NjxE1jQ24PxcdmA4smnn8Un732v4DggXwIzQh9//HF0d3eL5jpEcHRXkzxp9erV4rzZOMIChPkSYgjKpGiGGIJ4EMyYbbVJNxsA4eXKpMixWQ4xBGZSZNa3DAvVCyC8XJkUufjopV9BAMJlJsX/mkyKnDO0GzqBVjVbpQMEW2JkGICg96CoFSB4eSIuCYDw75+7H1/8j4fx//zWryIWi2LVimU4dvwUjh0/iW898n088PmPio9KYHDmzBnhLdi3b5/Y8W3ZskXErI4dO4ZXvvKVc06UJEu4io4kwCCAhR/cq6a12n3CehBsO64gACFoiGE2AIJscSwT24KGGExDUcsknw0mRcrMhD+V61E9xOD0IOiemnoBBFV2puenBAkx6CRa9fIg2OZgEICgy1wvD4JK6lV5DkE9CCZZWX08CORBKJQBb1APgrngXmyiJJv9DAIQbNfXYjv8Qgy1AgQv239JAIRDhw7jD//0b0Uyxrp1q3HnllvxoyeewbYde7Bx3TX4iz/7I4d+PvWpT+E3f/M38dBDD4nkDiYn0vgw9LBixYpq62hNv4f1INR084t0UliAYBMnCECYixCDKXPQHAT9+lom+WwABFPmoABBv75eAME2NoIABP16AiRJPFNhstN/lzkIknPB3c3xEOIZO+kQmRSzjTeitb3Cv2DKHQQgmHquR4jBlDcoQDCvrwdAcG0M5jmToq2KIQhAmIsQgyJDu6RDDBxo23fsFFUMtBGrVl6Jo8eO4/Zb1uLP/793OVxCPFe5aBThiiIp4S7Hlh0dZj0OCxBmSpQ0k5pkHSCMjZxHbHybJ5NioXkjGltkUpcssWGLaslKyKMaQEhseBcS061qg3Rz1BPVTCbF0TNPIxmxNwHKlhqR7r29nEkeNMSQ6b4DXVe/ovy+rLFX7npJ4c0mLrL1rnno2cyuJMW+A0jlj1qvK5RiiLTfjPQ0QdPMezFMOmR0lqc5ReBiTPIUK5Pi+R1IFOyJlXkmg/ZsLmeEU2aCkZp7MWjsj5RIn0f89jSyXv3pqVvOYSuT4iArL7yYFJnrcTOamjuEEgj4gvVicDIpmnwirLzo6JBVU+ahZ/K7khT7DyCRtY+NIhrQ0HVn2Vsoe15UGPGqMSkWUr1o05gU3ZUX4yIEazsk6RO/aVL8rI+jwbM70ejR7rlUiiLWexdiMVktYGvWVNhNJkV72W61Xgx+PC6cnxKkSxsVJI6v7mtLkq3G+qozKdrWhCC2Q30L3VNCe68IzWzfSn0bzhuG3M0Edtv81O8Tdh1T95gXSYpKmHPnzuPwkaMYGhrG8uVXYtXKFZ6JY9aRP4t/DKtY01UYVKTZolqmsRm9cBAojLtqmqPxFjR1riqHQbgA8B998I32n8Dk+X0W8clq2IqOZTf7MilyUpoH877oYqfhIpBzMymOIDd2DMW8k7WO9dexxivKgEYaJzZrqnAq8P+Hj/xomj3OzaPQvHgD0i1dQiQ981zJyO9tZ3FjLXLUl0lxYugISnln9YWo6U90o7ljaRm0StpidnOU9e+UY/ClrchPDlsyv6NId69ES4/0iPFck2qZwIxZ1qbRUMn7BEBeTIpTw4ddPBeCHyPVjeb2peVPZ6MtHjj2HPKTbkpsPqup91o0dlauN93GHN+y7tw5OmSkKFou97IxKU4MHEYxP+64kGMgEm9FS9cqR8kg9eWgWj69F9nhk5aanghS7VegddH15fuaMlMWLiQ6D4eQNiqZFJWeTYCQy05iYpB6NuZCJIqGZDtaOldqenYzsA6f3oXMsA3IRZBsX4q2RRX2R1NmjhW5eDj1zG+k2ExtZY7ZzDjGB49M039XLubYiCZ7RAdYdR3fV6dapi4GXnoehclBy9yPIL1gDZo7KiydJiDgop/LuUtCCWYIHHUArwMEjif5ffg9zEfL7+PHpOhlqxjC9AJZ5iKswof632UzuYrtsK0FEjSPW2VnqJqyV2NSJHhQfCXO58vOsS97JkUaZxUHD7qgXqzzZ5ILcLFkqnZfGwK3MVSahq7afav9zsnhrreWoMMNEio1zjQu3O3pLmc7oyaNmswqv5iHlNcNLlQpJZ9NeWl4nd6G6u96ceU2ybCc+rIzKdpknjs9U8f6N6bRz2To5ZF9LOQx3/TMUsrKeObYpbF2sj/OnZ7t+nJ/Y5vX0pyH8ttc/Dlok9n2bFvCYHVbV5r2PldI3sojq2QhlNO+Lc8jWNYJ5pxz2v2dvXRms5fVZKfdkRsL+zeoxXZ52SDVQt72+7zyILAS4cSJU4JJceGiBVi5Yrkn8ruYBpf3nisPgl+iTrV3NkmWRLiDzGbGwR25jkptSYoikS9j5ySIJdKO72JjUlShFv3Rihvci0lRLsBZFyuhQOKxhGsBUaxw6hn5XNb6vpxUKhwilhmxGyeVtnSxqr/ZGNX4DJ0gx8qkKFzaTrcqp3E05uy+Zkv4E7uw7KT108aTspeCko9G0Uxg5eJvA2KSt0Fea/IgSD2T/dGQ2UPPcgdXYf0j017B8PLIF4ggnpR9CdRhGxs2mXkJn6GutTMp5kFGRPPg2HAwPQoPBRumVRYCPz2b49m2+ChPiuvZDWRElCDByqQoQgeGzOJdnTLLkJAhM9sp59yeOD5LHxvqG+thIPmN3WPD1DPPM0NV9rEBNGhspOp9OaZ1T41oHiQYTc1jJmNDMgpWY1K0sRHyOv376KFFJaHNVvE3/Vr+v9eawPmnvIP6W5u2Q/1mY1K0eS8pt7LTBHHcSNk8IUGfbzU2Hn+cNwBhz979+Lt/+BDO9w0JJZRQwpte/wr89n97pzP+OTICMq4tWrRITCj+t4rDLF7sTfwTRCl+g6HafeZLDgIn+fj55xGHe/HJI410942IJ2SymJpY+uDrO/oC0mcfsU70ybb16Lz2JzxdX5wAvKeN2YwLLBGrLcQw2HcUiexLiETcnodcfAnaeq4uyyM7I1aoSPPZKYzuvh/xKXeJVikaR2nlW9Has6z8vvS26MiZlRUkjjE9FZx8ZHEj1wYPEyCQ4a84vMvNlhcpIYtOtC5YV57U/CY81MLFRax/77eQGt5hJZfJLLwHXSs2iWsoB42b7rmgwdKNiFIOz+VOtrW1RexwXd0ch84iMnHAxZZHredjC9DWS8ZJucjb4vkDu76MxKi78VEpmkBhyevRvviG8ncyjSpJh2yxVMpMNzFZ3/gNTICQmRxFdpCMleaCWUIu0oqWBRvKXiybzIOHH0e872kXRXQp0oBc500OVkLTE6dc0G4mRdlAS7H/mQBhamIIuSE3yyZtWy7SgbaF6x2ASM9BoD76938XqcGtrjlYisSQXXg3upbf4qlnJlYSMJjuaTmOpkQeiC3EMDHWj4IYz84dNcdGNtKN9oU3lL0mtHX8TgpoF/J5DO7/T6RGSNDmPITMi9+ArqWVsWEm/TGjX7Gs6ldznnDeNTe3lP+sL7KyP0reypaovqUXfT3vK22V26vAZ6jwkZ/d97Yd0qPU1iZth+2g3F5kRpy3lNsEfuZ9vJ4vk4Jznjk/1dYy/j4vAMLJk6fw+3/8vzA+kcUbXvcq7Nl7AEsWL8IL23fhjlvX4Y/+8PfK73L//feLgX3DDTcI5XOQzjcmxVoUfzHOcVYxnEIqs8t7YKbXoKl9dpgU3SQtE54Jf3r2vcmkOHH2CcQj9t00WyfHe9ge1z2R+ZJVqxi6N6Pz6rs9Jqmbmlc/UdYg25kUR/t2IZE/Zb2vYFJs34R0o91AVKtiyDZfg861b7HeWy6opKrVXfDOU1UyrwsgnNuKRLHfel8mVjZ0bXF0FTRPDFvFYC4o5n39mBTHBw4jlrHTDgsmxcYb0aJ1GjTv7VvFkFqCjg2/6qlnP8ZKXqQnwZF2V9Fyj17Yg0TOzoRYAsfGZqTS3omEE3seQGyyNiZFU3i/hD+T/U9nUhw9vwtJPybFrrsQT1Q6TurPrVrm2LwCbWve5hku9Avr6mODz3QmKZJWvNXT1pn5Cjpo8vMUyzlW6aBq2jk+UIJRJ+eG23bEHe+s38evioL3UTadc0fvVaKekcuRZlom9tqOmTbwmxcA4fP3PYhPf+6rQgFveN0rceToCbS3t+KZ57YhnYrjS/d9vLwwPPvss7jyyivx0ksviV0d+zIQDXMAbdxY4ZCf6QIcNsTAQcUBUC2xxEs+s545yHuELXO0hRiqVTHEN7wLyekqhrkoc6SOZcJVjVTLGkDg++o7jnqVOZqemqAAQSdYqVeZo827FAQg6HHb+vIgOHuLBAEIpp7rUeaoKrKU3RBljgEAgi4zbUZ5D0KNAAAgAElEQVQ9yhylrSuUw09BAYIp88XmQXg5ljmqPg+XdJnj3733g/jhj7biJ17zChw9dgId7a1ikW1ubsLTzzyPT3zkPVDhA7qhmKuwdOlSQTXLiURgQeNDl7Ff7+0gi21YgHApMimayLpabfFsECUFLXPMagBBljtVyhzrBRDMXVAQgKBc8JeZFN2zmDwImcYb0TbNg2Db1QUBCPOGSTEAQDDtVT0Agq3MsbjrY95eS8ODYCZHXmyAQMGCsr7qTIq25MJabIdJlKTby1qJkrw8CJcEUdKnP/MFPPjVb+MPfvfXkclmcd3qq3Hw4BGcPnse3/zP7+KBz/+LiFs++uijgkr5Bz/4AU6ePCn++6qrrhK7yHPnzuH222+fcyZFGnL+E7bhkjmAg4CasB6ESuZ+JbksiAeB76vH7usBEGbqQdC9PLVM8tkgSjI9NUEAgmnc6uVBsLV7DuJB0I1qvTwItjkYBCDoc5D3qocHwZQ5qAfBXLzqARBMmYN6EExbVw+AEHQzowMEW5+cWmyHCRB0e1krQLCFN2gTLgmAsHvPXvz5X71PhAxu3XQj1q65Dtt37MGPn9uGZYt78J6/+0uxTl64cAE7duwQHoT+/n7hJl61apVoa3rw4EFs3rx5zgEC5TQXzCCLvNdAqOUe4QGC++5BAMJchBjMxTZoDoKu51om+XwACLrM9QMIMmFUB4DBAELRaA98cZgUdQ+CLWQWBCDo87eeAEHXc1CAYC5e9QAIpq0LChBMW3exAcLlEEMtq4jznHmRg0CRvveDx/DBD/0rCsUSbrtlA7Y+vwNLl/TgI//8XlcCxq5du7BmzRoBFGTdcZPo7rh8+XLhaZiN4+UeYhgfPofYxHbP1quFphvR2CpJS8z4J//Wv/dhJIe2eapSz0EwdwLV2MlUBYGTSbGIsTNPIxEZsz4zV0oh1bvFh0lxBJltH/GUN9uzBZ1X3VV+X5NJkbJ4jR29UYpZxTByfi+ShePW5xZLDdNJirJVcOAQQ8u16Jxu9xw0xMDz+V1sTIpj519EvHDeKnO+lEC8e0s5czpwsyaDSVH3JnGckdsg7ZGYx2ex6sLGpDg+9BJikzbiLoDJoIXmDWhu7RbvFDjEkF6CjvWVJEVb5QU3IbaDelYEVmYVw0jfPiTzL9mvQwOiXXcgMZ3wZyYOinbPu++vOUkxSIhBtnuudC91JinuRrJoT7plMmis+y7E4rI82BViGBtAcecnaFHsY6t5FdrWvLUMNs0Qg60kVt1IhZJVMp6eeGiWd5sPV+Rz8ls5y5ur2Sp+W8XTYssPM3VgPtvWZElyGshka1ZI+ZEx0XvV0tIixhirwswqK9OmuN99akZr4rwBCAqpf/d7j2JwaAjr1tyADRtu9Mxanw0Q4HePsABhviQp0gAMnd+NWIGMd05yDZaFtfdeh4bpQWrbcQ2eOQCc+qFbRZEIsu3r0LtiEyLT9d/mSRy0nJR6HTrPYT4hf2O5kq3McXT4PErjh12laJJ+cSVaOypVF2byHGvzBw4/jtioha8/GkfyqjehsbXCpGiWRdHVR9YzU1cqEUuVWJkAQTDPXdiDBpi13yUU4wvR1iNDYMqg6twNvPeFo1sRG9wmKSaNI7L4brQvuqb8V92w8I+SeS5nJW/hbyyv4vPMKoaJsUHkRg8hUjRljqCYXIz27uXlZ0o9GzTcBx5FdOSge2xEY2i48h60dleYFE2ZCRh4P5OsiyqinK2tEkyZZY7M1h7t24tYyQSQJRRiXehYUCnNtAHegZN7EDn7hH2xXnA7Opeu1fScd2xKCFympiTVr35QtxwPBA/8bxMgcGxM9O9DtOSszOGXLsR60bmAZbuK56Io6KH15Ob+o88i2m8B6ZEoSgvvQOfi1Z4y037ZYuZy3mVFOak6dB6EqclRTA3uRbTkZDMVlSLRHnQtvFrj5nDKzPcfOPQEGkYsQK4hidKiV6BzYaVXjpmkyMWShxmelWA375DZrEwgSLCVVdMOsVePm8hNvj3HHM+xXctFmePRXJTNQUTbYaswsMltXkudjY2NID4NuvTfKRsT8KslvLN0WOc9UfeQYViUKeXDrJnzAiAQxalFKsxLXIxr/NDsxXjebNzTLGlRYMW8t20wm+dwvbKzGkp3sz5pbHkTtTybneAkk2LF66OMu2mIa8npUDFRmy5rub5QkIuh37NVzbWeDEvDbtPVzPUcFRPc77Dpi4uOBDvykEyKWQfvg5eeBXVxlWf66bmW62v5xpJJUdahq6OWMeWlqyDj2XYP+zeW3USVvqQLm7wI1WWuZvQpw8XRM+cvSYcqb2nu5GsZU956trNd8vxa5mCtzzZ387WMDZ7D60xeAe9rnXryqzCrxXbo81EHm7XIbvNEVOZFpZ9OGLupzzHzu84LgKB2g/wAe/ftF2GDJUsWY8ksEh8FXYDDehCI2jlYvOr1q8nh5/Kqdq3prlJuZvM6k5XM3I2r85X7yhx05k7K3Ako42ZjB9OvNXsx8DobmyH/bnumTpTkJ7NJJsT31V2H+sR1TRCNjIm/ccfIHZhO2sL7KR1WrpfsgzqQop683sUEyCYLG3/ngml2QlRNmUy5dX2pXZLanfNcu8w2PUs+f3M828aGjbTJVoddyzemrrgr1Elmah3PkkHQTdRlZxZ0MmVSNzaZvfSlzyXR/2R01CFzrXoWDIQF1tPLRkhB52AQPZvzX5XSqWfW8n3UXOW5usz8RmqcV7Mbtr4zXmymJqAyyYVqGRty3jMHxhmG9rrWtDl+ORJe72wDgiZTp9fzOZ8UqOL3pZ79ekpUs11e64cfcJsXAIGCHzp8BO//4L/g2Imzwv2YTMTxpje8Eu/41V9yKUX/UKrcjR8/7KJsU1x4gCAXCy/iimqL/Gw1a6LBGTu/Aw0RN9UySYeaum8oxxLVTkUfKEOn96LYbydaKiY60Hn1Kz3ddpwAnIgmb7kMMeTFTpbPMgHCGBvTCGIYt7u9mFiIlo4rHcxzbJajXIekWR4+8K3pJjNuLccXb0ZLpwxR2BZbugljMXaKc2+fOflVB0IzxDA5MYzc8EFEI2YHuxIK0Ta0dF+jMfyR/VFSCks5ihg4+BgimQvWYRHtvL7MSqjHutXJHCtcvG0uUHpmyPBnDTGMXkB+/CiillhxsaETrQZjJb+HHi4aOPAdIMMGU+4j1rMWrQsrrm9z4eKib+Oz57fkmFEymyGGbGZCur7hplouII2W3jVaMiTpjZ3NmgZfehalEXs+QLRlKdqX31Z+GXMh4P9THpuxp55VMyAzxDA1OYLM0H4XK6FYXCPNaOu9XsbdpoExAYbu6h448hQwbs8HiLatQPuVN3vKLEM57l27CjEoPfMcPcQwOT6A3MghRE020xKQj7airffacniI70u9KIBAGuzBQ48hkh2wjIwIIl1r0HGF99hQTYvcvWJkPo3e40IHCIqNkDbXjNTxN3r7vDw2HHMyTFfpZKuE1+eQn92WtsNOVMR76JsJ8z58L641JGIzZacNJ7V6tXXN6/nKrvv1Wqi2Hs0LgMDqBDIp9l0Yxq2b1mNgYAjJVFKUOr7hdXfid377N8rv8bWvfU3896ZNm4SngddeZlKU6tGTdUaHziA+udOz3XO+cR2a2hZ5jo8gVQxukhZvJkUaFRoCThpHkiJjceeeQgLObn1KwGwxKZIULw6TIndvpIy1J7hygaARVDFneh9UDHekby+SeZ8kxbabkW66OEyKNAxMYLIdKv7Jhd3NpPgCEsU+63VmkqLtpCBVDPr1MklxypNlk3JSx/zGJkAYGzyK+NQBj3eNIq8lKdpOClLFYF5v7rD133WwaQKE0b49SOS9mBQbEOm8w3PMBa1iMGX280R6JSkKsHB2J1Ie7Z75e0PP3YjFKj1M9OcGrWIwZfaiHOZ5csPRUF7I9XNVIp+XMQubpMhvq5LglQy2fhd+tsOepFjJcamepDiMlpY24fHkXDZ3+9yMiR4oHgyz/yWYFB/80lfx8X97UBiHN/7kq3HixOkySVI6lcTXvvSv5V3SQw89JMYBDcjP/dzP4emnn8aKFStw9OhRwYMwW8fMPAjMHrdTAleTb7Y8CMMDJ5HKuDnR1fNz6TWidSsPW5JiEIAwF2WOZrvnIGWO0qgzO1kCgnqVOZrtnoPwIJgy8//9AALfS7kyTYAwdm4r4p5Uy3FEOzeXdaNcvvoOKQhA0Olz68WDIGV2Nj4KAhB0DwL1XA8eBLOHS1CAYHo96lHmaHoQggIEExBcLnN0rw6XmRQB/N17/wmPPv4sXvmK23H85Gk0NUmXUHNTE57d+qJgUlyyZInQ3pEjR0SDptWrV4t/s9SRxotIjECBGauzcYQFCJcikyKNaL2Jki4zKdYHIAQuc2y5Hl1rfqY8BfUyx3oBhMBljkYvhstMiu6GZ+qDRrVeDC9HJsWgtspJlOS0c7VuLmaDKMmUW32PS4Io6eOf/Cy+9s3v40/+4LcwODSM66+7GocOvyT++6tffxj3ffYjIm79ve99T7hUX3jhBZw4cQIdHR1Yt26d0BV5ELZs2TIviJJmAlC8BkIt95wroiTuJHTXVz2YFE19BPEgKK+JAjX18iCY3zaIB8GUuV4eBPO5/P8gHgT9nesFEGxzJYgHQZe5Xh4EU89BPQjm2KqHB8GUOagHwZT5YnsQVDKg7g2rZqt0gGBLxq7FdpgAQa/6qpVJUeXAmPlGlwRA2LFjF/78r/8RC3p7cfutG3D9dddg1659ePrZF9HT1YJ//Id3izlPjwE9CPv27RO1x2fOnBE9Gfjfp06dwvr16+ccINgS/mpZ3NU5Zt14kGvDAoSXY4hB1viGb9akSIRq3QXMBpOiWS0SFCC8HJs16TLXCyDYeBCCAAS9wVS9AAJDIjoPQlCAMHfNmiqN6YIChMvNmiDChCoB2mbrL4cYprVy3xe/hAe+/C1MZXKiadMPfvgkli7uxd+9+0/R3S0Z0tRx+PBhQbFMgggmYTBLldTL7M1QrXd2rQvuyz3EUDVJsWktmlqvEOqwGdRqOQiJDe9CYrqbo3v34t/uWSX+mEmKo2eeQjLqlaSYQnrB5nJuhzvEUI1J8Q50XvWK8vs6mRTzoroiDJPi8Pk9SBXsiWiCSbFtE9JNYZkUV6Nzzc8JmaljJp7pzZr82hDruyV3DsILiHskKRZKCcQuKpOid5KiH5Pi2MBRxDPeSYq55g1ouWhMisNlAifTfui5Ia4kxQv7kMh5MynqSYqzz6ToPQf9mBRHzu9GKiyT4ugAirvCMyn6eRD8mBTZ/M2vUkDP6wrK+qon1dr4Xggma7UdauzoHld6KNLpRk8yJvVuXs2auKG0lSGrZ/2XSFJUL8MWzg9942GMjU/gqlUr8HM/+9NVWaRqXfCDnhcWINhcskGebbrrg1yrexA4cMfPv4AYZLmTfuTQhMautZ593Xlu//HtSJz9gfXx2fb16Fh1J6LT5XrmSZzoZsmW0osi7LExKQ71n0Q8exQROEsGS2R/iy1Fe/fK8qNMUJLLZjC++wtoyNnL7yJXvQXNnRWGP1PPnIisYjBdeDKTebxc226WOU6MDaEwSiZFJ/McBc1Gu9Hac305/GJ6arhrHNz/HcRH9lr1nO/djI7lt3q+Mw2f5IJwllgpmRULnAsgjPQB4/stJYMR5BoWoK23Uopm8y4N77wf0ckzVplLV74BrQsr7I/mdxodHRFAzM2kGBFVOF5MilOTY8gO7UYMTlZCVsTmoq1o6V3vCHOZzx088iRiF56167ljLTqufo2nnrlI0Ai7mRRlW2WvMkeWwOaHdllLjbPoQPvCdeUyR5vdGODYGLYnGucX3o2OKzd4ysydKV3btvI9Ak3FZsob6GWOE6RLHt1jHRtT6EHHwtWOb6fPI/734P5vITFqAXJknVz8BnRfQfZIeZjfSLEh2pgU+Q10EOAsc8yJiigbG6LkDklppcXOPAJpq+wl8rxWL630Cv8yiVWOaWeJNOc3x4fOP2K+typzTKdTrjJHVbnATa9f6Nnr+bTB1Iv+DkHWE547L8ocacD02veZxOGDKsDrfD80O1vPmO37mKBGduKzUPgK13yFac8mB69zk/9IloBI1Hm9jWFMhVrMezvCAjk5sVWdbuUaU2YZSqhGeSrkZTdN46FSZjLeeVMEeskrJon2bI5VVfteNnTFImxPrUVm8VxxvfOoTeba2C5NvokKq2A4PQt5Q+qZb2kbV6aeuaPmQqZTAtvHM8cFv1G18VxEiYyXVj3XNh+855IcV3wvLnJKZjH1OActT61tbMiwg2sO1TSexVLkM/8rc0F3c890DnJsFG02pyaZKa+U289u8De9OkYturV8H1uZbS22is/w2o3XajvUO9mIkqrJTtueTCatREl+8qt55bfWkGvB65gXAEEx7vFF+/r6BDd2V1fXjJDPTBffsK6ZmTIpmrSnQd4j7LW2lr5BnhvW68GFS5LjVKhpa30uFxAbk2It1/N9ZWiqsZbTHefQMGWzJD9pDnytZFtzkg7VehPODc6LMDLLXgJTjsW21udKFyZJh5wMf7VeH9YTR11xPJu7r1qeO1OZw899yavf2mrnvfCTXTIpkpXQ21j7XT+T8mh6dXQgVouOeQ7l5XfiwhXmsHM1EBxU4foWAIHMgsEa88mwGzkIwpWg25IUw7y3LVRR7T4c0yYza7Vrav3dj/Z7XgAEvkhf3wW87wP34vCxE8hMZdHV2Y6fesOr8PNvrpRMqRfWM085mfmCVPpsdXLkc8IaNrXzroVr3fYBTXRZ60fmeWaIYaJ/D1CcdAPyhjTSnasRi0mjb3Ujnz0E9D1nfXyxcTHaVmzxYVLMiYnoPmRDG+aM2EIMY8N9wOQxV18D7hBLycVo6ZClrjzMhL9CPouR/Q8jyve1HPGld6OxXRJD8X054fRFj2NKujbde0zJ4iZBjBliYHObHBsXFZ2MlULmeBeaO1f5NmsaPvwoIpPnrDJHum9E66Lry7+Znhrp+nbvtmhgqX+6vm1MipMTQyiMHEap5PxGwsOS6EFzZ6Whji0/ZejAd63sj6Lb38JNaO5Z5Skzy5Hl3DB7XkTFN5F6jriIkrLZSWSHDqBUmHLqimtJQyuauq4t764I0qkWfQ4OvfQsIiOWRl68W8tKtGmhHFPPBIXsG0K2R/PhHBsczxw7Zg5CZophkQNAyWAz5W1i7YJlUy2GUs9M+KuEi4aO/RiR0aOusUHNRTvXonXxmvJv5uLlN56pHz3u7WzWJJlBUTKYQSMRlGJdaOlaWR7PikZahV7E+x/9ESIT7jJJjo3Iws1o67nSc2wQ5Hgd1I3eBdRkUpT5K25gwXdNJr2ZFFVvFfeltFVOPXnJ5m878r4bXdVzRDLCOueEDH0kqjIp+j1f6i34Rki967wACOQy+OM/fTdOnO7DDddfi6nJKRGbO3nyNN7+tp/C237hzeVv89WvflX898aNGwXL1dDQ/9/el0DJVZ1nflXdXUvvm1qNEGKRECAEkkBiEWswNjbYJo7jxElsz8QzHp8kczKeOZ7J4jM5k9jjSezgwTYY4j1gbGNsArExW2wwWCCEAAltCAsJhNDW+1ZdW1fN+d7tW3Xfffet1RsjvXN0EKq3/Hf773f/5fuHTzIpTveOChDGp8s9xwzmOt6ulns2TfwwQYq6QvUroepW7nnsyLNIupR7zpfS00GKZkpT/zTHK9B5tij3rF9cpLRkqAWY1HuojHiyMzEpjhzfg5RLueepch1i7RuQbjRzc/hmMbRUgxR1mQkMePJzO2GrytvJpLgNiZIZlBTLSSQWuTNWUg7PNEet3LMqt2DRpP/bbH0h+OKmbir3PD70BhqyLuWewXLPF6O5pdN1g/HMYkifho61H3V9dnh4CO3tHcbf2SbJ7+8MUtyLROF183OoQ13XVa4WA66pMOWe9Y94WRP5bm4c0lqhlnseOb4LadcgxTjqu6+uULQ7vjk2hNKuf7LcKqar2Hwm2lZ/2NXV52W5IUgjeJKgTwUI/kGKIg7BxOTpp6s4J6VecKsdEVR3yD5R3SN+QYoyi4FyMkZKj88gMGS73ILza7EsUd4FARDu+/EDuPNb91oV6G684bfQPzBkoaZnn3sB6VQCP/7B1ysT4+GHH7YGmyeRd7zjHdi2bZtFonT48GFcemk1oMt1tQf8IaoFoVazm19tcy/xo6Y56qdxfsMPIDSs+xSS01kMOkDwyy3mgqZJU/WNE61PHN2ERMx8iiAFsNi4hNXjxCRKYkCcOA0QIMwFk6LYTMo2BRSGB0FdR3OV5mjKTQ+T5jhfRElU9tIKGjbNUd/o5oIHoXaiJGblVE+3s82DYAIIfrpK5UEwbbZReBBUgBA0zdENIJwQPAif/fwtePLprdhw8RqMT0xYKKmpMW0Flm3bvhPf/No/YMmSUyxFdfDgQYvz4LLLLsPg4KD1hycOpjwuW7YMnZ3up4iA2MC6rRaAoFc4C/PdtyNAcJ5e7Atf/V1sbAsBILCUsFBOQRb5TPAgcLOlKVP6QH0tCM0r0XnB71YAgYiYf3sBhPliUmRlRNU3/v8/QGB8Srqy1N4eAGHCVs57tgGCSQ+HAQhGq0iR7lT7XFPv8yrTzPuCAgS3PeSEAAh3fv07ePChJ/DpT30SR44ex5oLzsMre/dhbCKDB//1Edzz3a9YZslHH33UMk+RB4FAgWibQIGbDkmTrrrqqnknSgoDBmb63qgWBJMcYSwIOrmT36KbCYCgy+zvYtiIzrOvNZs+AyzymQAI+sfDAAT92bmyIJg6LIwFQX1+riwIJpnDAAQd0M5FLQZd5rAWBP35uQAIjoOBxYNwp6ta83MxzDZA4JpRa7BQUD9dpVoQTPIFOVzoTIpq7ZqgAEF1c9oBSM46ULsFXkYNuJXfWBAuhi1btuJvPncrzl5+Fi5atxrnnbsCu/f8Blu2bkcqEcett3zOkpeDefz4cfzqV7+yKJZZxXHx4sUWkyItCeecc868AwQ9cCcsCPCqaOb3rqgAQabJqP6tMABhfoo1TVlgUcocBiCwvZRZnjCDLPKZAAgyW0f6UcMABF3muQIIeoEpzsEwAEFVqnMFEGot1qTOZxHrMWbpGLdLmvf1GITRvl1IFg8ZHysjDrRfgdR0AJme/RQWIOhrcC4AAtvLvpaVBMMyKZrKartlROhVC1U96VVtk50v+4LycqxUXoAwAMF0bxDdoQMEe/zESSZFv33NCrK4+5578f0f/cyKrH/HtRvx5NOb0dXZiv/5l3+Os86qRlXzZYw3IGsiB0wqetIwMzXSr3a2rzDTN7zdXQyjw0eQ8Cr33HQhmlpFVH+tMQiOk0TG3cWgLlJ7DEIJE0efQSJmZlIslJJIKuWeuTCZ+y43W3+AUA1SpAwyUJKy+7Oh5azYB3OQojeTYrltPRqnyz2zvbzkHA0LEHQXg9fGJTI1ita3ain3HDoGoXUVus43F2sS/S6IhUxXLeWea2NStAcp6mtfjfLX5Rbpp4LN1RmkuAeJgrkUeBn2cs8zzaTotfHpm5ravuGjO5B2KfdsZal0X1MJUjTGIOz6euAgRV1G7yBFlnvmehdByvZyz95pmup7OV5qtoNXkKIgOqq6IvVnKYc+bvr8UEvFy9/U9/BQJ7ONTGtCgh/Tt3m/rlP0d0TdxxaUBUEK8+tNz+D5rdtw5Gg/Vp27HO+96d3o7u4KuqfP6H21duyMChPwZaoFgYg7N/Ai4uWc4+lSLIFExxokku7pL4NvvIj6/ueMX55KdKF11e9UFqvOg8DFy83blBZG5cSIW6b16AQ+wwMHkcgz6tuZalioPwVti6osbLpgRYtJ8XuIlZyMhlTG8aXXoWXxCteepNsjlaIP15k2yLkg88T1NMfx0X7EMnsR01IGmcpdjHWgqft8VzZQa0PZfb+VMqhnm1AZlzrXouPMy1xlpoIVpxP9llhlI6aFxcGkOHIUscw+B2OlBZbqutDSU02fM318eOd9iOf6HT/xVBxbvAGtSy9ylZmbkVCITpnZz3QlUoFT8XJMZPbAZGYUU6M7EddTBilzvAmN3es8WVdHfvMYMLrf0M9AueUstK+8waOfmZrJCHqdjClWMVkTqOoAITsxhKnR3UzadLy7GG9BS886T/IusmzWjTtTMzk30LYCbSuq7I/6B6rses5+5hxmLIvcKG1MiqPHUZ7Yy9nnkLkQa0dLzwVGsh5r7kxNYfSVn6Iu62TZtOZz79XoOLWatqt/gIHn1A363GDKqs6XogIE/sYN1JQ+K9I/G6w4NVMKutBVVUtkVSbOQeqqKjkRrTwiHdF+0U2QSjm5ICh3Lsc5bbc+qfpSpFnKlGu77mFqLfuC2Qte3Anst2TSyVPC9nIfaGwMz9myoACCNL0G3Afn5LZafDduaC+I4FFJh/huU2oTT8f6govHzamCQeQz3aObN3mPcFtolMlWbnr12yaiJC5CfZMWOe1OOmE/ZkWv9pjGyPRt5qmrSoFBQTp9aZC2SllqmRtuz5ZK9g1I7y8TUZKwGumbAEGdfRM0cWSEmSfmfnZ+W5eZip2Kz16+neye3nNKzj3+N+r84MnRxMzo18/sU6aetrVViZJMc0OfU6I/BYtgdJmdpYhNY2xaSyYTvXMtOOeG7OvZlpljoY+HyRXr1HX2tetuwQo2r7wOjeb1ZP++XDfBZAdUPU3dzgOMvj7lO4OuZ9PaXfBESSrZi1+udBjlVMu9US0IBDsLIYshTNvZ51UEHubJadWmme2CvoHAgn+isBKKNEdnHYIg3/YzdXu9g4ubMkdhnvMzB/oBGrVYU5B2ynuEBWFS22yDvYHgQqQ5RmPL8zJ1e0nAU5UACOFZCfU8/2Atrd5Vy9onQHDjTPBrL/UGT4tRLi9Tud/7vFwoXs/qLga/7+i/R2V+5XuixWoRCJRdN1k/+WsB9+q7o7xHHBwtAnY/MUP/7gXwFkSQIlvEGDKjRk0AACAASURBVILb7/g2Xty+x2Ita2lpxB/9/s149w1OMxpTGmXQEBUQERBPHFEoe916M6qSqPXE5WbGCjLqqouBp6Cx/r2oK407Hp2KtaCpcznqFMpRfdKOHHsNpf6XzZ9tORPtp61xPe1QuWezOUdxG76MKF8GCekuhvHRQSD7OmI6ixsNw6mlaG7rrcij9/NUsYCx13+Ncm7YIHMMqdOvRrq5mgKrW2oEG5lpAdKXP1UBMbqLIZedQH5kP+KwM/zxpFZqWISWztMr/aTLzP8ffmsXQOY6w1XXfQFaFbeILjM3fipp5wJnEGYBLS0tZibFiREUx19HXCswRTNwObEYLR3Volam+Tx8YBPKmeMOiSlHw5LL0dS+uPKbqZ/d6hBwDUuwqLsYCvksJkf2o67kjFGZqmtHS9cKrZ95oq5aQ0aP7sUUmUUNV7z9bLQprIS6zJzPuRx94E7zsmR/5Ld0F0M+l0F25DXUlTX2Rzp36rvR2nWGbT6zr9UT4sib21AadTIpcpMQc6PKWKnLTP2lv48fozWR1QdVUK4CBMqcG3nV4copWTIvRlvnUls/q9/g34cOvoDYuKG6Ka0APZegvVvEPfFyyiwKy5mtN1NaSmS2AqYk4DeZ/4W1r8kVFPB3gmDTs+p89NK/BDpi3Jybt987xIF4wopxUg/KQlcKdmA/Vl7qfd3CyufF+8pvfyZF+sv+8jOfw6uvHcL5q1ZibHQcDYl6HDvWh0/88e/hxve8qzI+P/nJT6y/r1271gpSpP+H2QwMUPzgB6uMi0E2VK97ogIEOTAzaXYL2hYbk+JoH+onXnL4XOW7pprWorG1qsj1b/TveRip4ZdcP5246FOVGIYwEdRqgKAKECxAc+Q5JGOjxm/mS41IL768Ajp0QFPIjiL30m2u8uYWXY2uFVfaFLIcI7/oegbWyUqPOkAYOb4XqSkzW95UuX6aSbHqg1TlLrHi5tZbjXETFDTfch46V3/AqFD5Hq9yz+xn/qHv1RGkeHw7ElNHjX2lMymaAIJXFkO+9Xx0nn+zsZ9FgOqkK5D3ZlI8iIasueplqRxHuXUDGpuFtcEkszeT4lJ0rP2YUWb+o1eUPNvkxqQ4PvAbNOT3G/vZiovRmBTVuWEBpJ0/QP2kuZT4VKoXbes+7iqzl+VGDzxVmRRH+xh0a868KCGOBo1JUZV5cmIYxR3fQMwQJ0JBC63non3VB2wAQ9WT/kGKdS5Mit6ZAPK9Yv7Zsxj8mBTl2FJ+U5+G0R1ysFTrB79P14HbfiFZIrnWSZlsYlKk7nSrlVLLPmaBtb/7aV/5v/1WlWAj6GYU5D4u+CDERf/604fx5a/dZXXS+2+6Hn39gvxo07PPo621Cfd+785Kx/ziF7+wrAekZ16/fj327t1rpToODAxgw4YNQcQKdE/Ujl0oLoaRwUNI5cylYq3Fml6N5vZTrb4wuRjCpDmaeOBVhjS1w6lQZoIH4cRkUmR2iMgAEP3IyoEtrvNZ1vVwBCke24qG0oDxualyA+KdGyuMfsLFgMhMivNFlMQ5rbpFwvAgzBeTIq1r0sUQNs1R11dzkeZYO5Pi3BIlcc2o6c1um75cGLxf5UEwxVpFSXNUmWeD8yDkpgM47VaKE4Io6Yu33IZH/m0Tzl25HOnGtBUZ3NnRjrHxcex99TV855++iJ6eHmvcSIhEpbN8+XLLrcBaDMK0N4pTTz3VlU8/ECpQbooKENSTW9hv8v5aykzPFw+C3k6/3OKZAAgiiOrE4kHgZi03vbkCCIJTgBUoq0GiYXgQVKXqd9oSMRqicqTuYhgf3IeGnLnYUrkcQ65xDdqmXRsmmcMAhPnhQaDFZ6pCeBMWIISx4ulpvbZaDMd2uqY5cp3Hu65Bw3QVRaHrqjKH5UHQZZ5toiSTPvbTVSpAMD0fBSCo7wkKENz2khMCINz+tW/iZ48+jb/+H3+K/QcO4qorLsEzm1/EZDaLnz30GO7+9pctq8EzzzyDyy+/HHfeeafFhbBmzRrrBEUfDctE04KwYoV7KluYDTsqQAjzjZm+NypAMMkRxoIwH0RJusz+PAgnmRRlwN94CAuCaW6EAQjq83MFEEwyhwEIusVrLoiSdJnDAgT9+bmwIDgOBgucSdHkYggDEE4SJc3wjhXUxfDrTc/ibz9/G9ZdeD6uufpSLFrUhSNHjuOJXz2LzMQovn7HLZZk+/btw5YtW6wc3k2bNllWBTIqMgjl5Zdfxrve9a55Bwg6I1rYLq0lsjcqQBApMkyrqQZ1hQEI81GsiSdMuqSCEyVVAQLbSz+gLIMa5BQwE0yKlJkn5Ki1GBgLIWWeKwsC+4bfUn2cYQDC/BRrcla4CwMQdGKduQAIPNWL7CeRLRIWIOj++7kACHphurAWBN3/P9sWBFP2UhiAYOrTILpDZ1JUxyqoBYFyMmBRj0E4ISwIVJxfu/M7+NefP4F0OmVVdHz0355CfV0Mf/+5v8CK5dVoXS6exx9/HO985zuxZ88ea1HRisCYhIVQrImTUKUfDQsQarFchAEIxcYL0NS2xBKPG4Ae8RwGIDhPLxnXyFnVr6czKWaObkJDTEQyOywE5SSSShlizhlmHcjo4zAWBMpAgCCIkfzZ0KisGxrqrehqPUhx9NgOJEuHjTIzqMsKnptmUhQAgcWahLk+LJMilYH0UYsgxQnPFFFZI8MZg/ACGkpOoiOrL8oNqO+6okJDzY2LqWEqQ2kYgKAqQxHQl6v0u2OMFaZJp4vhNTTk9hn7mS6GQtNatLQJN6RJ5jAAQd2o1JgZt7WsUvkyoFGmOY717UaiaA4y1KmWqTN4uJBALCxA0DdXr+A7nf3PFqR4fCdSLvOZ7a/rvrbCpMjx5LtkqeGwAEGvjugNEOwspHYmRRZ/c4/F8Sp57AcQ/FKL/ZgUhe4gmZk5PZFr2Cv7zq+Utco+apqftfD58H0LIkhRKulfPPErPP3rLRgfz+CM05fiAze/B6efvizsHjsj99eyUc+IABFeYmdSzCHbtxV1MDEpJpHoXItE0kx5y08P7H8ODf3PGqUoppeg7bwPVNIkdZYvLnSuByepR8wiGaJC4clfT3Mc6X8N9fmDxsyLQsMpaO0+1z21MpfB+K4fIl40Z0Fg2Y1o7V3p2quCDY056GGZFPsQG99jYMsroxhvR9OiNcYUJAuYlUoY3n0/6jLmqPGpRZei48zLXWWmchOWDbvyEQxupIgV6V0OgDD8lpFJkS2fquu22PK8snCGdtyHusm3zJt171VoW3axq8yMFSItsZlJMYPmZpGa6WRSHMHU8A5HaqYFCGJNaOxZ75kONvTq46gbNgftTrWdh45zojMpsn4Ax0FPc5wc78PU6B7E3ZgUF19sTOmz5gZTBl95GPVjrxr7cqrjAnSc/Q7XfqYuEKyE+sZE9kdhPZPrU01zHB85jNjEb4wsm3m0obV3rTEl0NLhhRzG9vwL6rLODBlmbRQXXYKuMy8NLXNwJkWd6ZLgnzES9RUmRTWOh4JwA2UXOVMJha7i2FbqvRS42TsZC4PqDtlwNajbj0mRz1AveQENwaRIy5Ndd5n6Ley2siAAgiwIE1b42bw/KvIyncbDyKmb68M8q6NhnkgkOY/6Hpq41QVhSgvjv5me5XukuV2+0ySzMD8K1F+9YhaalgtO5perCJoLWLo85HNWfv10LQT5b7yHC1vNmebC05+V98tTjlS+nHNqBTTRXkEKpF6UVVUKJiZFYWa0M/wJmXlyqCotkyuHY0QlZrqk1UL8Jmor6FXb2Pc6uyC/rUbw8x6eolRyJ/NzrBORtG0qQmbm51c5AGSmjllm+2lJr/TJZ9iHej8Lmal8xYbG8ZmYyNiKJPHfpBVG/TbHRwWjpqwcedo1yazPZz0rh8+YxphThRS3coz5DZ74WlvbKp8xycy2chxVmZmqxufVfHYvmfVTqamfTWuJ/asDB5I7+c8N+5wS64gyS4pj0WQvmdU1KPs06HzW1z/nkDrHg8wN3bUoB0laAbx0FX9z3xNEdoSf7pDv12WnXKIYlf1S9TQtGbQempgU3XVXXaDaRGoAsi7DggAIciMSpt+cVV87kWgI1DijZp2Bf4wKEISpkHmpDZGkqIURzWQu0ycthdJPFaZNIJLwykOm7+rfFiQlBSumRF5BnhPKxR6DEEZeoShyjoyXIN+mIuBiVivCBXlOysz/ei1It3bobpEw/SUsNVnrdB7mOSmziEGINp9N6yhIf3F8OZ/VKopBnqvK7J4b7jdXTKbuIN82AYQgz1EeEYNAvec8ofrJ67Z5Bf22bsYO+lytKd0m03/Qb+ubLPsgiK4z9WXQb3qNQy3vcHvWpKu99IPptyB8PF5re0EABDaMi/LWr3wNm5/faZ2oujtb8Sef/Bgu2bA+yPqY8Xvmz8XAE2w0Ok07k2IZg8cPoB6Tjr4pxVJo6z7D1VTIB8aGjyE3YPb5ItWD7lOrhZM4wdWJSMXBU4lutuNJi4q/vV0Q2uguhuzkBLKjdDE4C8U0NC1BY3OH6zjzFD1wcCdiU07mSD7Ueuo6JFLuxak43lNTDMizf0IEQtZXwIQeg8D2jA28ZjAjkzygE20dIs7D7ep/61Ug22f8OdV5Fpo7qsxz+k2yXoHuYqDM3KzkSVZ3MeSzGWRG3jQWEYonu9GiMCGaBBs4tBvl3JBR5vSi89DUWmWs1G9i/xUKtCDYf+HJiHJLngfdxcCxGR14w1l8LFZGKdaKjkXersjhvrdQHDUTWtW3noZ2j+fZl5zP+umN8nLuy9O37mIoFvIYGzxgdDGU61vR3lVlrDR15vCx/SiOOwsf8d76tjPQ3i14TEwX1xbntO5hkNYONyZFMlZS5rqYfQ2SZTPW0Im2ziqbabi5EUeqazma20WciOni3JDFk/TfacFSLY1qDAL7nUy8tLjpm61cB3Ks+Ls6ju66KmZZBVWqb77LdIJnP8sAZFVuXXfI33R9ybgVWexLfZ7f49ziN4XFNGZ0/dHFIdqtuxjKltXBrYS2p2Ka/nFBAASeMj77v2/Blhd3Y+WKMzCRmbQ6bHBwEJ/8Dx/Gu294Z6UtTHXk5Gf2Ap9jeuOBAwesIJXrrrsuSJsD3RMVIHCg9EkY6IPTN5nMm0GfVwHCxFgf6sY9mBSbL0JjyyLr1XJRqZu8F5NiOVaH5Lo/RyIpgvz0NEevoCDVzGdnUixj7MgWJGMmqmQgV25C0+LLK6BDXzB+TIr5nqvQufyqSnu5+CvBgqUpi0qXvnHT5cmk2L8PqYI5P98iHepYj1RaMCnqLgaLSfGFryA2pVPxCinyLavQubpaOlmdGxwzL6IklQvAwaR4bAcSLoFohXIKqZ6N1UwLQ4aLZ5Bi2wXoWvW+SjfyZCzN5n4ycz1Lf7EOECZGDqE+Y44hKKEOpZb1aKowKbK2iD0GZmT7Xa6xHoW0vdyzHlPDzcdeNKo6S9QgNR0gjA3sQyJvnhsl1KO++6qK+4p9I1wMwpVjAc+dP0TDpLlctM6kqMus6gJ9TnM+8JLWClu552O7kS6ZAytL5Xokeq5CXb2wcugyW0yKO7+BWEl3LQoJdCZFXdd56Q2CB9U9qQIEr0A/yiiDe9m/M82kyIOJl+7gPsIYAlW36kyKXq4DyRnjxqToZ3mqxSLNMVsQAOHhRx7HP3752xZSet+N1+PwkWNobEzhmc0voKujFff88+2VOX7//fdbf+cp9Pzzz8f+/futiUpz5PXXu5c/DbrJyvuiAoRazW5eC9uvDWGyGGaSSVFH1n6RwTNBlHSSSfEkk6JcDzpREv3xnJMnmRTNgHemiJLejkyK6sGA88dPV6lESToIE0CO8Ucl11O6KbhQrbcTNM2RY0Yriu4yOCHSHL906x146NGnsHLFmWhubkJmchLt7W0YHR3D/gNv4Ltf/0csWiROu7t377YVzmEHE1kSjZ533nk1mVPUDTgqQKjVgqCeuPwAgf57VIBQNU1VXRth0hx1k5nfopsJgKBbPcKmOdpPa/6LfCZ4EJwWhAImtn7ZvRZD80p0XvC7yml8qnLC9DuNWye26ajrWqiWTYGVYdIcVaU6V0RJpjUYJs1RlZnvmgseBF3msGmO+uY1FzwIQmaa3YXVI2yao67rZpsHQVo91E3WT1epAEHXc1EBgvqeoADBrQT5CQMQHvvls/gf//WTeHXffly6YR1e2rYLU6Up/PTnj+Ofv/EldHR04Omnn8bq1avxwx/+EG+99RZWrlxp1WGg5eH48eO49NJL550oyTQJw2z0pkkY9PnoAMH5hTAAYT6YFPV+CgMQ9DEKcgqYCYCgg5owPAi6zHMFEEzupzAAQR2nuQIIBLx0MagbQRiAoMo8VwBBH9+wAEFfD3MBEHSZwwIEXebZBggmF0MYgHCSSTHoThTwvqBMio//2xP44q3fwmWXrMN733MdYvEYspN5PPToL/HG62/gB3ffYX2RoOCpp56y4g0IFnp7e7Fq1Sor0vnFF1/EDTfcMO8A4UR0Mei+RL9FNxMWhJMuhpMuhpMuhv9Y0cQnizVVU0v17Un2DQEJ9yTBdyIuP101O8WaqnwKQS0IlNvEa3FCWBC4wfzvv/8Sfv3sdqRSSfy7P/pdfP9HD6JYzOPz/+u/Y/XqVbYxZ6Dixo0b8eabb1qBigQMtCCceeaZnoxaAXGNdVstLgbVfB3mm7zXVDEs6DvCWBCK6VVoahdR1KZTYhgLgtuCNMktTr5kPmu1ZTHQLyeYFJ1ZF3xPsZxAwmJSFAFSuuk7jAWBMkjCJuvdFn9CleZWl5umeuYk80TqZFJ8GcmSOdLcKkPcVmVSrM3FwGArQTIlx8y/kAx5E5zlnr1rMTB47sqK/17yO6gZKWEsCNLNIccsMpOiZ+nkGPLpNWidzr7gWHKMVU6BMBYEO6eAcDGoPAH6/JDBdXqQ4ujxXUi6lE4mk2K5bSPS09U5+Sz/yMDZsBYEnYvEK03bKwZh1IdJUS3WRLM3/e9S5rAWBF3m6EyKdh6HMPrIDyAEYVIMqjtM+tCPWl/MPXeWSM4TWtDdUqfVgMig+4h634IIUqRAnBwP/vRhPPPs88hMZnFKbw8++kcfworlZ0VpV83PRAUINX+4hhfYmBTzk8j1b0F9zEnAwc22oeMiJNPuE69/3yak+n5llKaY7EXzhR9B/XQ0s0k5CYIhZ+68jEY2MSkOHduLVInpd042w2ysF22LV7sy/BVyGWS33YFYyckcaYGAZTej/dTzje3hZsK+Y4qdiSOCv3GDMAGEsaEjqJt8BfGYoFFWr3y5FU09F1UYJ/XfqVhGdvwQDZk3jHLlui5D10r3zBzKJfjZqyRGVfDA0tCCLc+RxTD4Buqy+xDXUtn4bB5daOld58mkOPLiN1GXO26eG73Xov3Mja6zmBkBTLEzpYvJfHwTk2JmfBDl0ZdRF3NGyBfKjUj3XOIgkVKFGN79AOpHdhvlKrSeg47zP+gqM095ki3RBA4IWk1MipnRY8D4LsRjTiKsAlrQtHiDa6ox5+Twzh+jYfw3Zpm7NqBjZTW7S7+JaZlkS3QyBIpTMzN2jEyKQ4cQn9xrnBvZMpkUL3aVuZDPYXzXvWjImphBY8guvg7dZ3kzKZL+XJ8b7AvqY7c0R26CYpM06xv2AXWRif+E4I5A0rTBylO7lMeN08Nbd0xYG7yqV1QOB65N6gFJoa6OI/UqATrHiu1XWR3lfTJAX7CT2tPj+SxlVlNaw24vCwIgqCx0RKVMG1HNQGEbNRP3RyVKEieBagnUsLJ4pfr4vUtHo/lcBlPFHDl9bY/WJdJIJBjhLCYU+5yXjfWPKXjjQybmYSTTzZUUR2vzLRa0xSlO6Dq7IO/lYpTAgfdwsUjSIWvssxMoT9lBTSxeb9FCx+uqJYd5CuKCqG6OZWQnRo2MZLyPufmyffwOF6a6KOW80xssGf7ks5SXz6qkQ7ncBEoFLVUxFkdDsqkCokQ/UWbRB/IiJwHbbLoam9tsKWVqLQYJBEyshPyNfSy/w1O8sLSJdEsr9Ss3jlLR2c8NSW4qVUUrWE6rBab4fG5yHPmcwdLDfm5ut42Tfiq0vm1gUhQMf2QXrKb5cT5XWQkp8ySmCtp3Y3HUN6QrJYgpn6kWA2mAJzOjxvmcbmpBfUPV7Gwi4eG/SQuQOlbclNR0WZ74ZO686OcJlLgG1YtzI5G2fVOvxcDbC/lJZDMGXo9YDOnGVtQrtL9OmUU/k+nQ9mmLxbHeNgfHxkbQ0iJM9JbM2XGrToits2J1SKSaHUyP7GuVaTSXzSBvms+cGy2dts1fP92KdUkuEicPCi1nKhDO57NITJedppxB9I1Y43otEMGCaB5bAofqWnA7jfNZkTrq7GvhFrBTQKtWNak/CwWhG9RLABthMRSp1mQ5ddJJy9geXYeQH0VnRjXpGROIlPctCIDAxkszNxUZiZLoaojCOGfUtBH+kSCFNKphL04WBkjV1TkHMsi7anExRAU1JhdDEFlrvYcbJhe2G/+A1/tp2jTXe/CXiu0lqDHxqvs9LbjTi5FkrmVucE4JmcMzGlJeKkavojBu7Ta5GPz6SP09KnW4OP3w1Ngc5nPWvZwbAtTYLStBXxRVZlMQXNBv6i6GoM/J+6LKzOf9Cga5yULwIQ5DVcAbRu5aZNY32TDfPXmvvQdkhVhTvywIgEDBqMS+/8Mf45lnt2JgcATnnH06/t1HP4yzz17hkFvNu5eEOVQIJrNl1MnwdncxWGbz0WPIT444DPaJVCuaWxcjppR31vtpcnwYk317DN0XQ33LErR2M35BQF49SJFjQjOmzi8uayrIjUpnUiTDXmb4TRS1ugZ18TjSracgmXLfLNjegTd3Iz7lLNbEWIC2pRdapza3i8CMG5Ju9ZAsinJj1mMQSlNTGB95yzrtqRfrJ6WaFiHd7M4qyPtH+g6iOH7Y6FZJda1EY2uXq8yUleZNZx2IuAWwZbVK3cVAoDExfMiK8bHLHEO6ZTFSje4BX7x/6MhrKGedLoYy6tHcsxLJJvfnJYUyT57qxVOMyvqmEyVxIxofOYpCzn6iJkhMpjvR1CrSoN2uieHjyA7uRyzmdF8l2pahudOdlVDGzeh1IHii5byQVOF6DIJVT2L4LRQ06xLXQbKxE00t3Z4yjw4cQnHUSVrEwkfpzjPQOF290vQSzglaYJwyx61+Vi20KlHSVLGAseFDmNLmBtd6Y2sP0o2CBdXtGjn+OqYmnDE5lLn5lNVIerCZus0N6nXOZZURUD3NSxchn5eHHSkfT/BVC6Wot6LyYwhdNeGoO6PrKr7PDZTw36nvdCsE5zQ3Xx3UqxZX4T7JGC0nfI6yUxavYk3USdRd+vcJ3Pj9qACObV4QAIEN+6vP/B1e2P4qFnV3IplIWGyKudwk/urTf4LLL6/6rR5++GFrEqxfv97yyxw7dsziRujs7MT73/9+z8kb5seoAKHWk0BUKwDbpsYgZMaHER973khbzMVear0Y6Sax+RiDFPc8jOTwS+Yui8WRsJgUBXWxbvXwTrESBaSooHQmxdEjzyMVM1P45sr02V5qY5qj4qhUWsuOIffSV12HOLf4WnSdJXzjwsxNCxEroImAR93Hqb5I+mxNMQjD/a8hXTBTUjPWo75jg+WS4aWfxi0mRYsHwRw3kWtZha5pJkVdZr6PFK1qYSBVZrkxmIIUx/p2IlE0V2MsognJRZdVlIrKyCjf7xWkmG+7AJ0Kk6Jq+lYDVE0DxTGgm4GgTAcI4yNH0JB52Ti+ZPgrt69H4zSwETIzeK5qbRnZ9s+uFSgL6aXoWPuxyrv1+Tw0NIiODjPQE0yK9CEnHdUcxwZfQ8KlRDWZFBOLrq7Ep3AO8j1yM/FjUiyletG67uOuMnuVCeaY0FQtv2VnUtyFdMmlumi5HkmFSZEyU04ZODs5PoLCrm8jXnIJNG5ZgbbzP1Txlesmey+9wXu5sUs/u/osN3huhKa6A+q6MVl4vJgGRbG7YkVPmAIaw+gOOVg6kyLbZTLzU3bGknCNuzMpsthbVUZ9gXgFYQbZDxcEQHj0sV9YaY4c4PfddD0GBoYsBbXp2a3o6W7HXd/+SqUtDzzwgPV3Lsgrr7wSO3futNIc+/v7cc011wRpc6B7ogKEEzHNkRM5DPmIpAhWAQIX48SRTUjEXZRLKYFETzWL4WSaowisVGMh9IkdjSipHvHOKyonTFHhskrLawGT57+KeHHMuI5UUMMbVAXFMebmKy0b+gt4suJcouvHARAG96EhZ6YtJpNivrGaxbBQmBTH+nYhUTRvtsxiQPsVSKUFyFYpmyXozuy+F/WTZtrjqWQP2i6a+TRH3yyG7mvQMB2v8XZjUpSHgzC6ar6JkmSlTV3HyrVzQqQ5funLd+ChR57C6aedisW9izAyMoqujg4c6+vH4cNHcde3vmRZCHjt3bvX2oxInETlw/ryBBM0s5A4Sa0MGAgJuNwUFSDU8k3TBA7zvjBpjirVsukbYdIcVZePvino71ZPkQ6AcHQTEgHTHB2b4eQIctuqlNz67/nujeg8+9rKP6sLbq6IksTHq8W4ThIl2UdJVHWNBhByjWvQphSZ0hVqmDRH9VlximMJZxHgabrkKdSR5ti3C8mAAEG34oVNc9Tbe5IoqTpSKg8CQaoaJOyX5jgbVMsq62VQHgQCSFoZTkiq5Vv+7+14/InN+PM//Th27XkVay44D7/Zd8CqzvXTn/+bRbXc1dWFJ598EqeffjoeeeQRHDp0CKeddprFfcBOo6vh8ssvn3eiJC7UWuIhZqpY08jgIaRy5uI2XDoqQDC6GHb/HMmRba5KsWHdpyr+xPlgUpSxJ3LBhOVBULkq5gog6DKHBQg6BbBXsSZrjGeAatk0n8NYEE5SLQezIOj9HBYgzB/VcjX2KywPgi7zSSZFp7qVbkQ3F8MJYUFgsaZbb78L77zuSqy5cBW6uzvQ1z+Izc+9hFf2vop7vnubIY5SkAAAIABJREFUBQJIhkTGRCJCkiQRUa1YscJC96+88gquuuqqeQcIJ6KLYT4sCCddDCeZFKU6PVmsyUnsNhcWhLebi4EgjDKrQXvhLAjVyqRy7gU5XDDWQz35n7QgTPdeUKplnpr/4q//Ftt3voaWlmZ87I8+iB/c+yDGxsfwl//tP+Gaa0SZXnlt374da9aswcDAgOVmIBHE4cOHcdZZZ0VKPzObDScjv8vNXxTEXaBvtkGekffMl4tBl9Fv0c0E1bJu9QhjQaC8aj8HWeQLoRaDKrNw1ZDAyZ3saqYsCOwvVcGFsSCoa0Hki+t56NXZU4uLQY1BMFnEwrgY9H6eCxeD5XxSYnnCWhDmw8Wg93NYC4Ku62bbgmDSpX66yp+t1L/Qmw4QVDmCuhjc9oETwoLAxnNyfOs7d+O557djfHwSpy5ZhE98/CO44AIz+12YjTPKvfMVgxBFVhNAIGFJaehZxOFk+CuV6xBrvwSpRne/at/eJ5AefNYozlR9C5rW/CfUJ0QWgMnFIBj+nFwQ6iagZzEMHd2FJpij6zPoQXvvWk8mxdyLt7p2X37Je9B5+jqX38tWLItbRgCjvPmbKYthZOAQkvk9xmyRXKnJYvhz41uwUiRfvB3xooEMh3Tf7Rdj0Xk3uLZJyGweQ+a2cwxoZdPTHEf69yNlZV44U/5yaEdL7yWeTIqjW29HvDBinhvdG9B2tjvD3+DgADo7zambDMhiWhfnjR6kODHaj/j4S0aGv2I5iYbuy23pa7pwwy9/H/UTrxtlLjYuQ/uaj7j2syqXfhOzjsh5wjHWYxCYeVGf2WFMYS2WU0j3XuWams3Nd/hlsmweMPdzy3K0rf59V5nVOWsC8AzylpHzahbD6MABJPOvGt+bLTWjpfdSGxGWemM+l0Vm192oz/UZn8/1XIuu5e4sm16bpU4CZ88EmLTmuimLQaQ+lirjo2crMX6EQbOmZ3UrpTnjgbrDPUaFLgLJwio7RZWdfxdkbEKXqpfKBcL2u7FMEuSYOE44h/wCmf32mwWRxaAKScUmiWhk+oxfI2bj96gAQTCicUKGJ7RhO1QrQNh26c+SSbFUzDq2gbq6JBKppsrrBYEPueurxDJknpvKOTkFLO6DuqSNpln3JfJdXFwMCFIvyXyoMikSGEoqUCvKPTvqyGW2cpKTZHGr9qlgJYxVZS6XkZ0cc0kZjKEh3YH4dPvYXuYNk1pZXjKlSWdxk/nQEuzoPAhWGlV2DKWSBsRI1JNstpjM5CXAkWA5rCiLyXFgiiyMzs26Llll+ON3OCfVIFyZwmWSWaWP1QEC21/IUWbn+NQ3NKJek5nfUdcimRQxZco2iaEuaWf409eR9e2CiS2PrG9McawyKdLS1N7eYXWV1VayP1oMf/ZLMClWOS5MWQyFfBalPIGYs59jDXZmUF3moPNZBwgWM2B2AqWSXWayh9Q5ZK6mS8rWcf2WCyaWzTjiDY1oSFbbbJKZ4+6cG3Grj1UzuwoQyrTykP1Rl5lrrV5nrKymLFfn89j0fNZHKQ4xn6vkc/rpXcwNymxif6zODb5ZT5GssiHan1WZW+U4qnPZbWyp5yRFc3X9Voss6Ru5zMDR9R2Bo35Q0uPMpK7U202eDSkrLQV8lwnIkG/DxAEhU1lr4QdaEACBk1vtHCd1b9itsvb7TXSrQd4q2sG0v2hMivpmG+Sb8p7oNM3O8rhhvhv1Xk5qjrVb2pvXe4Xii3medN2fpy+yZMw99msLFZgAsCI9LcxlorQO/nx0mdnHnM+NjeFZCWuTWXA/eFG5urW/FiZFysxlGFUxRpWZ3xWnuWj9LIKbo7E/EuxFfTaTYR2SKDJTb5QifzdqP3POnGRSDK45/O70yvxbEACBDSAC/NVTm/DIY79ELl/A0iW9+MgffghLlzoZzlSTtjxJ1nJqN3VgVAuC32DM5u92C0IZk+ODmCpqNQJ4eqlPIdXU4Qli8pNjyAyZI7ATTV02FjedMlX4mvMGhj+icsHkJhZ5wXItSQsCT3n5yUHHCYL3JtIdFWImUx/y5DM5fMjIA2/VYug+w8Z9r7+DsoiTrfP0wpOtG5Mi0XtuYtBx4rLS9ZItSKa9WQkzowPIj5sLH6XbTkGyyZ25jgrWxLfPtvGEKImgnEyKeeQzlFmzIPC5VCuSKfe4Br57cvgIcplhxzBYjHftS23WKf0mQa/NGgH2X8gbz9OePDGZmBRzE0OYmrKTSonTeKM1n70uPjs5ctR4S6q1B6lmd8ZKzmfOU52pTu9n3YJAIqzsxIDTusR+TjT7MlZOjh5HbnzAIbPFxNi2xNNF6DY3yDzJuaGatG1MipR5vM9YD6E+2YbUNOmXW19PDB9FIeMkO6PM6Y5lSPgwKXLjd6sfYbNi5bIVPcI1S1ePBIZSNmGxpL4RBEtiHLM2cO+lqwSDY7VGh1stBjfdwTlNsi7dmqyTh8m55bQgiO9TdrdiTXLvNFkQRC0GUUgs6rUgAAIn8xdv+Soef+I5tLe1IpVOYXx8AnWxMr7w+c9gxYpqRccHH3zQauuGDRsstN7X14cdO3ZYaZAf/KB7RbawHRQVICyULAYWpomNbDb6P9kXpdYNSDcJbgmp+NQTV/+eR5EafsG125IX/deKiTNMmqPoH7KvJR1MiiNHtiIdGzR+M1fuQHPv+ipzYqFg/V2eTgs+TIrZnt9C9/LLK+2lQpHImQvTKxjJk0mx7wDSRbPP1mJS7LwEyWl3ju5iEEyKtyJWclbcpKC5tgvRteq9lswmF4NXKVjVf+qo5ti3B4niQWM/F8C4icur/ToNmlTlPPr8bYgXTe4noNC2Gh2rqoym6jpiGyQznOnjgkkxYX3bEYMwchT1me1GmcmkGOvcWLFECReD3S3ixaRYTJ+G9rUfrbxbX/vDw8NoaxMxKCbAI8v9OmIQhl5HQ3avWWaQlfDaittLJ0qy3vXyPe5ESeklaFv7711llgQ7po9zQ1LdDLYYhOOvIDllri5aLDcg1XNlpYCYnsWQzYwiv/NbiBvdT0C+/UJ0nHtTpR91F4OXzuV6lRu9tTYUgODHFig3ZJNr0cvqyvttTJGTzsB1P6uRieVRBQjqnNfHSg1EdotBkG4ZUzVIvs+vb/z2xQUBEH711K/x2b8nyU0M73/vOy1wwIb/+pnn0bOoHXd9q0qhKwECO+9973sftmzZgqVLl1ppjxs3ugfA+HWE/vvbHSCE4UEwxSCEIUrS+84vMngmshhOpjnOVhbD/DEpzlQWw0JhUhwNQZS0UJgUR47tRLp82FVdxruuqVTOfLulOZoa5aerZjuLwS/mzAvosT0nRBbDV2//Bh742S8t68GFq8/F4aPHceqSxXht/0EMDA7ie9++Fe3twtS6b98+y2TS3S0KnQwOCpM0I7rJpKgW9AgLCtT7owKEWr5Z67PzleaoB934LbqZAAh6X4VNc1Sfn6s0R13msERJ6vNzleZompNh0hzV58WG4k61XAtA0JkUdbnDpDnq/TxXaY7qd8OmOYY54NCCxxoD0nwuLQicU2EAguNgMDaI0s47XdVYsflMtK3+sGvc0GynOcqgXnWP8NNVKkAwVdoNojv0NEfVJRs0zdEtSPGEAAj/SCbFX27Gf/mzP8YL23bi4jWrsWfvPjQ1NeKhR36Bb93xD+jp6cGBAwcs5sRHH33UMk8TJHCSEzBwQyezYm9vb637rPV8VIBgOo2HEchrkfi9JypAMAVWhrEghHExiI1tzEr9qYVqmZuN9DGyX8IABBG5XK3qFmSRzwQPAmXmJd0iYQCCHoE9VwBByMwMl6ofMwxAUOfGXAEEfof9Y4vU3/Zd1E2aT8aF1FJ0rKsWa1IVuHCLzD7VMvUG/0iZwwIEPQ5oLoiSKC/7WvrYw/Ig6HpjtgEC5WWqohpEGgYgmO4Nojt0gKC6R4IChHljUvxfDxwrf/r6arqX3yYU5vegREk/e+gRfPXOe/Db73sXzlm5HN1dHRgYHMbWF17GS9texvfvEhz7mzdvxhtvvGEFwLFIE33Il112mTVBaVm47rrrTjIpTkdQh3UxsH/VGIQwAMFxkshkXGtizBRAOOlimC0XQwPilj+/GkiqpzmGAQiqUp0rgHDSxeB9wJkpC0LtLga7nphtgEA9xbn8dirWJKmWdbmlzp11C8KffmNH+Qt/cGaYfT/wvUEBArkPPvM3/we7XjmAjo42/OHv3Ywf3f8QhoaG8Wef+DDe+94bbd+8++678dGPfhSPPfaYpchIFkPQQOvBsmXLAsvndWNUC8KMfDziS8JYEIrp1Whqd2aIyE+HAQhhF50k7whvQbjSlV8ijAVB7161ZK+p6zm33C0I25EsmaPjS+W4FQza1GzORAhjQdDlYp/7kaDIU6UepDh+bCsaSs7oeH5jqlyPuq4rKhHipv4IAxDU54MxKQqeiFqqOZpknl0Xgwhe04MUx/p2I1E0V2PUqznqMoe1IOjPR7YgHN+JdMkjBkGp5ug4GCxwFwPl1dkbw1gQ9Gf5vigWBPU9QWMQTN/m9zlPZLaEad4zuFPNxAi7tcQWAkCg0AQJt3zpNjz/0m4rh7mxMYk/++RHcc3VdprlsA2Men9UgOCG9ILK4TYRgjyvTrZsdgIYesbI8Mdg0HIbmRTdU+j6X3kMqSFzFkM5nkRq3Z9WgpXCuBgEqceUFSuiMykOH9mOxtgxY1Oz6ELL4otsVg61rwvZceReus1IhMMXZnuvQ/eZl1berT7rt9nSxMxUTBOT4lD/G2gsMFLdScBTKKeQ6NpQSc+UaUzyBGNlMbzwVcQsoiTnlWtfg67zquBYn1teWQwE5wQ1JibF0f5XkSyYGfoKaEFT7+WVU5YuM6UUTIrmLIZi51q0n/Me136mv1uSH+ktVtkfHQBh9BgaJpjF4OznqXID6ruvqKTumWQe2f491GXMm3Wx8TQbk6Lez16shDI1ltkXjiyG4TfRMLnHKHMJDUguvrYyn3WZ+f/DL/8ADRlzRkGp6VS0Xlh1i+gye7FsctNQSalsWQz9e5EsuDBOlpNILb7CRlimfjc7OY7czm+jrmgidwLyHWvRcc67bXNLPc2bmQrFLNH1sZ1J0Z0NUXXNmVwM4psknHJmqOiuKhOYELpjopKqrc9pulPp0lDbqcrOLAqmQppSESkvYyBY0t3NxcDvc627gQA/AOK3rywYgEBBZWdzA0mlkjUhH7+G+/0eFSAslDRHC11mJ1AoODefhkQKDYnGyqQ1xU2QSXFihPnQToXc2NJly2fWlRP/n6CB6Fq9uEi4GGTKnM6DwHSxbGYM5bKT4Y+5+XX1VQZC3cVgLZSJYVBJ6Rf9501tPZ5MiiJvnDnY9m+TfIZgxotJMTc5hikDw18i2VQBUZTJxKTIMZocHzLyLzS1dqM+IUz9bB+Vmcr+yH+jsncyIsatPlb92Xy2rU0AQt5PmU1MipTZzqRIZjvYmRQzo5iccFIts6+a2hbZxsnElifyvvV+psxV+l8dIFhzKjuOYtGZEkoWxUSySlxlZFLMTVq8IDqXgZWf39xpm89mVsKcZdXQ57PoZzEvdYDAFDiyTprnRqPG/kgmxaLNclPITiBjmBuci42cGwrjpVNm5vyTi8Qkc9KTSTE7OeoyN5ptTIi6i4F9kHOdG3FrDaprWKdPlhYmGasj+5qkc8kk01+rcTA6JwHnFNuq6yvyAEh9w9/4R3WlCl1lHls+q3IYuB3eKC+/r7NWCg4GJ+W8ri+pF6h7dPDLeSUDKvltzlU3JkXxfZ1FkkyMVd3lt+eZfl8QAEGQXDg3oigNmqlnTBGrQd9dixWhFgtCreakoO2bqfsEaU4hUlEs0ykxjFxR+1mSonixj7nJMV8ys5+pQEx87X59Nl8y18akKHSJSZn6tVeAMSrj8Eyo4sQniseFvearnyln9FNmbQysUdegANtm2uOw/X7yfnjq3wUBEDhIVAhP//oZPLv5BYyMjuHsFWfixndfj1NOmZmshLATIaoFIex39PtrARf6Qp+cGLJqMehXvD6JVCOZFJ1mNXlvPptBccJcdKXU0ILmVkGyxEsHU/JkawJ99JdJamXdglAs5JGf5GnaTrMXA2sptNtO485+K2Fi5DjiGtOevI/Mc+rpRe9nnjq5kZpY3HiKkKdxZy2GknUyLZv49hPNtpoVprkxMTqIWGHMOG3qm2ipqW42usxUsKaTA4dVWj7k+KgWBIv9MUOZTUyKbQ7GSv27mdF+wFgjAKhvXmR7Xn9WBiq6seXJE5vJgjA5MYjylNOCYDEpNlYZK02bbXZiFKWsk+GP/RNPtSGlMFaa1iD7Tz/DiCyaWOXUr1sQLIsYZdbrdFjsj00OJkT9u5ZlyVAPpcw6AekOpBqrjJfB54aoMaASX6kuBkvm8QGHFY/9VJ8gM6g3+MmM9gGFjGM+l2k9THfanneuQR4YhMVKvST7o1r0TLUgCH1Dun7nMlLZEE0uBjddxW9yfFUaeLd4BeoxUYtBl5tMhvUVC5P8VT/ICdkF2NLbLSnd6cagK8REHy5Ya2k9cX5fEo9F3ZcWBECg0vjBvT/Bd7/3ANraWhGPxVAoFtCYTuAfPvfXOO20pZX2HT161Eo7YjAinxsaGrJ8QOy4FStWRO0Hx3NRAcJCcTGQ1QwjzxljEBggVbaYFKXJ2VmsqX/vL5AafM7YnyIG4c8qG7bOg+BVIY0TmXUQOHEdMQhHX0YjzAF/k+VOtPZe7MGkyBiEr7iOf27xO9B1lohBoKJQizVxcXqVTvaKQRjufwOpwl4jY2WhnEai+xIkpt0ERibFF29HzMVnm2tfW4lBMLkYvNnyspZiMsYg9L2KZNEcg5AvMwbhMqWfnS4Gr2qOxc6L0X5OtQKlqlTZBu8YhHFLIZuYFMdHjllMijFTDAIaUNd5GZLTbgaTi2GYrIQTZn9+oXEZOpRqjvraHxkZsQKhTYBamIaFC8YRgzD0Jhqyu41zkiybqcVX24pTqS4Gvmtkh3sMwlTzGWi74A8r79Zl9pobut/bHoOwD8nCa0aZ8+U0GhdvrJj6dRcDK8hmdzAGwRyfku/cgM5zqpU+dReD/v+qELpO0WMQvOIIJHOrdCeorINeukrSF6s06zrPDt/pFSxsikFQU1IJFurrWTzLWdxPtUixvXQX6HOQh6lsNudqBYhuHRK9vyAAwubNW/CZv/2/llK6+b3vxNFj/VYMAq0Jy5b24I7bvlCZK/fee6/VSWeffbZ1PxXQa6+9hpaWFtx8883zDhD0fOawAtXiJgiTxVBIr0bzdBaDyTcXJotBb6NfZPBC4EGgYpeLPUgk8szwINAfXK1AGSaLQVdufqCGYyLNsOGyGOxpjiZOgTBZDPPFg8B1qPqPw2QxqDKzn+eCB4H9rMocNotBLy4XOYshBJNirTwIelrjXKQ5htVVs82kGJQHwW0fOSHSHO/4p+/gxw88hpbmJqy/+EK8eegIlpzSg1de3Y/xsTHc892vVOrev/DCC1i+fDn2799vmX1l5DM7cN26dWH3Y9f7o1oQZkyACC+KChBMnwoDEMJkMYiNrXaiJF3m2tIcC5ZVw42F0zvNcRuSJXPmxWynOXpZPWYKIJjmRhiAoD4/VzwIJpnDAAT1+bkCCLrMYQGC/vxcAATHZrvA0xyFi2HSFovjd5hRAYIpyyLI4WImiJLcajGcEADh/3zhy3jy6a34k098BNt37MHaC1dh72/2I51O4bHHn8Q37/gHLF682CJHouWAVgSiTbIqynSdgYEBrF27FqeffnqErdX5SFSAoKPqsMJ4pfr4vSsqQDCVxw0DEPSAIb9FNxMAQVbxrBRrmhxBbpsg1DJd+e6N6Dz7WusnYZarVnULsshnwoIgo+BlPENYCwLNjNInOlcWBOlbVU/jYQCCahGbK4AgTMO0ICQqUyEMQFBlniuAoLreKHRYgKBbHucCIHA82dcSWIdlUnSmLuZcQTp1DK1vVXN/tZqjJBNyW/vyO7prkff76So7QHAWawqiO5wAodrOoBaEExog3P/Az/BP37oXH/rAjTj33OVoa23F8Mgotmzdjs3PPY97v3en5U7Yvn07du/ebf2dlgRWWFu/fr01qV555RVcf/31MxaHEB0gsFqh3bzpt7Grv88PQHCm/4QBCI6TxBwwKdYOEKp+uyCL/MQFCCJ17EQCCKqpe+4AAvXGVCV48O0AEBjQyJoOUQGCXknxpIvBuVP4gZ8TwoJAxsS/+MxncfBQHxYv7sYffOj9uO/+h3D0WB/+w8c+iN/5wPtsPfeTn/zEKu38zDPPWEE+DCCiq+HUU0/FKaecEmY/dr03KkCYkY9HfEkYC0IxfT6a2qvBn/onwwAEKjZ5kg+Cyl2ZFI9sQiI+aWw9g7oSi66wnQrVG2fTxcCgIraPwFTPYhg95sWkGEO59RI0zhqTojtBC/tm4TEpCq4JNTLcNoYFwZsRjUlxLVrbe1xXThgLgvqSYAAhGpNiuf0KyCh1XfCwAEF/PqoFYfT4TqS8mBSVao6Og8Gsuhiqc4PfVYMU/TZR2RccS64JNYMjjAWBBwk9mNDvcMHv8XChBheqQd1+QYQy2NT0HmFpyll6yRTkqPdTlG1lQQQpUnBWbfzCP96Ofa8dtE4siWQCv//Bd+MDv12tLR+lgVGfiQoQaNqkBcHEjBVEllrye9XJNmllMWxBHPZUNspQQhxoXY90U4clkiktTDApbjWKXIqnkPZgUqQVxEQQwpeptMZ6FsPIkZeQjvUbmeey5Xa09G6oRNc7ijWRSXHbbYCWIikbkO99JzrP3FBpLxe2NEGbfJPyOfaNjK42MSmO9B9AsrDPmC0imBTXg+RDVr+XmL5JopY68f9TRYy/eAfiRXOaY75tDTpX3VQZA70gD5UHWdbM0fU5K9rclMUw1rcHDcU3DRkBMRTQjHTPpRXApxeYojBeWQyFzosstjx5OQsfjVqFukwyU1nzNGrKYpgYOYq6zA5jP08hgXjHpUilBFmSIP4q2Yh1Rl6+B3WuWQxnoGNNNSNA7+fh4SGLZMoks0jLK1sR5s4shjdQnzVnuEwhiWTPlRUZ9eBmkcXwQzRkzKyGU03L0HbhRzzmRpX9U1/EInKe6XeCeMiWxdD3KhLF181zo5xAWmFS1GUmyVlu13dR5zaf29eiU2EG1fuZ489sBFM/Ux+TLVD+pgIEPsffTCmAlJE6R2aZ6DEI4r3MDnDyXuiuKpN11+S2cNMd8t/tTIr2sVDHiu+mTud6cXMxCHIpgm5BqKZepsynIHuQes+CAQgVRZ7PWylnHR3eefphGxr2/qgAYaGkOXIjmhgbRG5yFGUtNSyZbkdTc7V/hUJlxT6xcfEq5HMYOfobg0KOIdVxGppa3GmaxaaasdCtbbLFYpYilSRDnNg8kTMDhRf7bnzkKIpF+3N18Xo0t/XaWNwEkyIzAoSS4zcHjx8Ccs5c91Isgc5Tlld4EEyLmsqAViid4Y99QoIh+R0ubsrNRSuv0eFjKOTt9LJUOE0t3UgqPAYmJsWJ0QFkh8l9b09iZq57y6KzkEwLcGFa7GwH4zlMzHONjekK9bCexWA9N3ochbw9Xz0eq0NTq53HQN0AZXtHBo+jOO5MRy3H6tC6eHklrZP36yc0ysp+1hn+LHbAxqaKK4MAjnpA0jJbMRdjA8hn7Sl0FhNiY0clZdeauwXmpDOVNlkZIzI/TgwcQkwDzOznxo6laGwRYJmXae2zn+X4yfskB4K0iLBtBG1VmdnPfcjn9LlRh3RzB9Lp6hwSwNnOpDgxNozJISeQK8fq0dJ9emVumGSWwcA6+6PgBUjbfP06D8LY8HEUi7olL4bmtiW250xMinw2P2pIVebc6F1pc1XpaY1ibpB5UmdSjVuVfb14EDinRLxMdR1xbhAY0ErjxvkiDwAyXVWOLe/nIUekT3pf7GO2RZdb1x1ubyHwIOulzv9CSxoPAH6XXN/iAFK9CACpu+SBxO89pt8XBEDg4OqdE6UxM/mMjm5n8t1e7+KEjcoAV0up6Llqn/odk4KZKzmi9jOVAf/UUgAlahtrkZkbvZs5O6o8QZ6LKrOkr43CWEm5uE948IB5ih5V5lpPbPMhswAXPLlXqaqDjKu8Z75kNpn7g8gddWzFnIqum4PINlv7gt+3vUDIggAIsgEvvrQNz2/dZpV6PuuMpbjpxhsqp0u/Rs7071EtCJxE/GMydwWRUffnB3lG3qP7s7KTYyjkMk4LQrLJxvBncjFwAU4OHzJ8Pob6xi6kFRY3Ey01A5BM3PUqv7jOpGgp2PFBFLW6Bjy9s7CUysVuknlsuB8oshaD/TTOwjgtnafYkLTez4Lal5TfdhRO9K2aL51MimVkMyOOmhe0IKTSrTb2RyJ8nU+dZtl8ZtBhqSmXY0i3nYIG5RSsyyw2pEkjbz5N9dIvqVsQrOcmhhx1Day2plttHP+m+ZwZG0YxO4xYTLd61KOxrcf2vElmWhXceOulFUtnUuREJPlX3mH1iFlsk9KNIxQ5LWL28uVkBs2O9zstCOUYEs3dSCkMgaY1yH521jWIWydi6dPWXQzsO+PcQAypdAsalPoRpn7m3Chk6HLTrzqkWntsc8vUz1yDptM46xqoPmvVglBmKuDECIoaI6lVVyDdhgal/oNJ5smJYRQnnVa8MurQ2L7E5nrVZRaWPXNtETGf3WsxmMaHvUarg1rPgGCIxZOqAEcUO9LrxsiMCTX12S1eIajukN801ZHQrR+8l/pOWjDcijXxPkGl7ixXwPXMTMAotOFS1gUBEDjRfnTfv+Cu7z+IWJxFWxqQzeZxxrJe/OWn/zOWLasG0+3du9dSimRNZMcwvbG/v99apAuBB2GhuBhy2QlMDW1BHQoO7jmW9K3vWI/ktInT5GLo3/tLpAY3G/HJVKITTRf+cWUj4PMqIOL4cDxMIImggJskFasjBuH4biRLbxnqqgG52CK09KxxZ1JxhsG+AAAGeElEQVTMTSD70tcQK9sLRMkGFJbehI7T1lj/a2JSpBXLrVaBTEUyxSCMDh1Cw+RexGLOWI9CuRnpRRdX+snBpFiawti276Aud9zYz/mOi9F5rmAlNJ1OafamWd5kccpmM5ap3xiDMLgfDbn9VjSKfuXRjubF6z2ZFEdeuBN1+UGjzIWejehYLtJJeelMil4Mf1SCbA/njQ4QMmP9wNh2xLV+Jll4AYz1uLTiUjAxKY7suBd142aGwELzCnRc8HsVmfXDAYPguKmY5jM3F/Yx57MOECZGDiOe2W2MmyiSlbB3YwW06i4Gjvfwjh+hYcIsc7H1XLSf/zuuMrOf9SqC8mYCB7UwlgoQxgZfR32OrkUnb3G+3IzmxZcgPu3W0y2A+dwkMrvuQb1xPseQW7QRXSuuUebGhK34mKQTdotBUK1JdiZFd30jN34CBfYpZVaBhp+uqquLVw4mOmOsXJdeukMe2tQ2qcCI84eXGjgpO8iiRLdqqDRb64HzzMmkKA4JJleIPEBEqcEyJwCBJxfGEvhdtBz81d98ETw1kUnxjYOHLMrlzVtewsrlS3HLF/6u8or77rvP6qSlS5eiq6vLAgd9fX1W5910UzWgy++bfr/PlwXBNAn9ZJW/h8liKKTPR/N0FoPpNB4mi0E3vXn1He+V5VFVgEDff+boJjTEgmUx6KfxMFkMuqJQAydNfU0lQzRuzGI4/jKSU0eMQ0SipHLbBjQqlNa8UW40YXgQ+JyqWISPmQFM7j7KqFkM8c4rKi4U02k8DA+CKjPHjArPza+rci7oAGF8YB8a8ubNknoj37gGre2LrXGQvlh1Qw+TxaD3sx+TokzX0wHCWN9uJIrmEtOkO0f7FUhNm/Y5nnxeWlDCZjHoekNPIVQnqO4mkwCBMowd34mkZxbD1ZUqlLrMYXkQdJm9CuTp4DpKFoPc0NVN1i+LQa2ganIx+OkOU/aB+h4vemnKK0u6u7k32Gcii6FqXVHHWrdWBN1L5gQgsPPIVeB3ff2b/4x7f/IImprSuPzSi/H6G4ewuKcbO3e/Chbw+cFdt1VOd+RCIBnS4cMM7BInFKJ3duCaNWsi++91GaMCBL+2+v1ei58rHECoUi2bZAoDEN6OTIpqP/ulKi0UJkVV5mAAQVS8q4Vq2TQ3wgAEVWZx4vRLcyTnQsJhQRgf3IeGnDtAyDWuQds0QDDJHAYg6P3sBxCkD18HCKN9u5Asmtx0Vi6LDSDom1dYgBAGpPNkSv4CGUejAoSREFTLusxhAYIu82zzIIhsJbuLwQ8gqERJpnuD6I6ZYFJ0czH4pTnWQt3P8Z1VFwMVAs1Cfil/n/38LXj6mZfwiY9/GM88+wLOX7USB988jEWLuvDoY0/i67d/HkuWLLHWPSfVsWPH0Nvbi8HBwYq5miYafi9I1KnfJs3fowKEheJiGBk8hFRul2tT1VoMJhdDGICgnwT8Ft1MMCmKLAaa/0TmRRgLgu5iCLLIZ4IoyVmsqYCJrV9GrOSsUMg25ZtXovOC363Me/00429BqB0giIwApvFVWQnDAAR1LswVQDC6GLZ9F3WT4lChX4XUUnSs+1jln9W1b52qx8YqVO+m52cCIOguhrAAQddXUXkQwgAE3cUQFiDop+fZBggcS35DDTD201UqQNDrXXAuBNEdOkBQD1RBmRRpEWJWhe5ieFsDBDkgdAV4Xffe9y/4zt334w9//7exbNkSdHd1YmBgCNte3oMnn9qE++650wIZjz32mPVfxiEcPHjQsips2LDBUmCs8njllVfOO5NirTwIpkkYBNDwnqgWhFpdDLp8fotuJgAClZMotyvyl8MABLZXJUwJsshnAiDIgDEJasK5GMrI56skL3NlQdBlZl+HAQgqr8dcAQS6q1hOWj2YhLEgOLkbZh8g6JwCYQGCbsWbC4AgZKZPX1QiDAsQdJlnGyCY9KifrjpZrOkbO8pf+IMzg+5Boe+Tm09zs3sd8b6+fnzq03+D8YkczmD2wrvfgZ8/+gQOvP4mbr7xWnz8jwUhCNHWkSNHsHnzZgsIECiQOZFMioxDWLVq1bwDhNAdNIMPRAUIJhHCWBBMhCdu6WliYztZrIl9Hg4g2EdprgCCaW6EAQjq83MFEEwyhwEI6vNzZUHQZQ4LEPTn5wIgOA4Gs8qkWHstBnFgrdYzsUCNDy28ChBM/vwgh4uZsiAwsFQPlJ1tC8L/A71o3uKmuhVWAAAAAElFTkSuQmCC;" vertex="1" parent="1">
          <mxGeometry x="-560" y="470" width="520" height="331" as="geometry" />
        </mxCell>
        <mxCell id="ETw3CjuIp7A43dVD6oap-72" value="주간숙제" style="swimlane;fontStyle=0;childLayout=stackLayout;horizontal=1;startSize=26;horizontalStack=0;resizeParent=1;resizeParentMax=0;resizeLast=0;collapsible=1;marginBottom=0;swimlaneLine=1;shadow=0;" vertex="1" parent="1">
          <mxGeometry x="830" y="309" width="170" height="182" as="geometry" />
        </mxCell>
        <mxCell id="ETw3CjuIp7A43dVD6oap-133" value="FK) 캐릭명" style="text;strokeColor=none;fillColor=none;align=left;verticalAlign=top;spacingLeft=4;spacingRight=4;overflow=hidden;rotatable=0;points=[[0,0.5],[1,0.5]];portConstraint=eastwest;" vertex="1" parent="ETw3CjuIp7A43dVD6oap-72">
          <mxGeometry y="26" width="170" height="26" as="geometry" />
        </mxCell>
        <mxCell id="ETw3CjuIp7A43dVD6oap-136" value="FK) 유저아이디" style="text;strokeColor=none;fillColor=none;align=left;verticalAlign=top;spacingLeft=4;spacingRight=4;overflow=hidden;rotatable=0;points=[[0,0.5],[1,0.5]];portConstraint=eastwest;" vertex="1" parent="ETw3CjuIp7A43dVD6oap-72">
          <mxGeometry y="52" width="170" height="26" as="geometry" />
        </mxCell>
        <mxCell id="ETw3CjuIp7A43dVD6oap-73" value="주간에포나" style="text;strokeColor=none;fillColor=none;align=left;verticalAlign=top;spacingLeft=4;spacingRight=4;overflow=hidden;rotatable=0;points=[[0,0.5],[1,0.5]];portConstraint=eastwest;" vertex="1" parent="ETw3CjuIp7A43dVD6oap-72">
          <mxGeometry y="78" width="170" height="26" as="geometry" />
        </mxCell>
        <mxCell id="ETw3CjuIp7A43dVD6oap-74" value="어비스레이드" style="text;strokeColor=none;fillColor=none;align=left;verticalAlign=top;spacingLeft=4;spacingRight=4;overflow=hidden;rotatable=0;points=[[0,0.5],[1,0.5]];portConstraint=eastwest;" vertex="1" parent="ETw3CjuIp7A43dVD6oap-72">
          <mxGeometry y="104" width="170" height="26" as="geometry" />
        </mxCell>
        <mxCell id="ETw3CjuIp7A43dVD6oap-75" value="도전가디언토벌" style="text;strokeColor=none;fillColor=none;align=left;verticalAlign=top;spacingLeft=4;spacingRight=4;overflow=hidden;rotatable=0;points=[[0,0.5],[1,0.5]];portConstraint=eastwest;" vertex="1" parent="ETw3CjuIp7A43dVD6oap-72">
          <mxGeometry y="130" width="170" height="26" as="geometry" />
        </mxCell>
        <mxCell id="ETw3CjuIp7A43dVD6oap-76" value="도전어비스" style="text;strokeColor=none;fillColor=none;align=left;verticalAlign=top;spacingLeft=4;spacingRight=4;overflow=hidden;rotatable=0;points=[[0,0.5],[1,0.5]];portConstraint=eastwest;" vertex="1" parent="ETw3CjuIp7A43dVD6oap-72">
          <mxGeometry y="156" width="170" height="26" as="geometry" />
        </mxCell>
        <mxCell id="ETw3CjuIp7A43dVD6oap-105" value="유저" style="swimlane;fontStyle=0;childLayout=stackLayout;horizontal=1;startSize=26;horizontalStack=0;resizeParent=1;resizeParentMax=0;resizeLast=0;collapsible=1;marginBottom=0;swimlaneLine=1;shadow=0;" vertex="1" parent="1">
          <mxGeometry x="280" y="26" width="270" height="104" as="geometry" />
        </mxCell>
        <mxCell id="ETw3CjuIp7A43dVD6oap-116" value="PK) 유저아이디 : VARCHAR(n)" style="text;strokeColor=none;fillColor=none;align=left;verticalAlign=top;spacingLeft=4;spacingRight=4;overflow=hidden;rotatable=0;points=[[0,0.5],[1,0.5]];portConstraint=eastwest;" vertex="1" parent="ETw3CjuIp7A43dVD6oap-105">
          <mxGeometry y="26" width="270" height="26" as="geometry" />
        </mxCell>
        <mxCell id="ETw3CjuIp7A43dVD6oap-117" value="유저비밀번호 : VARCHAR(n)" style="text;strokeColor=none;fillColor=none;align=left;verticalAlign=top;spacingLeft=4;spacingRight=4;overflow=hidden;rotatable=0;points=[[0,0.5],[1,0.5]];portConstraint=eastwest;" vertex="1" parent="ETw3CjuIp7A43dVD6oap-105">
          <mxGeometry y="52" width="270" height="26" as="geometry" />
        </mxCell>
        <mxCell id="ETw3CjuIp7A43dVD6oap-113" value="PK) 캐릭터들 : VARCHAR(n)" style="text;strokeColor=none;fillColor=none;align=left;verticalAlign=top;spacingLeft=4;spacingRight=4;overflow=hidden;rotatable=0;points=[[0,0.5],[1,0.5]];portConstraint=eastwest;" vertex="1" parent="ETw3CjuIp7A43dVD6oap-105">
          <mxGeometry y="78" width="270" height="26" as="geometry" />
        </mxCell>
        <mxCell id="ETw3CjuIp7A43dVD6oap-120" value="캐릭터" style="swimlane;fontStyle=0;childLayout=stackLayout;horizontal=1;startSize=26;horizontalStack=0;resizeParent=1;resizeParentMax=0;resizeLast=0;collapsible=1;marginBottom=0;swimlaneLine=1;shadow=0;" vertex="1" parent="1">
          <mxGeometry x="270" y="410" width="170" height="260" as="geometry" />
        </mxCell>
        <mxCell id="ETw3CjuIp7A43dVD6oap-122" value="PK) 캐릭명" style="text;strokeColor=none;fillColor=none;align=left;verticalAlign=top;spacingLeft=4;spacingRight=4;overflow=hidden;rotatable=0;points=[[0,0.5],[1,0.5]];portConstraint=eastwest;" vertex="1" parent="ETw3CjuIp7A43dVD6oap-120">
          <mxGeometry y="26" width="170" height="26" as="geometry" />
        </mxCell>
        <mxCell id="ETw3CjuIp7A43dVD6oap-121" value="서버" style="text;strokeColor=none;fillColor=none;align=left;verticalAlign=top;spacingLeft=4;spacingRight=4;overflow=hidden;rotatable=0;points=[[0,0.5],[1,0.5]];portConstraint=eastwest;" vertex="1" parent="ETw3CjuIp7A43dVD6oap-120">
          <mxGeometry y="52" width="170" height="26" as="geometry" />
        </mxCell>
        <mxCell id="ETw3CjuIp7A43dVD6oap-123" value="클래스" style="text;strokeColor=none;fillColor=none;align=left;verticalAlign=top;spacingLeft=4;spacingRight=4;overflow=hidden;rotatable=0;points=[[0,0.5],[1,0.5]];portConstraint=eastwest;" vertex="1" parent="ETw3CjuIp7A43dVD6oap-120">
          <mxGeometry y="78" width="170" height="26" as="geometry" />
        </mxCell>
        <mxCell id="ETw3CjuIp7A43dVD6oap-124" value="칭호" style="text;strokeColor=none;fillColor=none;align=left;verticalAlign=top;spacingLeft=4;spacingRight=4;overflow=hidden;rotatable=0;points=[[0,0.5],[1,0.5]];portConstraint=eastwest;" vertex="1" parent="ETw3CjuIp7A43dVD6oap-120">
          <mxGeometry y="104" width="170" height="26" as="geometry" />
        </mxCell>
        <mxCell id="ETw3CjuIp7A43dVD6oap-125" value="전투레벨 : tinyint(n)" style="text;strokeColor=none;fillColor=none;align=left;verticalAlign=top;spacingLeft=4;spacingRight=4;overflow=hidden;rotatable=0;points=[[0,0.5],[1,0.5]];portConstraint=eastwest;" vertex="1" parent="ETw3CjuIp7A43dVD6oap-120">
          <mxGeometry y="130" width="170" height="26" as="geometry" />
        </mxCell>
        <mxCell id="ETw3CjuIp7A43dVD6oap-126" value="아이템레벨 : tinyint(n)" style="text;strokeColor=none;fillColor=none;align=left;verticalAlign=top;spacingLeft=4;spacingRight=4;overflow=hidden;rotatable=0;points=[[0,0.5],[1,0.5]];portConstraint=eastwest;" vertex="1" parent="ETw3CjuIp7A43dVD6oap-120">
          <mxGeometry y="156" width="170" height="26" as="geometry" />
        </mxCell>
        <mxCell id="ETw3CjuIp7A43dVD6oap-127" value="원정대" style="text;strokeColor=none;fillColor=none;align=left;verticalAlign=top;spacingLeft=4;spacingRight=4;overflow=hidden;rotatable=0;points=[[0,0.5],[1,0.5]];portConstraint=eastwest;" vertex="1" parent="ETw3CjuIp7A43dVD6oap-120">
          <mxGeometry y="182" width="170" height="26" as="geometry" />
        </mxCell>
        <mxCell id="ETw3CjuIp7A43dVD6oap-128" value="PVP" style="text;strokeColor=none;fillColor=none;align=left;verticalAlign=top;spacingLeft=4;spacingRight=4;overflow=hidden;rotatable=0;points=[[0,0.5],[1,0.5]];portConstraint=eastwest;" vertex="1" parent="ETw3CjuIp7A43dVD6oap-120">
          <mxGeometry y="208" width="170" height="26" as="geometry" />
        </mxCell>
        <mxCell id="ETw3CjuIp7A43dVD6oap-129" value="영지이름" style="text;strokeColor=none;fillColor=none;align=left;verticalAlign=top;spacingLeft=4;spacingRight=4;overflow=hidden;rotatable=0;points=[[0,0.5],[1,0.5]];portConstraint=eastwest;" vertex="1" parent="ETw3CjuIp7A43dVD6oap-120">
          <mxGeometry y="234" width="170" height="26" as="geometry" />
        </mxCell>
        <mxCell id="ETw3CjuIp7A43dVD6oap-141" value="" style="endArrow=classic;html=1;entryX=0.007;entryY=0.538;entryDx=0;entryDy=0;entryPerimeter=0;exitX=0;exitY=0.462;exitDx=0;exitDy=0;exitPerimeter=0;" edge="1" parent="1" source="ETw3CjuIp7A43dVD6oap-122" target="ETw3CjuIp7A43dVD6oap-113">
          <mxGeometry width="50" height="50" relative="1" as="geometry">
            <mxPoint x="282" y="474" as="sourcePoint" />
            <mxPoint x="400" y="340" as="targetPoint" />
            <Array as="points">
              <mxPoint x="190" y="260" />
            </Array>
          </mxGeometry>
        </mxCell>
        <mxCell id="ETw3CjuIp7A43dVD6oap-142" value="" style="endArrow=classic;html=1;entryX=0;entryY=0.462;entryDx=0;entryDy=0;entryPerimeter=0;" edge="1" parent="1" source="ETw3CjuIp7A43dVD6oap-122" target="ETw3CjuIp7A43dVD6oap-134">
          <mxGeometry width="50" height="50" relative="1" as="geometry">
            <mxPoint x="350" y="390" as="sourcePoint" />
            <mxPoint x="400" y="340" as="targetPoint" />
          </mxGeometry>
        </mxCell>
        <mxCell id="ETw3CjuIp7A43dVD6oap-145" value="" style="endArrow=classic;html=1;exitX=1.004;exitY=0.577;exitDx=0;exitDy=0;exitPerimeter=0;" edge="1" parent="1" source="ETw3CjuIp7A43dVD6oap-116" target="ETw3CjuIp7A43dVD6oap-135">
          <mxGeometry width="50" height="50" relative="1" as="geometry">
            <mxPoint x="550" y="390" as="sourcePoint" />
            <mxPoint x="600" y="340" as="targetPoint" />
            <Array as="points">
              <mxPoint x="680" y="67" />
            </Array>
          </mxGeometry>
        </mxCell>
        <mxCell id="ETw3CjuIp7A43dVD6oap-146" value="" style="endArrow=classic;html=1;entryX=-0.012;entryY=0.5;entryDx=0;entryDy=0;entryPerimeter=0;" edge="1" parent="1" target="ETw3CjuIp7A43dVD6oap-136">
          <mxGeometry width="50" height="50" relative="1" as="geometry">
            <mxPoint x="680" y="370" as="sourcePoint" />
            <mxPoint x="600" y="340" as="targetPoint" />
          </mxGeometry>
        </mxCell>
        <mxCell id="ETw3CjuIp7A43dVD6oap-147" value="" style="endArrow=classic;html=1;entryX=-0.012;entryY=0.423;entryDx=0;entryDy=0;entryPerimeter=0;" edge="1" parent="1" target="ETw3CjuIp7A43dVD6oap-133">
          <mxGeometry width="50" height="50" relative="1" as="geometry">
            <mxPoint x="520" y="450" as="sourcePoint" />
            <mxPoint x="600" y="340" as="targetPoint" />
            <Array as="points">
              <mxPoint x="520" y="340" />
            </Array>
          </mxGeometry>
        </mxCell>
        <mxCell id="ETw3CjuIp7A43dVD6oap-149" value="" style="endArrow=classic;html=1;" edge="1" parent="1" source="ETw3CjuIp7A43dVD6oap-62">
          <mxGeometry width="50" height="50" relative="1" as="geometry">
            <mxPoint x="870" y="541" as="sourcePoint" />
            <mxPoint x="920" y="491" as="targetPoint" />
          </mxGeometry>
        </mxCell>
        <mxCell id="ETw3CjuIp7A43dVD6oap-150" value="" style="endArrow=classic;html=1;entryX=0.488;entryY=1.038;entryDx=0;entryDy=0;entryPerimeter=0;exitX=-0.012;exitY=0.308;exitDx=0;exitDy=0;exitPerimeter=0;" edge="1" parent="1" source="ETw3CjuIp7A43dVD6oap-66" target="ETw3CjuIp7A43dVD6oap-49">
          <mxGeometry width="50" height="50" relative="1" as="geometry">
            <mxPoint x="927.6943005181347" y="590" as="sourcePoint" />
            <mxPoint x="930" y="501" as="targetPoint" />
            <Array as="points">
              <mxPoint x="700" y="640" />
            </Array>
          </mxGeometry>
        </mxCell>
      </root>
    </mxGraphModel>
  </diagram>
</mxfile>
